/* XPM */
static char *coinblue2_1_png1711199611[] = {
/* columns rows colors chars-per-pixel */
"64 64 151 2 ",
"   c None",
".  c black",
"X  c #080000",
"o  c #0B0000",
"O  c #0C0600",
"+  c #0B0704",
"@  c #0C0B00",
"#  c #0D0D01",
"$  c #0F0C07",
"%  c #04080B",
"&  c #04090C",
"*  c #050A0E",
"=  c #120D06",
"-  c #150C07",
";  c #170F08",
":  c #0F1702",
">  c #101903",
",  c #1A1309",
"<  c #1A150B",
"1  c #1F170B",
"2  c #1E190F",
"3  c #081117",
"4  c #09131A",
"5  c #101110",
"6  c #131513",
"7  c #221609",
"8  c #27190F",
"9  c #2F1F11",
"0  c #112304",
"q  c #122705",
"w  c #132804",
"e  c #132B04",
"r  c #112D07",
"t  c #0F3209",
"y  c #123307",
"u  c #163506",
"i  c #173C06",
"p  c #2F2211",
"a  c #272218",
"s  c #3A2715",
"d  c #3A2B15",
"f  c #3C331E",
"g  c #0C1A23",
"h  c #0D1C25",
"j  c #11232F",
"k  c #122532",
"l  c #152C3A",
"z  c #373428",
"x  c #272D35",
"c  c #323238",
"v  c #432E16",
"b  c #462F19",
"n  c #463319",
"m  c #4B361B",
"M  c #523C1E",
"N  c #6D192F",
"B  c #4B3C25",
"V  c #503D23",
"C  c #5E3F22",
"Z  c #0F4A0F",
"A  c #194207",
"S  c #104B0F",
"D  c #154D0C",
"F  c #194F0A",
"G  c #1C5009",
"H  c #1B550B",
"J  c #1D5609",
"K  c #0E5011",
"L  c #105712",
"P  c #166612",
"I  c #136414",
"U  c #5E4422",
"Y  c #5E4522",
"T  c #564829",
"R  c #5A4C2D",
"E  c #6A4D26",
"W  c #6D4C2A",
"Q  c #75512A",
"!  c #76562B",
"~  c #695934",
"^  c #78663C",
"/  c #1E3E52",
"(  c #385065",
")  c #2B5876",
"_  c #3C5970",
"`  c #5C525A",
"'  c #646471",
"]  c #7B6E78",
"[  c #767676",
"{  c #815E2F",
"}  c #826237",
"|  c #8D6433",
" . c #8D6633",
".. c #8D6733",
"X. c #9B6737",
"o. c #997037",
"O. c #A5783C",
"+. c #942442",
"@. c #C72C55",
"#. c #877343",
"$. c #B17740",
"%. c #B17B40",
"&. c #BD7F45",
"*. c #B18140",
"=. c #BD8345",
"-. c #BD8545",
";. c #BD8745",
":. c #BD8945",
">. c #BD8A45",
",. c #A58C52",
"<. c #B4995A",
"1. c #C3884B",
"2. c #C68D4E",
"3. c #CC9754",
"4. c #D09C58",
"5. c #C3A661",
"6. c #D7B166",
"7. c #DAB66A",
"8. c #E1C070",
"9. c #F0CD78",
"0. c #2F6181",
"q. c #336A8D",
"w. c #717F95",
"e. c #8A7C87",
"r. c #6A839D",
"t. c #7C8498",
"y. c #4085B1",
"u. c #568EB7",
"i. c #7A90AD",
"p. c #5092C0",
"a. c #5B97C3",
"s. c #669CC6",
"d. c #779DC1",
"f. c #71A1CA",
"g. c #7CA6CD",
"h. c #909090",
"j. c #808DA4",
"k. c #899EBC",
"l. c #B8A5B4",
"z. c #87ABD0",
"x. c #92B0D3",
"c. c #9DB5D7",
"v. c #A8BADA",
"b. c #C7B3C3",
"n. c #BEC4E0",
"m. c #C5C0D8",
"M. c #C9C9E4",
"N. c #D4CEE7",
"B. c #DFD3EA",
"V. c #EAD8ED",
"C. c #F6DDF1",
/* pixels */
"                                                                                                                                ",
"                                                                                                                                ",
"                                                                                                                                ",
"                                                                                                                                ",
"                                        . . 4 4 k k ] ] +.+.+.+.+.+.l l h h . .                                                 ",
"                                        . . 4 4 k k ] ] +.+.+.+.+.+.l l h h . .                                                 ",
"                                4 4 _ _ @.@.u.u.x.x.x.x.@.@.s.s.C.C.N.N.g.g.y.y.) ) k k                                         ",
"                                4 4 _ _ @.@.u.u.x.x.x.x.@.@.s.s.C.C.N.N.g.g.y.y.) ) k k                                         ",
"                        . . e.e.v.v.c.c.c.c.c.c.b.b.l.l.r.r.@.@.j.j.k.k.@.@.@.@.N.N.V.V.0.0.* *                                 ",
"                        . . e.e.v.v.c.c.c.c.c.c.b.b.l.l.r.r.@.@.j.j.k.k.@.@.@.@.N.N.V.V.0.0.* *                                 ",
"                    . . +.+.t.t.+.+.c c p p p p M M Y Y Y Y U U Y Y n n p p a a x x +.+.r.r.i.i.* *                             ",
"                    . . +.+.t.t.+.+.c c p p p p M M Y Y Y Y U U Y Y n n p p a a x x +.+.r.r.i.i.* *                             ",
"                    % % B B ! ! O.O.>.>.-.>.-.-.>.>.o.o.| | o.o.-.-.>.>.>.>.>.>.>.>.o.o.E E z z k k                             ",
"                    % % B B ! ! O.O.>.-.-.-.>.>.>.>.o.o.|  .o.o.-.-.>.>.>.>.>.>.>.>.o.o.E E z z k k                             ",
"                . . { { >.>.>.>.>.>.-.>.>.-.>.-.= = T T ^ ^ T T < < -.-.=.=.=.=.-.-.=.=.-.-.=.=.Q Q                             ",
"                . . { { >.>.>.>.-.>.>.-.-.>.-.-.= = T T ^ ^ T T < < -.-.=.=.=.=.-.-.=.=.-.-.=.=.Q Q                             ",
"                . . Y Y >.>.-.-.-.-.-.-.-.-.-.-.$ $ h.h.h.h.h.h.f f >.>.-.-.>.>.>.>.>.>.>.>.*.*.m m                             ",
"                . . Y Y >.>.-.-.-.-.-.-.-.-.-.-.$ $ h.h.h.h.h.h.f f >.>.-.-.>.>.>.>.>.>.>.>.*.*.m m                             ",
"                        1 1 n n ! !  . .>.>.>.>.p p [ [ h.h.[ [ f f >.>.-.-.%.%. . .E E d d = =                                 ",
"                        1 1 n n ! !  . .>.>.>.>.p p [ [ h.h.[ [ f f >.>.-.-.%.%. . .E E d d = =                                 ",
"                                        . . . . $ $ [ [ [ [ [ [ f f < , . . . .                                                 ",
"                                        . . . . $ $ [ [ [ [ [ [ f f , , . . . .                                                 ",
"                                                f f 9.9.[ [ 9.9.~ ~                                                             ",
"                                                f f 9.9.[ [ 9.9.~ ~                                                             ",
"                                                f f 9.9.9.9.9.9.^ ^                                                             ",
"                                                f f 9.9.9.9.9.9.^ ^                                                             ",
"                                                B B 9.9.9.9.9.9.^ ^                 . . . . c c * %                             ",
"                                                B B 9.9.9.9.9.9.^ ^                 . . . . c c & %                             ",
"                                            . . <.<.9.9.9.9.9.9.^ ^         . . k k +.+.c.c.z.z.@.@.+.+.. .                     ",
"                                            . . <.<.9.9.9.9.9.9.^ ^         . . k k +.+.c.c.z.z.@.@.+.+.. .                     ",
"                    . . N N l l N N N N j j 3 3 #.#.9.9.9.9.9.9.R R     3 3 ' ' ( ( +.+.f.f.C.C.B.B.a.a.+.+.                    ",
"                    . . N N l l N N N N j j 3 3 #.#.9.9.9.9.9.9.R R     3 3 ' ' ( ( +.+.f.f.C.C.B.B.a.a.+.+.                    ",
"                . . t.t.g.g.N.N.N N n.n.M.M.d.d.2 2 9.9.9.9.9.9.= =     . . Y Y ....p p +.+.q.q.@.@.s.s.w.w.O +                 ",
"                . . t.t.g.g.N.N.N N n.n.M.M.d.d.2 2 9.9.9.9.9.9.= =     . . Y Y  . .p p +.+.q.q.@.@.s.s.w.r.O +                 ",
"                h h x.x.p.p.g.g.@.@.x.x.c.c.a.a.j j 9.9.9.9.,.,.. .     d d  ...-.-.>.>.{ { 5 5 @.@.C.C.l.l.+ +                 ",
"                h h x.x.p.p.g.g.@.@.x.x.c.c.a.a.j j 9.9.9.9.,.,.. .     d d ....-.-.>.>.{ { 5 5 @.@.C.C.l.l.+ +                 ",
"                +.+.@.@.a.a.c.c.f.f.@.@.f.f.V.V.g g 9.9.9.9.^ ^         . . $ $ + + p p Y Y U Y +.+.v.v.l.l.X X                 ",
"                +.+.@.@.a.a.c.c.f.f.@.@.f.f.V.V.g g 9.9.9.9.^ ^         . . $ $ + + p p Y Y U Y +.+.v.v.l.l.X X                 ",
"                m.m.+.+.m.m.C.C.V.V.@.@.z.z.e.e.f f 9.9.9.9.B B         $ $ [ [ h.h.8.8.p p >.>.; ; u.u.N N X X                 ",
"                m.m.+.+.m.m.C.C.V.V.@.@.z.z.e.e.f f 9.9.9.9.B B         $ $ [ [ h.h.8.8.p p >.>.; ; u.u.N N X X                 ",
"                ` ` N N +.+.M.M.x.x.+.+.h h T T 6.6.3.3.9.9.f f     . . ,.,.h.h.h.h.[ [ d d -.-.M M w.w.4 4                     ",
"                ` ` N N +.+.M.M.x.x.+.+.h h T T 6.6.3.3.9.9.f f     . . ,.,.h.h.h.h.[ [ d d -.-.M M w.w.4 4                     ",
"                    % % k k / / 6 6 T T 9 9 2.2.1.1.4.4.8.8.. .     R R 9.9.9.9.9.9.$ $ { { -.-.E E % % . .                     ",
"                    & * k k / / 6 6 T T 9 9 2.2.1.1.4.4.8.8.. .     R R 9.9.9.9.9.9.$ $ { { -.-.E E % % . .                     ",
"                            . . [ [ h.h.V V O.O.&.&.2.2.} } . . . . <.<.9.9.9.9.~ ~ . . . . . . . .                             ",
"                            . . [ [ h.h.V V O.O.&.&.2.2.} } . . . . <.<.9.9.9.9.~ ~ . . . . . . . .                             ",
"                            X X [ [ h.h.#.#.C C &.&.$.$., , . . ~ ~ 9.9.4.4.5.5.. .                                             ",
"                            X X [ [ h.h.#.#.C C &.&.$.$., , . . ~ ~ 9.9.4.4.5.5.. .                                             ",
"                                W W 2.2.7.7.s s C C + + 4.4.1.1.4.4.4.4.4.4.f f                                                 ",
"                                W W 2.2.7.7.s s C C + + 4.4.1.1.4.4.4.4.4.4.f f                                                 ",
"                                b b &.&.&.&.. . X.X.X.X.X.X.4.4.1.1.X.X.1.1.. .                                                 ",
"                                b b &.&.&.&.. . X.X.X.X.X.X.4.4.1.1.X.X.1.1.. .                                                 ",
"                    # # r e X X O O X.X.v v X X b b 7 7 X X # # 8 8 X.X.- -                                                     ",
"                    # # e e X X O O X.X.v v X X b b 7 7 X X # # 8 8 X.X.- -                                                     ",
"                    o o 0 0 G G r r : : H H i i e e q q e e > > # # A A : :                                                     ",
"                    o o 0 0 G G r r : : H H i i e e q q e e > > # = A A : :                                                     ",
"                o o u u F F P P I I I I I I P P L L y y I I S S D D J J : : 0 0 @ @                                             ",
"                o o u u F F P P I I I I I I P P L L y y I I S S D D J J : : 0 0 @ @                                             ",
"                    o o w w L L I I I I I I K K S S S S Z Z t t r r 0 0 0 0 > >                                                 ",
"                    o o w w L L I I I I I I K K S S S S Z Z t t r r 0 0 0 0 > >                                                 ",
"                                                                                                                                ",
"                                                                                                                                ",
"                                                                                                                                ",
"                                                                                                                                "
};
