/* XPM */
static char *coinblue41711125451[] = {
/* columns rows colors chars-per-pixel */
"32 32 145 2 ",
"   c None",
".  c black",
"X  c #080000",
"o  c #0A0000",
"O  c #0B0000",
"+  c #0C0600",
"@  c #0B0704",
"#  c #0C0B00",
"$  c #0D0D01",
"%  c #0E0E01",
"&  c #0B0804",
"*  c #0F0C07",
"=  c #04080B",
"-  c #04090C",
";  c #050A0E",
":  c #100D07",
">  c #120D06",
",  c #150C07",
"<  c #170F08",
"1  c #0F1402",
"2  c #0F1602",
"3  c #0F1702",
"4  c #101903",
"5  c #101A03",
"6  c #171108",
"7  c #1A1309",
"8  c #1A150B",
"9  c #1F170B",
"0  c #1E190F",
"q  c #081117",
"w  c #09131A",
"e  c #101110",
"r  c #131513",
"t  c #221609",
"y  c #27190F",
"u  c #2F1F11",
"i  c #3E101C",
"p  c #122103",
"a  c #112304",
"s  c #122705",
"d  c #132804",
"f  c #132B04",
"g  c #132E05",
"h  c #112D07",
"j  c #142E05",
"k  c #152E05",
"l  c #0F3209",
"z  c #123307",
"x  c #163506",
"c  c #173C06",
"v  c #2F2211",
"b  c #272218",
"n  c #3A2715",
"m  c #3A2B15",
"M  c #3C331E",
"N  c #0C1A23",
"B  c #0D1C25",
"V  c #182227",
"C  c #11232F",
"Z  c #373428",
"A  c #272D35",
"S  c #323238",
"D  c #432E16",
"F  c #452C18",
"G  c #462F19",
"H  c #463319",
"J  c #4B361B",
"K  c #523C1E",
"L  c #6D192F",
"P  c #4B3C25",
"I  c #4B3F25",
"U  c #503D23",
"Y  c #5E3F22",
"T  c #0F4A0F",
"R  c #194207",
"E  c #104B0F",
"W  c #154D0C",
"Q  c #194F0A",
"!  c #12510F",
"~  c #1C5009",
"^  c #1B550B",
"/  c #1D5609",
"(  c #0E5011",
")  c #105712",
"_  c #166612",
"`  c #126414",
"'  c #136414",
"]  c #5E4422",
"[  c #5E4522",
"{  c #564829",
"}  c #5A4C2D",
"|  c #6A4D26",
" . c #6D4C2A",
".. c #75512A",
"X. c #76562B",
"o. c #695934",
"O. c #78663C",
"+. c #1E3E52",
"@. c #5C525A",
"#. c gray38",
"$. c #646471",
"%. c #767676",
"&. c #7E7E7E",
"*. c #815E2F",
"=. c #826237",
"-. c #8D6433",
";. c #8D6633",
":. c #8D6733",
">. c #9B6737",
",. c #997037",
"<. c #A5783C",
"1. c #942442",
"2. c #C72C55",
"3. c #877343",
"4. c #B17740",
"5. c #B17B40",
"6. c #BD7F45",
"7. c #B85871",
"8. c #B18140",
"9. c #BD8445",
"0. c #BD8545",
"q. c #BD8645",
"w. c #BD8745",
"e. c #BD8845",
"r. c #BD8945",
"t. c #BD8A45",
"y. c #B4995A",
"u. c #C3884B",
"i. c #C68D4E",
"p. c #CC9754",
"a. c #D09C58",
"s. c #D7B166",
"d. c #E1C070",
"f. c #F0CD78",
"g. c #8A7C87",
"h. c #909090",
"j. c #D0889B",
"k. c #F09DB3",
"l. c #BEC4E0",
"z. c #EEC8D2",
"x. c #C9C9E4",
"c. c #D4CEE7",
"v. c #DFD3EA",
"b. c #EAD8ED",
"n. c #F6DDF1",
/* pixels */
"                                                                ",
"                                                                ",
"                    . w C z.1.1.1.i B .                         ",
"                w i 2.i 7.7.2.i n.i i k.i i                     ",
"            . z.j.k.k.j.j.z.k.2.k.j.2.2.z.b.i ;                 ",
"          . 1.z.1.S v v K ] ] ] [ H v b A 1.7.j.;               ",
"          = P X.<.t.w.$.$.,.-.,.$.$.t.t.t.,.| Z i               ",
"        . *.t.t.e.e.e.$.> I O.{ 8 $.0.0.0.0.9.9...              ",
"        . [ t.0.0.0.0.$.* h.h.h.M $.0.t.t.t.t.8.J               ",
"            9 H X.;.t.$.v %.h.%.M $.0.5.;.| m >                 ",
"                    . . * %.%.#.M 8 . .                         ",
"                        M #.g.#.o.                              ",
"                        M g.#.g.O.                              ",
"                        P &.g.&.O.        . . S ;               ",
"                      . y.&.&.&.O.    . C 1.j.j.2.1..           ",
"          . L i L L i q 3.g.&.g.}   q $.i 1.7.n.v.7.1.          ",
"        . z.z.c.L l.x.j.0 g.g.g.>   . [ :.v 1.k.2.7.j.@         ",
"        j.k.k.i 2.7.j.j.C $.$.$..   m :.$.$.*.e 2.n.z.@         ",
"        1.2.k.j.k.2.7.b.N f.f.O.    . * @ v [ [ 1.j.z.X         ",
"        z.1.z.n.b.2.7.g.M f.f.P     * %.h.#.v $.6 j.L X         ",
"        @.L 1.z.j.1.B { s.p.f.M   . g.h.#.%.m $.K 7.w           ",
"          ; C +.r { u i.u.a.d..   } #.#.#.* *.$.| = .           ",
"              . %.h.U <.6.i.=.. . g.&.&.o.. . . .               ",
"              X %.h.#.Y 6.4.7 . o.&.g.g..                       ",
"                 .g.#.n Y @ a.u.a.a.a.M                         ",
"                G g.g.. >.>.>.a.u.>.u..                         ",
"          > f O + >.D X G t X $ y >.,                           ",
"          X p ~ h 3 ^ c f s f 4 $ R 3                           ",
"        X x ~ _ ' ' ' _ ) z ' E W / 3 a #                       ",
"          O d ! ' ' ' ( E E T l h a a 4                         ",
"                                                                ",
"                                                                "
};
