/* XPM */
static char *coinblue21711125451[] = {
/* columns rows colors chars-per-pixel */
"32 32 173 2 ",
"   c None",
".  c black",
"X  c #080000",
"o  c #0A0000",
"O  c #0B0000",
"+  c #0C0600",
"@  c #0B0704",
"#  c #0C0B00",
"$  c #0D0D01",
"%  c #0E0E01",
"&  c #0B0804",
"*  c #0F0C07",
"=  c #04080B",
"-  c #04090C",
";  c #050A0E",
":  c #100D07",
">  c #120D06",
",  c #150C07",
"<  c #170F08",
"1  c #0F1402",
"2  c #0F1602",
"3  c #0F1702",
"4  c #101903",
"5  c #101A03",
"6  c #171108",
"7  c #1A1309",
"8  c #1A150B",
"9  c #1F170B",
"0  c #1E190F",
"q  c #081117",
"w  c #09131A",
"e  c #101110",
"r  c #131513",
"t  c #221609",
"y  c #27190F",
"u  c #2F1F11",
"i  c #122103",
"p  c #112304",
"a  c #122705",
"s  c #132804",
"d  c #132B04",
"f  c #132E05",
"g  c #112D07",
"h  c #142E05",
"j  c #152E05",
"k  c #0F3209",
"l  c #123307",
"z  c #163506",
"x  c #173C06",
"c  c #2F2211",
"v  c #272218",
"b  c #3A2715",
"n  c #3A2B15",
"m  c #3C331E",
"M  c #0C1A23",
"N  c #0D1C25",
"B  c #182227",
"V  c #11232F",
"C  c #122532",
"Z  c #152C3A",
"A  c #373428",
"S  c #272D35",
"D  c #323238",
"F  c #432E16",
"G  c #452C18",
"H  c #462F19",
"J  c #463319",
"K  c #4B361B",
"L  c #523C1E",
"P  c #6D192F",
"I  c #4B3C25",
"U  c #4B3F25",
"Y  c #503D23",
"T  c #5E3F22",
"R  c #0F4A0F",
"E  c #194207",
"W  c #104B0F",
"Q  c #154D0C",
"!  c #194F0A",
"~  c #12510F",
"^  c #1C5009",
"/  c #1B550B",
"(  c #1D5609",
")  c #0E5011",
"_  c #105712",
"`  c #166612",
"'  c #126414",
"]  c #136414",
"[  c #5E4422",
"{  c #5E4522",
"}  c #564829",
"|  c #5A4C2D",
" . c #6A4D26",
".. c #6D4C2A",
"X. c #75512A",
"o. c #76562B",
"O. c #695934",
"+. c #78663C",
"@. c #1E3E52",
"#. c #385065",
"$. c #2B5876",
"%. c #3C5970",
"&. c #5C525A",
"*. c #646471",
"=. c #7B6E78",
"-. c #767676",
";. c #815E2F",
":. c #826237",
">. c #8D6433",
",. c #8D6633",
"<. c #8D6733",
"1. c #9B6737",
"2. c #997037",
"3. c #A5783C",
"4. c #942442",
"5. c #C72C55",
"6. c #877343",
"7. c #B17740",
"8. c #B17B40",
"9. c #BD7F45",
"0. c #B18140",
"q. c #BD8345",
"w. c #BD8445",
"e. c #BD8545",
"r. c #BD8645",
"t. c #BD8745",
"y. c #BD8845",
"u. c #BD8945",
"i. c #BD8A45",
"p. c #A58C52",
"a. c #B4995A",
"s. c #C3884B",
"d. c #C68D4E",
"f. c #CC9754",
"g. c #D09C58",
"h. c #C3A661",
"j. c #D7B166",
"k. c #DAB66A",
"l. c #E1C070",
"z. c #F0CD78",
"x. c #2F6181",
"c. c #336A8D",
"v. c #717E95",
"b. c #717F95",
"n. c #8A7C87",
"m. c #6A839D",
"M. c #7C8498",
"N. c #4085B1",
"B. c #568EB7",
"V. c #7688A1",
"C. c #7A90AD",
"Z. c #5092C0",
"A. c #5B97C3",
"S. c #669CC6",
"D. c #779DC1",
"F. c #71A1CA",
"G. c #7CA6CD",
"H. c #909090",
"J. c #808DA4",
"K. c #899EBC",
"L. c #B8A5B4",
"P. c #87ABD0",
"I. c #92B0D3",
"U. c #9DB5D7",
"Y. c #A8BADA",
"T. c #C7B3C3",
"R. c #BEC4E0",
"E. c #C5C0D8",
"W. c #C9C9E4",
"Q. c #D4CEE7",
"!. c #DFD3EA",
"~. c #EAD8ED",
"^. c #F6DDF1",
/* pixels */
"                                                                ",
"                                                                ",
"                    . w C =.4.4.4.Z N .                         ",
"                w %.5.B.I.I.5.S.^.Q.G.N.$.C                     ",
"            . n.Y.U.U.U.T.L.m.5.J.K.5.5.Q.~.x.;                 ",
"          . 4.M.4.D c c L { { [ { J c v S 4.m.C.;               ",
"          = I o.3.u.t.t.i.2.>.2.e.i.i.i.i.2. .A C               ",
"        . ;.i.i.u.t.t.t.> } +.} 8 e.q.q.e.q.e.q.X.              ",
"        . { i.e.e.e.e.e.* H.H.H.m i.e.i.i.i.i.0.K               ",
"            9 J o.,.i.i.c -.H.-.m i.e.8.,. .n >                 ",
"                    . . * -.-.-.m 7 . .                         ",
"                        m z.-.z.O.                              ",
"                        m z.z.z.+.                              ",
"                        I z.z.z.+.        . . D -               ",
"                      . a.z.z.z.+.    . C 4.U.P.5.4..           ",
"          . P Z P P V q 6.z.z.z.|   q *.#.4.F.^.!.A.4.          ",
"        . M.G.Q.P R.W.D.0 z.z.z.>   . { <.c 4.c.5.S.b.@         ",
"        N I.Z.G.5.I.U.A.V z.z.p..   n <.e.i.;.e 5.^.L.@         ",
"        4.5.A.U.F.5.F.~.M z.z.+.    . * @ c { [ 4.Y.L.X         ",
"        E.4.E.^.~.5.P.n.m z.z.I     * -.H.l.c i.< B.P X         ",
"        &.P 4.W.I.4.N } j.f.z.m   . p.H.H.-.n e.L b.w           ",
"          - C @.r } u d.s.g.l..   | z.z.z.* ;.e. .= .           ",
"              . -.H.Y 3.9.d.:.. . a.z.z.O.. . . .               ",
"              X -.H.6.T 9.7.7 . O.z.g.h..                       ",
"                ..d.k.b T @ g.s.g.g.g.m                         ",
"                H 9.9.. 1.1.1.g.s.1.s..                         ",
"          $ d X + 1.F X H t X $ y 1.,                           ",
"          O p ^ g 3 / x d a d 4 $ E 3                           ",
"        O z ! ` ] ] ] ` _ l ] W Q ( 3 p #                       ",
"          O s _ ] ] ] ) W W R k g p p 4                         ",
"                                                                ",
"                                                                "
};
