/* XPM */
static char *coinblue1_1_png1711199611[] = {
/* columns rows colors chars-per-pixel */
"64 64 154 2 ",
"   c None",
".  c black",
"X  c #080000",
"o  c #0B0000",
"O  c #0C0600",
"+  c #0B0704",
"@  c #0C0B00",
"#  c #0D0D01",
"$  c #0F0C07",
"%  c #04080B",
"&  c #050A0E",
"*  c #120D06",
"=  c #150C07",
"-  c #0F1702",
";  c #101903",
":  c #171108",
">  c #1A1309",
",  c #1A150B",
"<  c #1F170B",
"1  c #1E190F",
"2  c #081117",
"3  c #09131A",
"4  c #101110",
"5  c #131513",
"6  c #221609",
"7  c #27190F",
"8  c #112304",
"9  c #122705",
"0  c #132B04",
"q  c #112D07",
"w  c #0F3209",
"e  c #123307",
"r  c #163506",
"t  c #173C06",
"y  c #2F2211",
"u  c #272218",
"i  c #3A2715",
"p  c #3A2B15",
"a  c #3C331E",
"s  c #0C1A23",
"d  c #0D1C25",
"f  c #182227",
"g  c #11232F",
"h  c #122532",
"j  c #152C3A",
"k  c #152C3B",
"l  c #373428",
"z  c #272D35",
"x  c #323238",
"c  c #432E16",
"v  c #462F19",
"b  c #463319",
"n  c #4B361B",
"m  c #523C1E",
"M  c #4B3C25",
"N  c #5E3F22",
"B  c #0F4A0F",
"V  c #194207",
"C  c #104B0F",
"Z  c #154D0C",
"A  c #194F0A",
"S  c #1C5009",
"D  c #1B550B",
"F  c #1D5609",
"G  c #0E5011",
"H  c #105712",
"J  c #166612",
"K  c #136414",
"L  c #5E4422",
"P  c #5E4522",
"I  c #564829",
"U  c #5A4C2D",
"Y  c #6A4D26",
"T  c #6D4C2A",
"R  c #75512A",
"E  c #76562B",
"W  c #695934",
"Q  c #78663C",
"!  c #193546",
"~  c #1E3E52",
"^  c #22475E",
"/  c #344759",
"(  c #264F69",
")  c #385065",
"_  c #2A5875",
"`  c #2B5876",
"'  c #3C5970",
"]  c #5C525A",
"[  c #4E5A6B",
"{  c #475E74",
"}  c #646471",
"|  c #7B6E78",
" . c #815E2F",
".. c #826237",
"X. c #8D6433",
"o. c #8D6633",
"O. c #9B6737",
"+. c #997037",
"@. c #A5783C",
"#. c #C72C55",
"$. c #877343",
"%. c #B17740",
"&. c #B17B40",
"*. c #BD7F45",
"=. c #96804B",
"-. c #B18140",
";. c #BD8345",
":. c #BD8545",
">. c #BD8745",
",. c #BD8945",
"<. c #BD8A45",
"1. c #A58C52",
"2. c #B4995A",
"3. c #C3884B",
"4. c #C68D4E",
"5. c #CC9754",
"6. c #D09C58",
"7. c #C3A661",
"8. c #D7B166",
"9. c #D2B369",
"0. c #DAB66A",
"q. c #E1C070",
"w. c #F0CD78",
"e. c #2F6181",
"r. c #336A8D",
"t. c #717F95",
"y. c #8A7C87",
"u. c #6A839D",
"i. c #7C8498",
"p. c #4085B1",
"a. c #568EB7",
"s. c #7A90AD",
"d. c #5092C0",
"f. c #5B97C3",
"g. c #669CC6",
"h. c #779DC1",
"j. c #71A1CA",
"k. c #7CA6CD",
"l. c #909090",
"z. c #808DA4",
"x. c #899EBC",
"c. c #B8A5B4",
"v. c #87ABD0",
"b. c #92B0D3",
"n. c #9DB5D7",
"m. c #A4B1CE",
"M. c #A8BADA",
"N. c #C7B3C3",
"B. c #BEC4E0",
"V. c #C9C9E4",
"C. c #D4CEE7",
"Z. c #DFD3EA",
"A. c #EAD8ED",
"S. c #F6DDF1",
/* pixels */
"                                                                                                                                ",
"                                                                                                                                ",
"                                                                                                                                ",
"                                                                                                                                ",
"                                        . . 3 3 h h | | ) ) ( ( ^ ^ j j d d . .                                                 ",
"                                        . . 3 3 h h | | ) ) ( ( ^ ^ j j d d . .                                                 ",
"                                3 3 ' ' #.#.a.a.b.b.b.b.#.#.g.g.S.S.C.C.k.k.p.p._ _ h h                                         ",
"                                3 3 ' ' #.#.a.a.b.b.b.b.#.#.g.g.S.S.C.C.k.k.p.p._ _ h h                                         ",
"                        . . y.y.M.M.n.n.n.n.n.n.N.N.c.c.u.u.#.#.z.z.x.x.#.#.#.#.C.C.A.A.e.e.& &                                 ",
"                        . . y.y.M.M.n.n.n.n.n.n.N.N.c.c.u.u.#.#.z.z.x.x.#.#.#.#.C.C.A.A.e.e.& &                                 ",
"                    . . ( ( i.i./ / x x y y y y m m P P P P L L P P b b y y u u z z [ [ u.u.s.s.& &                             ",
"                    . . ( ( i.i./ / x x y y y y m m P P P P L L P P b b y y u u z z [ [ u.u.s.s.& &                             ",
"                    % % M M E E @.@.<.<.:.<.:.:.<.<.+.+.X.X.+.+.:.:.:.:.<.<.<.<.<.<.+.+.Y Y l l h h                             ",
"                    % % M M E E @.@.<.:.:.:.<.<.<.<.+.+.X.o.+.+.:.:.:.:.<.<.<.<.<.<.+.+.Y Y l l h h                             ",
"                . .  . .<.<.<.<.<.<.:.<.<.:.<.:.* * I I Q Q I I , , ;.;.:.:.:.:.:.:.;.;.:.:.;.;.R R                             ",
"                . .  . .<.<.<.<.:.<.<.:.:.<.:.:.* * I I Q Q I I , , ;.;.:.:.:.:.:.:.;.;.:.:.;.;.R R                             ",
"                . . P P <.<.:.:.:.:.:.:.:.:.:.:.$ $ l.l.l.l.l.l.a a <.<.:.:.<.<.<.<.<.<.<.<.-.-.n n                             ",
"                . . P P <.<.:.:.:.:.:.:.:.:.:.:.$ $ l.l.l.l.l.l.a a <.<.:.:.<.<.<.<.<.<.<.<.-.-.n n                             ",
"                        < < b b E E o.o.<.<.<.<.y y w.w.l.l.w.w.a a <.<.:.:.&.&.o.o.Y Y p p * *                                 ",
"                        < < b b E E o.o.<.<.<.<.y y w.w.l.l.w.w.a a <.<.:.:.&.&.o.o.Y Y p p * *                                 ",
"                                        . . . . $ $ w.w.w.w.w.w.a a , , . . . .                                                 ",
"                                        . . . . $ $ w.w.w.w.w.w.a a , , . . . .                                                 ",
"                                                a a w.w.w.w.w.w.W W                                                             ",
"                                                a a w.w.w.w.w.w.W W                                                             ",
"                                                a a w.w.w.w.w.w.Q Q                                                             ",
"                                                a a w.w.w.w.w.w.Q Q                                                             ",
"                                                M M w.w.w.w.w.w.Q Q                 . . . . x x & &                             ",
"                                                M M w.w.w.w.w.w.Q Q                 . . . . x x & &                             ",
"                                            . . 2.2.w.w.w.w.w.w.Q Q         . . g g e.e.n.n.v.v.#.#.! ! . .                     ",
"                                            . . 2.2.w.w.w.w.w.w.Q Q         . . g g e.e.n.n.v.v.#.#.! ! . .                     ",
"                    . . ! ! j j _ _ ( ( h h 2 2 $.$.w.w.w.w.w.w.U U     2 2 } } ) ) e.e.j.j.S.S.Z.Z.f.f.g g                     ",
"                    . . ! ! j j _ _ ( ( h h 2 2 $.$.w.w.w.w.w.w.U U     2 2 } } ) ) e.e.j.j.S.S.Z.Z.f.f.g g                     ",
"                . . i.i.k.k.C.C.g.g.B.B.V.V.h.h.1 1 w.w.w.w.w.w.* *     . . P P o.o.y y k k r.r.#.#.g.g.t.t.+ +                 ",
"                . . i.i.k.k.C.C.g.g.B.B.V.V.h.h.1 1 w.w.w.w.w.w.* *     . . P P o.o.y y k k r.r.#.#.g.g.t.t.+ +                 ",
"                s s b.b.d.d.k.k.#.#.b.b.n.n.f.f.g g w.w.w.w.1.1.. .     p p o.o.:.:.<.<. . .4 4 #.#.S.S.c.c.+ +                 ",
"                s s b.b.d.d.k.k.#.#.b.b.n.n.f.f.g g w.w.w.w.1.1.. .     p p o.o.:.:.<.<. . .4 4 #.#.S.S.c.c.+ +                 ",
"                ( ( #.#.f.f.n.n.j.j.#.#.j.j.A.A.s s w.w.w.w.Q Q         . . $ $ + + y y P P L L ~ ~ M.M.c.c.X X                 ",
"                ( ( #.#.f.f.n.n.j.j.#.#.j.j.A.A.s s w.w.w.w.Q Q         . . $ $ + + y y P P L P ~ ~ M.M.c.c.X X                 ",
"                N.N.v.v.B.B.S.S.A.A.#.#.v.v.y.y.a a w.w.w.w.M M         $ $ 9.9.l.l.q.q.y y <.<.: : a.a.{ { X X                 ",
"                N.N.v.v.B.B.S.S.A.A.#.#.v.v.y.y.a a w.w.w.w.M M         $ $ 9.9.l.l.q.q.y y <.<.: : a.a.{ { X X                 ",
"                ] ] m.m.j.j.V.V.b.b.` ` f f I I 8.8.5.5.w.w.a a     . . 1.1.l.l.l.l.=.=.p p :.:.m m t.t.3 3                     ",
"                ] ] m.m.j.j.V.V.b.b.` _ f f I I 8.8.5.5.w.w.a a     . . 1.1.l.l.l.l.=.=.p p :.:.m m t.t.3 3                     ",
"                    & & h h ~ ~ 5 5 I I y y 4.4.3.3.6.6.q.q.. .     U U w.w.w.w.w.w.$ $  . .:.:.Y Y % % . .                     ",
"                    & & h h ~ ~ 5 5 I I y y 4.4.3.3.6.6.q.q.. .     U U w.w.w.w.w.w.$ $  . .:.:.Y Y % % . .                     ",
"                            . . 9.9.l.l.M M %.%.*.*.4.4...... . . . 2.2.w.w.w.w.W W . . . . . . . .                             ",
"                            . . 9.9.l.l.M M %.%.*.*.4.4...... . . . 2.2.w.w.w.w.W W . . . . . . . .                             ",
"                            . . 7.7.l.l.$.$.N N *.*.%.%.> > . . W W w.w.6.6.7.7.. .                                             ",
"                            . . 7.7.l.l.$.$.N N *.*.%.%.> > . . W W w.w.6.6.7.7.. .                                             ",
"                                T T 4.4.0.0.i i N N + + 6.6.3.3.6.6.6.6.6.6.a a                                                 ",
"                                T T 4.4.0.0.i i N N + + 6.6.3.3.6.6.6.6.6.6.a a                                                 ",
"                                v v *.*.*.*.. . O.O.O.O.O.O.6.6.3.3.O.O.3.3.. .                                                 ",
"                                v v *.*.*.*.. . O.O.O.O.O.O.6.6.3.3.O.O.3.3.. .                                                 ",
"                    * * w w + + O O O.O.c c X X v v 6 6 X X # # 7 7 O.O.= =                                                     ",
"                    * * w w + + O O O.O.c c X X v v 6 6 X X # # 7 7 O.O.= =                                                     ",
"                    o o 8 8 S S q q - - D D t t 0 0 9 9 0 0 ; ; # # V V - -                                                     ",
"                    o o 8 8 S S q q - - D D t t 0 0 9 9 0 0 ; ; # # V V - -                                                     ",
"                o o r r A A J J K K K K K K J J H H e e K K C C Z Z F F - - 8 8 @ @                                             ",
"                o o r r A A J J K K K K K K J J H H e e K K C C Z Z F F - - 8 8 @ @                                             ",
"                    o o 9 9 H H K K K K K K G G C C C C B B w w q q 8 8 8 8 ; ;                                                 ",
"                    o o 9 9 H H K K K K K K G G C C C C B B w w q q 8 8 8 8 ; ;                                                 ",
"                                                                                                                                ",
"                                                                                                                                ",
"                                                                                                                                ",
"                                                                                                                                "
};
