/* XPM */
static char *coinblue4_1_png1711199611[] = {
/* columns rows colors chars-per-pixel */
"64 64 127 2 ",
"   c None",
".  c black",
"X  c #080000",
"o  c #0B0000",
"O  c #0C0600",
"+  c #0B0704",
"@  c #0C0B00",
"#  c #0D0D01",
"$  c #0F0C07",
"%  c #04080B",
"&  c #050A0E",
"*  c #120D06",
"=  c #150C07",
"-  c #0F1702",
";  c #101903",
":  c #171108",
">  c #1A1309",
",  c #1A150B",
"<  c #1F170B",
"1  c #1E190F",
"2  c #081117",
"3  c #09131A",
"4  c #101110",
"5  c #131513",
"6  c #221609",
"7  c #27190F",
"8  c #2F1F11",
"9  c #3E101C",
"0  c #122103",
"q  c #112304",
"w  c #122705",
"e  c #132804",
"r  c #132B04",
"t  c #112D07",
"y  c #0F3209",
"u  c #123307",
"i  c #163506",
"p  c #173C06",
"a  c #2F2211",
"s  c #272218",
"d  c #3A2715",
"f  c #3A2B15",
"g  c #3C331E",
"h  c #0C1A23",
"j  c #0D1C25",
"k  c #11232F",
"l  c #373428",
"z  c #272D35",
"x  c #323238",
"c  c #432E16",
"v  c #462F19",
"b  c #463319",
"n  c #4B361B",
"m  c #523C1E",
"M  c #6D192F",
"N  c #4B3C25",
"B  c #4B3F25",
"V  c #503D23",
"C  c #5E3F22",
"Z  c #0F4A0F",
"A  c #194207",
"S  c #104B0F",
"D  c #154D0C",
"F  c #12510F",
"G  c #1C5009",
"H  c #1B550B",
"J  c #1D5609",
"K  c #0E5011",
"L  c #105712",
"P  c #166612",
"I  c #136414",
"U  c #5E4422",
"Y  c #5E4522",
"T  c #564829",
"R  c #5A4C2D",
"E  c #6A4D26",
"W  c #6D4C2A",
"Q  c #75512A",
"!  c #76562B",
"~  c #695934",
"^  c #78663C",
"/  c #1E3E52",
"(  c #5C525A",
")  c gray38",
"_  c #646471",
"`  c #767676",
"'  c #7E7E7E",
"]  c #815E2F",
"[  c #826237",
"{  c #8D6433",
"}  c #8D6633",
"|  c #8D6733",
" . c #9B6737",
".. c #997037",
"X. c #A5783C",
"o. c #942442",
"O. c #C72C55",
"+. c #877343",
"@. c #B17740",
"#. c #B17B40",
"$. c #BD7F45",
"%. c #B85871",
"&. c #B18140",
"*. c #BD8445",
"=. c #BD8545",
"-. c #BD8745",
";. c #BD8845",
":. c #BD8A45",
">. c #B4995A",
",. c #C3884B",
"<. c #C68D4E",
"1. c #CC9754",
"2. c #D09C58",
"3. c #D7B166",
"4. c #E1C070",
"5. c #F0CD78",
"6. c #8A7C87",
"7. c #909090",
"8. c #D0889B",
"9. c #F09DB3",
"0. c #BEC4E0",
"q. c #EEC8D2",
"w. c #C9C9E4",
"e. c #D4CEE7",
"r. c #DFD3EA",
"t. c #EAD8ED",
"y. c #F6DDF1",
/* pixels */
"                                                                                                                                ",
"                                                                                                                                ",
"                                                                                                                                ",
"                                                                                                                                ",
"                                        . . 3 3 k k q.q.o.o.o.o.o.o.9 9 j j . .                                                 ",
"                                        . . 3 3 k k q.q.o.o.o.o.o.o.9 9 j j . .                                                 ",
"                                3 3 9 9 O.O.9 9 %.%.%.%.O.O.9 9 y.y.9 9 9 9 9.9.9 9 9 9                                         ",
"                                3 3 9 9 O.O.9 9 %.%.%.%.O.O.9 9 y.y.9 9 9 9 9.9.9 9 9 9                                         ",
"                        . . q.q.8.8.9.9.9.9.8.8.8.8.q.q.9.9.O.O.9.9.8.8.O.O.O.O.q.q.t.t.9 9 & &                                 ",
"                        . . q.q.8.8.9.9.9.9.8.8.8.8.q.q.9.9.O.O.9.9.8.8.O.O.O.O.q.q.t.t.9 9 & &                                 ",
"                    . . o.o.q.q.o.o.x x a a a a m m U U U U U U Y Y b b a a s s z z o.o.%.%.8.8.& &                             ",
"                    . . o.o.q.q.o.o.x x a a a a m m U U U U U U Y Y b b a a s s z z o.o.%.%.8.8.& &                             ",
"                    % % N N ! ! X.X.;.:.-.-._ _ _ _ ....{ { ...._ _ _ _ :.:.:.:.:.:.....E E l l 9 9                             ",
"                    % % N N ! ! X.X.;.:.-.-._ _ _ _ ....{ } ...._ _ _ _ :.:.:.:.:.:.....E E l l 9 9                             ",
"                . . ] ] :.:.:.:.;.;.;.;.-.;._ _ * # N T ^ ^ T T , , _ _ =.=.=.=.=.=.=.=.=.=.=.*.Q Q                             ",
"                . . ] ] :.:.:.:.;.;.;.;.;.;._ _ * $ N N ^ ^ T T , , _ _ =.=.=.=.=.=.=.=.=.=.*.*.Q Q                             ",
"                . . Y Y :.:.=.=.=.=.=.=.=.=._ _ $ $ 7.7.7.7.7.7.g g _ _ =.=.:.:.:.:.:.:.:.:.&.&.n n                             ",
"                . . Y Y :.:.=.=.=.=.=.=.=.=._ _ $ $ 7.7.7.7.7.7.g g _ _ =.=.:.:.:.:.:.:.:.:.&.&.n n                             ",
"                        < < b b ! ! } } :.:._ _ a a ` ` 7.7.` ` g g _ _ =.=.#.#.} } E E f f * *                                 ",
"                        < < b b ! ! } } :.:._ _ a a ` ` 7.7.` ` g g _ _ =.=.#.#.} } E E f f * *                                 ",
"                                        . . . . $ $ ` ` ` ` ) ) g g , , . . . .                                                 ",
"                                        . . . . $ $ ` ` ` ` ) ) g g , , . . . .                                                 ",
"                                                g g ) ) 6.6.) ) ~ ~                                                             ",
"                                                g g ) ) 6.6.) ) ~ ~                                                             ",
"                                                g g 6.6.) ) 6.6.^ ^                                                             ",
"                                                g g 6.6.) ) 6.6.^ ^                                                             ",
"                                                N N ' ' 6.6.' ' ^ ^                 . . . . x x & &                             ",
"                                                N N ' ' 6.6.' ' ^ ^                 . . . . x x & &                             ",
"                                            . . >.>.' ' ' ' ' ' ^ ^         . . k k o.o.8.8.8.8.O.O.o.o.. .                     ",
"                                            . . >.>.' ' ' ' ' ' ^ ^         . . k k o.o.8.8.8.8.O.O.o.o.. .                     ",
"                    . . M M 9 9 M M M M 9 9 2 2 +.+.6.6.' ' 6.6.R R     2 2 _ _ 9 9 o.o.%.%.y.y.r.r.%.%.o.o.                    ",
"                    . . M M 9 9 M M M M 9 9 2 2 +.+.6.6.' ' 6.6.R R     2 2 _ _ 9 9 o.o.%.%.y.y.r.r.%.%.o.o.                    ",
"                . . q.q.q.q.e.e.M M 0.0.w.w.8.8.1 1 6.6.6.6.6.6.* *     . . Y Y | | a a o.o.9.9.O.O.%.%.8.8.+ +                 ",
"                . . q.q.q.q.e.e.M M 0.0.w.w.8.8.1 1 6.6.6.6.6.6.* *     . . Y Y | | a a o.o.9.9.O.O.%.%.8.8.+ +                 ",
"                8.8.9.9.9.9.9 9 O.O.%.%.8.8.8.8.k k _ _ _ _ _ _ . .     f f } | _ _ _ _ ] ] 4 4 O.O.y.y.q.q.+ +                 ",
"                8.8.9.9.9.9.9 9 O.O.%.%.8.8.8.8.k k _ _ _ _ _ _ . .     f f | | _ _ _ _ ] ] 4 4 O.O.y.y.q.q.+ +                 ",
"                o.o.O.O.9.9.8.8.9.9.O.O.%.%.t.t.h h 5.5.5.5.^ ^         . . $ $ + + a a Y Y Y Y o.o.8.8.q.q.X X                 ",
"                o.o.O.O.9.9.8.8.9.9.O.O.%.%.t.t.h h 5.5.5.5.^ ^         . . $ $ + + a a Y Y Y Y o.o.8.8.q.q.X X                 ",
"                q.q.o.o.q.q.y.y.t.t.O.O.%.%.6.6.g g 5.5.5.5.N N         $ $ ` ` 7.7.) ) a a _ _ : : 8.8.M M X X                 ",
"                q.q.o.o.q.q.y.y.t.t.O.O.%.%.6.6.g g 5.5.5.5.N N         $ $ ` ` 7.7.) ) a a _ _ : : 8.8.M M X X                 ",
"                ( ( M M o.o.q.q.8.8.o.o.j j T T 3.3.1.1.5.5.g g     . . 6.6.7.7.) ) ` ` f f _ _ m m %.%.3 3                     ",
"                ( ( M M o.o.q.q.8.8.o.o.j j T T 3.3.1.1.5.5.g g     . . 6.6.7.7.) ) ` ` f f _ _ m m %.%.3 3                     ",
"                    & & k k / / 5 5 T T 8 8 <.<.,.,.2.2.4.4.. .     R R ) ) ) ) ) ) $ $ ] ] _ _ E E % % . .                     ",
"                    & & k k / / 5 5 T T 8 8 <.<.,.,.2.2.4.4.. .     R R ) ) ) ) ) ) $ $ ] ] _ _ E E % % . .                     ",
"                            . . ` ` 7.7.V V X.X.$.$.<.<.[ [ . . . . 6.6.' ' ' ' ~ ~ . . . . . . . .                             ",
"                            . . ` ` 7.7.V V X.X.$.$.<.<.[ [ . . . . 6.6.' ' ' ' ~ ~ . . . . . . . .                             ",
"                            X X ` ` 7.7.) ) C C $.$.@.@.> > . . ~ ~ ' ' 6.6.6.6.. .                                             ",
"                            X X ` ` 7.7.) ) C C $.$.@.@.> > . . ~ ~ ' ' 6.6.6.6.. .                                             ",
"                                W W 6.6.) ) d d C C + + 2.2.,.,.2.2.2.2.2.2.g g                                                 ",
"                                W W 6.6.) ) d d C C + + 2.2.,.,.2.2.2.2.2.2.g g                                                 ",
"                                v v 6.6.6.6.. .  . . . . . .2.2.,.,. . .,.,.. .                                                 ",
"                                v v 6.6.6.6.. .  . . . . . .2.2.,.,. . .,.,.. .                                                 ",
"                    * * r r X o O O  . .c c X X v v 6 6 X X # # 7 7  . .= =                                                     ",
"                    * = r r o o O O  . .c c X X v v 6 6 X X # # 7 7  . .= =                                                     ",
"                    X X 0 0 G G t t - - H H p p r r w w r r ; ; # # A A - -                                                     ",
"                    X X 0 0 G G t t - - H H p p r r w w r r ; ; # # A A - -                                                     ",
"                X X i i G G P P I I I I I I P P L L u u I I S S D D J J - - q q @ @                                             ",
"                X X i i G G P P I I I I I I P P L L u u I I S S D D J J - - q q @ #                                             ",
"                    X o e e F F I I I I I I K K S S S S Z Z y y t t q q q q ; ;                                                 ",
"                    o o e e F F I I I I I I K K S S S S Z Z y y t t q q q q ; ;                                                 ",
"                                                                                                                                ",
"                                                                                                                                ",
"                                                                                                                                ",
"                                                                                                                                "
};
