/* XPM */
static char *coinblue5_1_png1711199611[] = {
/* columns rows colors chars-per-pixel */
"64 64 117 2 ",
"   c None",
".  c black",
"X  c #080000",
"o  c #0B0000",
"O  c #0C0600",
"+  c #0B0704",
"@  c #0C0B00",
"#  c #0D0D01",
"$  c #0B0804",
"%  c #0F0C07",
"&  c #04080B",
"*  c #050A0E",
"=  c #120D06",
"-  c #150C07",
";  c #170F08",
":  c #0F1702",
">  c #101903",
",  c #171108",
"<  c #1A1309",
"1  c #1A150B",
"2  c #1F170B",
"3  c #1E190F",
"4  c #081117",
"5  c #09131A",
"6  c #101110",
"7  c #131513",
"8  c #221609",
"9  c #27190F",
"0  c #2F1F11",
"q  c #3E101C",
"w  c #122103",
"e  c #112304",
"r  c #122705",
"t  c #132804",
"y  c #132B04",
"u  c #112D07",
"i  c #152E05",
"p  c #0F3209",
"a  c #123307",
"s  c #163506",
"d  c #173C06",
"f  c #2F2211",
"g  c #272218",
"h  c #3A2715",
"j  c #3A2B15",
"k  c #3C331E",
"l  c #0C1A23",
"z  c #0D1C25",
"x  c #11232F",
"c  c #373428",
"v  c #272D35",
"b  c #323238",
"n  c #452C18",
"m  c #463319",
"M  c #4B361B",
"N  c #523C1E",
"B  c #6D192F",
"V  c #4B3C25",
"C  c #503D23",
"Z  c #5E3F22",
"A  c #0F4A0F",
"S  c #194207",
"D  c #104B0F",
"F  c #154D0C",
"G  c #12510F",
"H  c #1C5009",
"J  c #1B550B",
"K  c #1D5609",
"L  c #0E5011",
"P  c #105712",
"I  c #166612",
"U  c #136414",
"Y  c #5E4522",
"T  c #564829",
"R  c #5A4C2D",
"E  c #6A4D26",
"W  c #6D4C2A",
"Q  c #75512A",
"!  c #76562B",
"~  c #695934",
"^  c #78663C",
"/  c #1E3E52",
"(  c #5C525A",
")  c gray38",
"_  c #646471",
"`  c #767676",
"'  c #7E7E7E",
"]  c #815E2F",
"[  c #826237",
"{  c #8D6433",
"}  c #8D6733",
"|  c #9B6737",
" . c #997037",
".. c #A5783C",
"X. c #942442",
"o. c #C72C55",
"O. c #B17740",
"+. c #B17B40",
"@. c #BD7F45",
"#. c #B85871",
"$. c #B18140",
"%. c #BD8445",
"&. c #C3884B",
"*. c #C68D4E",
"=. c #CC9754",
"-. c #D09C58",
";. c #8A7C87",
":. c #909090",
">. c #D0889B",
",. c #F09DB3",
"<. c #BEC4E0",
"1. c #EEC8D2",
"2. c #C9C9E4",
"3. c #D4CEE7",
"4. c #DFD3EA",
"5. c #EAD8ED",
"6. c #F6DDF1",
/* pixels */
"                                                                                                                                ",
"                                                                                                                                ",
"                                                                                                                                ",
"                                                                                                                                ",
"                                        . . 4 4 x x 1.1.X.X.X.X.X.X.q q z z . .                                                 ",
"                                        . . 4 4 x x 1.1.X.X.X.X.X.X.q q z z . .                                                 ",
"                                5 5 q q o.o.q q #.#.#.#.o.o.q q 6.6.q q q q ,.,.q q q q                                         ",
"                                5 5 q q o.o.q q #.#.#.#.o.o.q q 6.6.q q q q ,.,.q q q q                                         ",
"                        . . 1.1.>.>.,.,.,.,.>.>.>.>.1.1.,.,.o.o.,.,.>.>.o.o.o.o.1.1.5.5.q q * *                                 ",
"                        . . 1.1.>.>.,.,.,.,.>.>.>.>.1.1.,.,.o.o.,.,.>.>.o.o.o.o.1.1.5.5.q q * *                                 ",
"                    . . X.X.1.1.X.X.b b f f f f M M Y Y Y Y Y Y Y Y m m f f g g v v X.X.#.#.>.>.* *                             ",
"                    . . X.X.1.1.X.X.b b f f f f M M Y Y Y Y Y Y Y Y m m f f g g v v X.X.#.#.>.>.* *                             ",
"                    & & V V ! ! ....:.:.:.:._ _ _ _  . .{ {  . ._ _ _ _ :.:.:.:.:.:. . .E E c c q q                             ",
"                    & & V V ! ! ....:.:.:.:._ _ _ _  . .{ }  . ._ _ _ _ :.:.:.:.:.:. . .E E c c q q                             ",
"                . . ] ] :.:.:.:.:.:.:.:.:.:._ _ % % T T ^ ^ T T 1 1 _ _ :.:.:.:.:.:.:.:.:.:.%.%.Q Q                             ",
"                . . ] ] :.:.:.:.:.:.:.:.:.:._ _ % % T T ^ ^ T T 1 1 _ _ :.:.:.:.:.:.:.:.:.:.%.%.Q Q                             ",
"                . . Y Y :.:.:.:.:.:.:.:.:.:._ _ % % :.:.:.:.:.:.k k _ _ :.:.:.:.:.:.:.:.:.:.$.$.M M                             ",
"                . . Y Y :.:.:.:.:.:.:.:.:.:._ _ % % :.:.:.:.:.:.k k _ _ :.:.:.:.:.:.:.:.:.:.$.$.M M                             ",
"                        2 2 m m ! ! } } :.:._ _ f f ` ` :.:.` ` k k _ _ :.:.+.+.} } E E j j = =                                 ",
"                        2 2 m m ! ! } } :.:._ _ f f ` ` :.:.` ` k k _ _ :.:.+.+.} } E E j j = =                                 ",
"                                        . . . . % % ` ` ` ` ) ) k k < < . . . .                                                 ",
"                                        . . . . % % ` ` ` ` ) ) k k < < . . . .                                                 ",
"                                                k k ) ) ;.;.) ) ~ ~                                                             ",
"                                                k k ) ) ;.;.) ) ~ ~                                                             ",
"                                                k k ;.;.) ) ;.;.^ ^                                                             ",
"                                                k k ;.;.) ) ;.;.^ ^                                                             ",
"                                                V V ' ' ;.;.' ' ^ ^                 . . . . b b * *                             ",
"                                                V V ' ' ;.;.' ' ^ ^                 . . . . b b * *                             ",
"                                            . . :.:.' ' ' ' ' ' ^ ^         . . x x X.X.>.>.>.>.o.o.X.X.. .                     ",
"                                            . . :.:.' ' ' ' ' ' ^ ^         . . x x X.X.>.>.>.>.o.o.X.X.. .                     ",
"                    . . B B q q B B B B q q 4 4 :.:.;.;.' ' ;.;.R R     4 4 _ _ q q X.X.#.#.6.6.4.4.#.#.X.X.                    ",
"                    . . B B q q B B B B q q 4 4 :.:.;.;.' ' ;.;.R R     4 4 _ _ q q X.X.#.#.6.6.4.4.#.#.X.X.                    ",
"                . . 1.1.1.1.3.3.B B <.<.2.2.>.>.3 3 ;.;.;.;.;.;.= =     . . b b b b f f X.X.,.,.o.o.#.#.>.>.+ +                 ",
"                . . 1.1.1.1.3.3.B B <.<.2.2.>.>.3 3 ;.;.;.;.;.;.= =     . . b b b b f f X.X.,.,.o.o.#.#.>.>.+ +                 ",
"                >.>.,.,.,.,.q q o.o.#.#.>.>.>.>.x x _ _ _ _ _ _ . .     j j b b _ _ _ _ ( ( 6 6 o.o.6.6.1.1.+ +                 ",
"                >.>.,.,.,.,.q q o.o.#.#.>.>.>.>.x x _ _ _ _ _ _ . .     j j b b _ _ _ _ ( ( 6 6 o.o.6.6.1.1.+ +                 ",
"                X.X.o.o.,.,.>.>.,.,.o.o.#.#.5.5.l l :.:.:.:.^ ^         . . % % $ $ f f ( ( ( ( X.X.>.>.1.1.X X                 ",
"                X.X.o.o.,.,.>.>.,.,.o.o.#.#.5.5.l l :.:.:.:.^ ^         . . % % $ $ f f ( ( ( ( X.X.>.>.1.1.X X                 ",
"                1.1.X.X.1.1.6.6.5.5.o.o.#.#.;.;.k k :.:.:.:.V V         % % ` ` :.:.) ) f f _ _ , , >.>.B B X X                 ",
"                1.1.X.X.1.1.6.6.5.5.o.o.#.#.;.;.k k :.:.:.:.V V         % % ` ` :.:.) ) f f _ _ , , >.>.B B X X                 ",
"                ( ( B B X.X.1.1.>.>.X.X.z z T T :.:.=.=.:.:.k k     . . ;.;.:.:.) ) ` ` j j _ _ N N #.#.5 5                     ",
"                ( ( B B X.X.1.1.>.>.X.X.z z T T :.:.=.=.:.:.k k     . . ;.;.:.:.) ) ` ` j j _ _ N N #.#.5 5                     ",
"                    * * x x / / 7 7 T T 0 0 *.*.&.&.-.-.:.:.. .     R R ) ) ) ) ) ) % % ( ( _ _ ( ( & & . .                     ",
"                    * * x x / / 7 7 T T 0 0 *.*.&.&.-.-.:.:.. .     R R ) ) ) ) ) ) % % ( ( _ _ ( ( & & . .                     ",
"                            . . ` ` :.:.C C ....@.@.*.*.[ [ . . . . ;.;.' ' ' ' ~ ~ . . . . . . . .                             ",
"                            . . ` ` :.:.C C ....@.@.*.*.[ [ . . . . ;.;.' ' ' ' ~ ~ . . . . . . . .                             ",
"                            X X ` ` :.:.) ) Z Z @.@.O.O.; ; . . ~ ~ ' ' ;.;.;.;.. .                                             ",
"                            X X ` ` :.:.) ) Z Z @.@.O.O.; ; . . ~ ~ ' ' ;.;.;.;.. .                                             ",
"                                W W ;.;.) ) h h Z Z + + -.-.&.&.-.-.-.-.-.-.k k                                                 ",
"                                W W ;.;.) ) h h Z Z + + -.-.&.&.-.-.-.-.-.-.k k                                                 ",
"                                b b ;.;.;.;.. . | | | | | | -.-.&.&.| | &.&.. .                                                 ",
"                                b b ;.;.;.;.. . | | | | | | -.-.&.&.| | &.&.. .                                                 ",
"                    = = y y X o O O b b b b X X n n 8 8 X X # # 9 9 | | - -                                                     ",
"                    = - y y o o O O b b b b X X n n 8 8 X X # # 9 9 | | - -                                                     ",
"                    X X w w H H u u : : J J d d i i r r i i > > # # S S : :                                                     ",
"                    X X w w H H u u : : J J d d i i r r i i > > # # S S : :                                                     ",
"                X X s s H H I I U U U U U U I I P P a a U U D D F F K K : : e e @ @                                             ",
"                X X s s H H I I U U U U U U I I P P a a U U D D F F K K : : e e @ @                                             ",
"                    X o t t G G U U U U U U L L D D D D A A p p u u e e e e > >                                                 ",
"                    o o t t G G U U U U U U L L D D D D A A p p u u e e e e > >                                                 ",
"                                                                                                                                ",
"                                                                                                                                ",
"                                                                                                                                ",
"                                                                                                                                "
};
