/* XPM */
static char *coinblue51711125452[] = {
/* columns rows colors chars-per-pixel */
"32 32 130 2 ",
"   c None",
".  c black",
"X  c #080000",
"o  c #0A0000",
"O  c #0B0000",
"+  c #0C0600",
"@  c #0B0704",
"#  c #0C0B00",
"$  c #0D0D01",
"%  c #0E0E01",
"&  c #0B0804",
"*  c #0F0C07",
"=  c #04080B",
"-  c #04090C",
";  c #050A0E",
":  c #100D07",
">  c #120D06",
",  c #150C07",
"<  c #170F08",
"1  c #0F1402",
"2  c #0F1602",
"3  c #0F1702",
"4  c #101903",
"5  c #101A03",
"6  c #171108",
"7  c #1A1309",
"8  c #1A150B",
"9  c #1F170B",
"0  c #1E190F",
"q  c #081117",
"w  c #09131A",
"e  c #101110",
"r  c #131513",
"t  c #221609",
"y  c #27190F",
"u  c #2F1F11",
"i  c #3E101C",
"p  c #122103",
"a  c #112304",
"s  c #122705",
"d  c #132804",
"f  c #132B04",
"g  c #132E05",
"h  c #112D07",
"j  c #142E05",
"k  c #152E05",
"l  c #0F3209",
"z  c #123307",
"x  c #163506",
"c  c #173C06",
"v  c #2F2211",
"b  c #272218",
"n  c #3A2715",
"m  c #3A2B15",
"M  c #3C331E",
"N  c #0C1A23",
"B  c #0D1C25",
"V  c #182227",
"C  c #11232F",
"Z  c #373428",
"A  c #272D35",
"S  c #323238",
"D  c #452C18",
"F  c #463319",
"G  c #4B361B",
"H  c #523C1E",
"J  c #6D192F",
"K  c #4B3C25",
"L  c #4B3F25",
"P  c #503D23",
"I  c #5E3F22",
"U  c #0F4A0F",
"Y  c #194207",
"T  c #104B0F",
"R  c #154D0C",
"E  c #194F0A",
"W  c #12510F",
"Q  c #1C5009",
"!  c #1B550B",
"~  c #1D5609",
"^  c #0E5011",
"/  c #105712",
"(  c #166612",
")  c #126414",
"_  c #136414",
"`  c #5E4522",
"'  c #564829",
"]  c #5A4C2D",
"[  c #6A4D26",
"{  c #6D4C2A",
"}  c #75512A",
"|  c #76562B",
" . c #695934",
".. c #78663C",
"X. c #1E3E52",
"o. c #5C525A",
"O. c gray38",
"+. c #646471",
"@. c #767676",
"#. c #7E7E7E",
"$. c #815E2F",
"%. c #826237",
"&. c #8D6433",
"*. c #8D6733",
"=. c #9B6737",
"-. c #997037",
";. c #A5783C",
":. c #942442",
">. c #C72C55",
",. c #B17740",
"<. c #B17B40",
"1. c #BD7F45",
"2. c #B85871",
"3. c #B18140",
"4. c #BD8445",
"5. c #C3884B",
"6. c #C68D4E",
"7. c #CC9754",
"8. c #D09C58",
"9. c #8A7C87",
"0. c #909090",
"q. c #D0889B",
"w. c #F09DB3",
"e. c #BEC4E0",
"r. c #EEC8D2",
"t. c #C9C9E4",
"y. c #D4CEE7",
"u. c #DFD3EA",
"i. c #EAD8ED",
"p. c #F6DDF1",
/* pixels */
"                                                                ",
"                                                                ",
"                    . q C r.:.:.:.i B .                         ",
"                w i >.i 2.2.>.i p.i i w.i i                     ",
"            . r.q.w.w.q.q.r.w.>.w.q.>.>.r.i.i ;                 ",
"          . :.r.:.S v v G ` ` ` ` F v b A :.2.q.;               ",
"          = K | ;.0.0.+.+.-.&.-.+.+.0.0.0.-.[ Z i               ",
"        . $.0.0.0.0.0.+.* ' ..' 8 +.0.0.0.0.0.4.}               ",
"        . ` 0.0.0.0.0.+.* 0.0.0.M +.0.0.0.0.0.3.G               ",
"            9 F | *.0.+.v @.0.@.M +.0.<.*.[ m >                 ",
"                    . . * @.@.O.M 7 . .                         ",
"                        M O.9.O. .                              ",
"                        M 9.O.9...                              ",
"                        K #.9.#...        . . S ;               ",
"                      . 0.#.#.#...    . C :.q.q.>.:..           ",
"          . J i J J i q 0.9.#.9.]   q +.i :.2.p.u.2.:.          ",
"        . r.r.y.J e.t.q.0 9.9.9.>   . S S v :.w.>.2.q.@         ",
"        q.w.w.i >.2.q.q.C +.+.+..   m S +.+.o.e >.p.r.@         ",
"        :.>.w.q.w.>.2.i.N 0.0...    . * & v o.o.:.q.r.X         ",
"        r.:.r.p.i.>.2.9.M 0.0.K     * @.0.O.v +.6 q.J X         ",
"        o.J :.r.q.:.B ' 0.7.0.M   . 9.0.O.@.m +.H 2.w           ",
"          ; C X.r ' u 6.5.8.0..   ] O.O.O.* o.+.o.= .           ",
"              . @.0.P ;.1.6.%.. . 9.#.#. .. . . .               ",
"              X @.0.O.I 1.,.< .  .#.9.9..                       ",
"                { 9.O.n I @ 8.5.8.8.8.M                         ",
"                S 9.9.. =.=.=.8.5.=.5..                         ",
"          > f O + S S X D t X $ y =.,                           ",
"          X p Q h 3 ! c k s k 4 $ Y 3                           ",
"        X x Q ( _ _ _ ( / z _ T R ~ 3 a #                       ",
"          O d W _ _ _ ^ T T U l h a a 4                         ",
"                                                                ",
"                                                                "
};
