/* XPM */
static char *coinblue6_1_png1711199611[] = {
/* columns rows colors chars-per-pixel */
"64 64 99 2 ",
"   c None",
".  c black",
"X  c #080000",
"o  c #0B0000",
"O  c #0C0600",
"+  c #0B0704",
"@  c #0C0B00",
"#  c #0D0D01",
"$  c #0B0804",
"%  c #0F0C07",
"&  c #04080B",
"*  c #050A0E",
"=  c #120D06",
"-  c #150C07",
";  c #170F08",
":  c #0F1702",
">  c #101903",
",  c #171108",
"<  c #1A150B",
"1  c #1F170B",
"2  c #1E190F",
"3  c #081117",
"4  c #09131A",
"5  c #101110",
"6  c #131513",
"7  c #221609",
"8  c #27190F",
"9  c #2F1F11",
"0  c #3E101C",
"q  c #122103",
"w  c #112304",
"e  c #122705",
"r  c #132B04",
"t  c #112D07",
"y  c #152E05",
"u  c #0F3209",
"i  c #123307",
"p  c #163506",
"a  c #173C06",
"s  c #2F2211",
"d  c #272218",
"f  c #3A2715",
"g  c #3A2B15",
"h  c #3C331E",
"j  c #0C1A23",
"k  c #0D1C25",
"l  c #11232F",
"z  c #373428",
"x  c #272D35",
"c  c #323238",
"v  c #463319",
"b  c #4B361B",
"n  c #523C1E",
"m  c #6D192F",
"M  c #4B3C25",
"N  c #0F4A0F",
"B  c #194207",
"V  c #104B0F",
"C  c #154D0C",
"Z  c #12510F",
"A  c #1C5009",
"S  c #1B550B",
"D  c #1D5609",
"F  c #0E5011",
"G  c #105712",
"H  c #166612",
"J  c #136414",
"K  c #564829",
"L  c #5A4C2D",
"P  c #6A4D26",
"I  c #695934",
"U  c #78663C",
"Y  c #1E3E52",
"T  c #5C525A",
"R  c gray38",
"E  c #646471",
"W  c #767676",
"Q  c #7E7E7E",
"!  c #826237",
"~  c #942442",
"^  c #C72C55",
"/  c #B17740",
"(  c #BD7F45",
")  c #B85871",
"_  c #C3884B",
"`  c #C68D4E",
"'  c #CC9754",
"]  c #D09C58",
"[  c #8A7C87",
"{  c #909090",
"}  c #D0889B",
"|  c #F09DB3",
" . c #BEC4E0",
".. c #EEC8D2",
"X. c #C9C9E4",
"o. c #D4CEE7",
"O. c #DFD3EA",
"+. c #EAD8ED",
"@. c #F6DDF1",
/* pixels */
"                                                                                                                                ",
"                                                                                                                                ",
"                                                                                                                                ",
"                                                                                                                                ",
"                                        . . 4 4 l l ....~ ~ ~ ~ ~ ~ 0 0 k k . .                                                 ",
"                                        . . 4 4 l l ....~ ~ ~ ~ ~ ~ 0 0 k k . .                                                 ",
"                                4 4 0 0 ^ ^ 0 0 ) ) ) ) ^ ^ 0 0 @.@.0 0 0 0 | | 0 0 0 0                                         ",
"                                4 4 0 0 ^ ^ 0 0 ) ) ) ) ^ ^ 0 0 @.@.0 0 0 0 | | 0 0 0 0                                         ",
"                        . . ....} } | | | | } } } } ....| | ^ ^ | | } } ^ ^ ^ ^ ....+.+.0 0 * *                                 ",
"                        . . ....} } | | | | } } } } ....| | ^ ^ | | } } ^ ^ ^ ^ ....+.+.0 0 * *                                 ",
"                    . . ~ ~ ....~ ~ c c s s s s T T c c c c c c T T v v s s d d x x ~ ~ ) ) } } * *                             ",
"                    . . ~ ~ ....~ ~ c c s s s s T T c c c c c c T T v v s s d d x x ~ ~ ) ) } } * *                             ",
"                    & & M M T T { { { { T T T T E E E E x x E E T T T T T T { { { { { { P P z z 0 0                             ",
"                    & & M M T T { { { { T T T T E E E E x x E E T T T T T T { { { { { { P P z z 0 0                             ",
"                . . R R R R R R R R R R R R E E , , M M U U K K < < E E R R R R R R R R { { R R T T                             ",
"                . . R R R R R R R R R R R R E E , , M M U U K K < < E E R R R R R R R R { { R R T T                             ",
"                . . T T { { { { T T T T T T E E % % { { { { { { h h E E T T T T T T { { { { R R b b                             ",
"                . . T T { { { { T T T T T T E E % % { { { { { { h h E E T T T T T T { { { { R R b b                             ",
"                        1 1 { { { { { { { { E E s s W W { { W W h h E E { { { { { { P P T T = =                                 ",
"                        1 1 { { { { { { { { E E s s W W { { W W h h E E { { { { { { P P T T = =                                 ",
"                                        . . . . % % W W W W R R h h < < . . . .                                                 ",
"                                        . . . . % % W W W W R R h h < < . . . .                                                 ",
"                                                h h R R [ [ R R I I                                                             ",
"                                                h h R R [ [ R R I I                                                             ",
"                                                h h [ [ R R [ [ U U                                                             ",
"                                                h h [ [ R R [ [ U U                                                             ",
"                                                M M Q Q [ [ Q Q U U                 . . . . c c * *                             ",
"                                                M M Q Q [ [ Q Q U U                 . . . . c c * *                             ",
"                                            . . { { Q Q Q Q Q Q U U         . . l l ~ ~ } } } } ^ ^ ~ ~ . .                     ",
"                                            . . { { Q Q Q Q Q Q U U         . . l l ~ ~ } } } } ^ ^ ~ ~ . .                     ",
"                    . . m m 0 0 m m m m 0 0 3 3 { { [ [ Q Q [ [ L L     3 3 E E 0 0 ~ ~ ) ) @.@.O.O.) ) ~ ~                     ",
"                    . . m m 0 0 m m m m 0 0 3 3 { { [ [ Q Q [ [ L L     3 3 E E 0 0 ~ ~ ) ) @.@.O.O.) ) ~ ~                     ",
"                . . ........o.o.m m  . .X.X.} } 2 2 [ [ [ [ [ [ = =     . . c c c c s s ~ ~ | | ^ ^ ) ) } } + +                 ",
"                . . ........o.o.m m  . .X.X.} } 2 2 [ [ [ [ [ [ = =     . . c c c c s s ~ ~ | | ^ ^ ) ) } } + +                 ",
"                } } | | | | 0 0 ^ ^ ) ) } } } } l l E E E E E E . .     T T c c E E E E T T 5 5 ^ ^ @.@.....+ +                 ",
"                } } | | | | 0 0 ^ ^ ) ) } } } } l l E E E E E E . .     T T c c E E E E T T 5 5 ^ ^ @.@.....+ +                 ",
"                ~ ~ ^ ^ | | } } | | ^ ^ ) ) +.+.j j { { { { U U         . . % % $ $ s s T T T T ~ ~ } } ....X X                 ",
"                ~ ~ ^ ^ | | } } | | ^ ^ ) ) +.+.j j { { { { U U         . . % % $ $ s s T T T T ~ ~ } } ....X X                 ",
"                ....~ ~ ....@.@.+.+.^ ^ ) ) [ [ h h { { { { M M         % % W W { { R R s s E E , , } } m m X X                 ",
"                ....~ ~ ....@.@.+.+.^ ^ ) ) [ [ h h { { { { M M         % % W W { { R R s s E E , , } } m m X X                 ",
"                T T m m ~ ~ ....} } ~ ~ k k K K { { ' ' { { h h     . . [ [ { { R R W W g g E E n n ) ) 4 4                     ",
"                T T m m ~ ~ ....} } ~ ~ k k K K { { ' ' { { h h     . . [ [ { { R R W W g g E E n n ) ) 4 4                     ",
"                    * * l l Y Y 6 6 K K 9 9 ` ` _ _ ] ] { { . .     L L R R R R R R % % T T E E T T & & . .                     ",
"                    * * l l Y Y 6 6 K K 9 9 ` ` _ _ ] ] { { . .     L L R R R R R R % % T T E E T T & & . .                     ",
"                            . . W W { { Y Y Y Y ( ( ` ` ! ! . . . . [ [ Q Q Q Q I I . . . . . . . .                             ",
"                            . . W W { { Y Y Y Y ( ( ` ` ! ! . . . . [ [ Q Q Q Q I I . . . . . . . .                             ",
"                            . . W W { { R R Y Y Y Y / / ; ; . . I I Q Q [ [ [ [ . .                                             ",
"                            . . W W { { R R Y Y Y Y / / ; ; . . I I Q Q [ [ [ [ . .                                             ",
"                                Y Y [ [ R R f f Y Y + + ] ] _ _ ] ] ] ] ] ] h h                                                 ",
"                                Y Y [ [ R R f f Y Y + + ] ] _ _ ] ] ] ] ] ] h h                                                 ",
"                                c c [ [ [ [ . . Y Y Y Y Y Y ] ] _ _ Y Y _ _ . .                                                 ",
"                                c c [ [ [ [ . . Y Y Y Y Y Y ] ] _ _ Y Y _ _ . .                                                 ",
"                    = = r r X X O O c c c c X X Y Y 7 7 X X # # 8 8 Y Y - -                                                     ",
"                    = = r r X X O O c c c c X X Y Y 7 7 X X # # 8 8 Y Y - -                                                     ",
"                    X X q q A A t t : : S S a a y y e e y y > > # # B B : :                                                     ",
"                    X X q q A A t t : : S S a a y y e e y y > > # # B B : :                                                     ",
"                X X p p A A H H J J J J J J H H G G i i J J V V C C D D : : w w @ @                                             ",
"                X X p p A A H H J J J J J J H H G G i i J J V V C C D D : : w w @ @                                             ",
"                    X o r r Z Z J J J J J J F F V V V V N N u u t t w w w w > >                                                 ",
"                    o o r r Z Z J J J J J J F F V V V V N N u u t t w w w w > >                                                 ",
"                                                                                                                                ",
"                                                                                                                                ",
"                                                                                                                                ",
"                                                                                                                                "
};
