/* XPM */
static char *New_Piskel_copy1710178184[] = {
/* columns rows colors chars-per-pixel */
"128 128 10 1 ",
"  c None",
". c black",
"X c #0B0000",
"o c #106316",
"O c #226B0C",
"+ c #BD7F45",
"@ c #BD8A45",
"# c #F0CD78",
"$ c #458EBD",
"% c #F6DDF1",
/* pixels */
"                                                                                                                                ",
"                                                                                                                                ",
"                                                                                                                                ",
"                                                                                                                                ",
"                                                                                                                                ",
"                                                                                                                                ",
"                                                                                                                                ",
"                                                    .................                                                           ",
"                                              .............................                                                     ",
"                                          .....................................                                                 ",
"                                       .............%%%%%$$$$$$$$$$$$.............                                              ",
"                                    ..........$$$$$$%%%%%$$$$$$$$$$$$$$$$$$..........                                           ",
"                                  ........$$$$$$$$$$$$$$$$$$$$$$%%%%%$$$$$$$$$$........                                         ",
"                                .......%%$$$$$$$$$$$$$$$$$$$$$$%%%%%%%%%%$$$$$$$$$.......                                       ",
"                              ......$$$%%$$$$$$$$%%%%%%$$$$$$$$%%%%%%%%%%%$$$$$$$$$$$......                                     ",
"                            ......$$$$$$$$$$$$$%%%%%%%%%$$$$$$$%%%%%%%%%%%$$$$$$$$$$$$$......                                   ",
"                           .....$$$$$$$$$$$$$$%%%%%%%%%%%%$$$$$$%%%%%%%%%%$$$$$%%$%%%%%$$.....                                  ",
"                          ....%%%%%$$$%%%%$$$$%%%%%%%%%%%%$$$$$$$%%%%%%$$$$$$$$%%%%%%%%%$$.....                                 ",
"                         ....%%%%%%$$%%%%%%$$$%%%%%%%%%%%%$$$$$$$$$$$$$$$$$$$$$$$%%%%%%%$$$$....                                ",
"                       .....%%%%%%%$$%%%%%%$$$%%%.....................$$$$$$$$$$$%%%%%%%$$$$$.....                              ",
"                       ....$%%%%%%$$$%%%.......................................$$$%%%%%%$$%%%%....                              ",
"                      ....$$%%%$$$$.................................................$$$$$$%%%%$....                             ",
"                     ....$$$$$$..................@@@@@@@@@@@@@@@@@@@@@..................$$$%%%$$....                            ",
"                    ....$$$.............@@@@@@@@@@@@@@@@@@@@@@@@@@@@@@@@@@@@@@@.............$$$$$....                           ",
"                    ...$$.........@@@@@@@@@@@@@@@@@@@@@@@@@@@@@@@@++++@@@@@@@@@@@@@@@.........$$$$...                           ",
"                   ...........@@@@@@@@@@@++@@@@@@@@@@@@@@@@@@@@@@+++++@@@@@@@@@@@@@@@@@@@........$....                          ",
"                   .......@@@@@@@@@@@@@@@++++@@@@@@@@@@@@@@@@@@@@++@@@@@@@@@@@@@@@@@@@@@@@@@@.....$...                          ",
"                   .....@@@@@@@@@@@@@@@@@@+++@@@@@@@@..........@@@@@@@@@@@@@@@@@@@@@@@@@@@@@@@@.......                          ",
"                  ....@@@@@@@@@@@@@@@@@@@@@@@@@@@..................@@@@@@@@@@@@@@@@@@@@@@@@@@@@@@.....                          ",
"                  ...@@@@@@@@@@@@@@@@@@@@@@@@@@@@...................@@@++++++++++++++++++++++++++++...                          ",
"                 ....@@@@@@@@@@@@@@@@@@@@@@@@@@@.......######.......+++++++++++++++++++++++++++++++...                          ",
"                 ....@@@@@@@@@@@@@@@@@++++++++@@....#############...++++@@@@@@@@@@@@@@@@@@@@@@@@@@@...                          ",
"                 ....@@@@@@@@@++++++++++++++++@@...##############...@@@@@@@@@@@@@@@@@@@@@@@@@@@@@@@...                          ",
"                  ...@@@@@@@@++++++++++@@@@@@@@@....#############...@@@@@@@@@@@@@@@@@@@@@@@@@@@@@@....                          ",
"                  ....@@@@@@@++@@@@@@@@@@@@@@@@@....#############...@@@@@@@@@@@@@@@@@@@@@@@@@@@@@...                            ",
"                  ......@@@@@@@@@@@@@@@@@@@++++@....#############...@@@+++++@@@@@@@@@@@@@@@@@@@....                             ",
"                    ......@@@@@@@@@@@@@@@@@++++@@...#############...@@@+++++++++++@@@@@@@@@@@.....                              ",
"                     .........@@@@@@@@@@@@@@@@@@@...#############...@@@@@@@+++++++@@@@@@@........                               ",
"                         .........@@@@@@@@@@@@@@@...#############...@@@@@@@@@@@@@@@@@.........                                  ",
"                           .............@@@@@@@@@...#############...@@@@@@@@@@@.............                                    ",
"                               .....................#############...@@..................                                        ",
"                                   .................#############...................                                            ",
"                                        ............#############..............                                                 ",
"                                                ...##############.....                                                          ",
"                                                ...##############....                                                           ",
"                                                ...###############...                                                           ",
"                                                ...###############...                                                           ",
"                                                ...###############...                                                           ",
"                                                ...###############...                                                           ",
"                                                ...###############...                                                           ",
"                                                ...###############...                                                           ",
"                                                ...###############...                                                           ",
"                                                ...###############...                     .........                             ",
"                                               ....###############...                 ...............                           ",
"                                               ....###############...              ....................                         ",
"                                              ....################...            ...........%%%$$.......                        ",
"                                             .....################...          .........%%%%%%%$$$$......                       ",
"                                             ....#################...      ..........$$$%%%%%%%$$$$$$......                     ",
"                        ................   ......#################...     .........$$$$$$$$$$$$$$$$$$$.....                     ",
"                        ........................##################...   .........$$$$$$$$$$$$$$$$$$$$$$.....                    ",
"                      ..........................##################...   .....%%%%$$$$$$$$$$$%%%%%%%$$$$$....                    ",
"                    .............$$$$$............################...  .....$%%%%$$$$$$$$$%%%%%%%%%%%$$$$....                   ",
"                   .......$$$....$$$$$$...........###############....  ....$$.........$$$$%%%%%%%%%%%$$$$.....                  ",
"                   .....$$$$$$$$$$$$$$$$$$$$$$.....##############....  ...$............$$$$$%%%%%%%$$$$$$$....                  ",
"                  ....$$$$$$%%$$$$$$$$$$$$$$$$$....##############...  ...................$$$$$$$$$$$$$$$$$....                  ",
"                 .....$$$$$%%%%$$$$$$%%%%%%%$$$$...#############....  .........@@@@@......$$$$$$$$$$$$$$$$$...                  ",
"                 ....%%%$$%%%%%%$$$%%%%%%%%%%%$$....############....  .......@@@@@@@@........$$$$$$$$$$%%%%...                  ",
"                ....%%%%$$%%%%%%$$%%%%%%%%%%%%%$....############...   ......@@@@@++@@@@........$$$$$$$%%%%%...                  ",
"                ....%%%%$$$%%%%$$$$%%%%%%%%%%%$$$...###########....   .....@@@@@@+++@@@@.......$$$$$%%%%%%%...                  ",
"                ...$%%%$$$$$%%$$$$$$$%%%%%%%$$$$$...###########....   ....@@@@@@@@+++@@@@@@.....$$$$%%%%%%%...                  ",
"               ....$$$$$$$$$$$$$$$$$$$$$$$$$$$$$$...###########....   ....@@@@@@@@+++@@@@@@@....$$$$%%%%%%%...                  ",
"               ....$$$$$$$$$$$$$$$$$$$$$$$$$$$$$$...##########....    ..........@@@@@@@@@@@@@....$$$%%%%%%%...                  ",
"               ...$$$$$$$$$$$$$$$$$$$$$$$$$$%%%$$...##########....     ............@@@@@@@@@@....$$$$%%%%%%...                  ",
"              ....$$$$$$$$$$$$$$$$$$$$$$$$$%%%%%$...##########....     ...................@@@@....$$$%%%%%%...                  ",
"              ....$$$$$$$$$$%%%%%$$$$$$$$$$%%%%%$...##########...       ...................@@@.....$$$%%%%%...                  ",
"              ...$$$$$$$$$%%%%%%%%%$$$$$$$%%%%%%....##########...        ......#...........@@@@....$$$$%%%%...                  ",
"              ...$$$$$$$$$%%%%%%%%%$$$$$$$%%%%%%....##########...       .....##########....@@@@@....$$$$%%%...                  ",
"              ..%%%%%$$$$%%%%%%%%%%%$$$$$$%%%%%....##########....       .....###########...@@@@@....$$$$$$....                  ",
"              ..%%%%%%$$$%%%%%%%%%%%$$$$$$%%%%.....##########....      .....############...@@@@@@...$$$$$$....                  ",
"              ..%%%%%%%$$%%%%%%%%%%%$$$$$$$$......###########....     .....#############...@@@@@@....%%$$$....                  ",
"              ...%%%%%%$$$%%%%%%%%%$$$$$$$$......###++#######...      ....#############....@@@@@@....%%$$....                   ",
"              ....%%%%%$$$%%%%%%%%%$$$$$........####+++######...     .....#############....@++@@@@...%%$$....                   ",
"              .....%%%%$$$$$%%%%%$$$$$$.......#####++++######...    .....#############.....@+++@@@...%%$.....                   ",
"              .......$$$$$$$$$$$$$$$.......++#####+++++######...    ....##############....@@++++@@....$$....                    ",
"               ........$$$$$$$$$$..........++####++++++#####....   ....##############....@@@@+++@@....$.....                    ",
"                 ............$$$...........+++++#++++++#####....   ....#############.....@@@@@++@@.........                     ",
"                   ....................#...+++++++++++######...    ...##############....@@@@@@@@@@@.......                      ",
"                     ..............#####...+++++++++++#####....   ....##############.......@@@@@@@.......                       ",
"                           .......######...+++++++++++#####....   ....#############.....................                        ",
"                             ...#########..++++++++++#++++#....  ....#############....................                          ",
"                             ...#########..+++++++++++++++....   ....############.....  .............                           ",
"                             ...#########....+++++++++++++.... .....#############....                                           ",
"                             ...#########....++++++++++++.... ......############.....                                           ",
"                             ....#########....+++++++++++..........#############....                                            ",
"                             ....##########...++++++++++.........##############....                                             ",
"                              ...##########....++++++++..........#############.....                                             ",
"                              ...#+++++####....++++++...........##############....                                              ",
"                              ....+++++#####..+++++........##################....                                               ",
"                              ....+++++#####..+++.......#####################....                                               ",
"                               ...++++++++##............####################....                                                ",
"                               ...++++++++++..........#####################.....                                                ",
"                               ...++++++++++......#################XXX#####....                                                 ",
"                    XXXX        ...+++++++++.....###+++#XXX##XXX##XXXX####.....                                                 ",
"                    XXXXXXX     ...+++++++++....###++++XXXX#XXXX#XXXX####.....                                                  ",
"                    XXOXXXXX    XXXX+++++++XXXX.++#++XXXXXXXXXXXXXXXX####.....                                                  ",
"                    XXXO XXXXX XXXXX++++++XXXXX.+XXX+XXXXXXXXXXXXXXX####..XXXX                                                  ",
"                    XXXXOOOXXXXXXXXXX+++XXXXXXX.XXXXXXXXXXXXOXXXXXX###XXXXXXXX                                                  ",
"                     XXXXOOOXXXXXOXXX++XXXXOXXXXXXXXXXOXXXXXOXXXXXX#XXXXXXXXXX                                                  ",
"                      XXXOOOOOXXXXOXXXXXXXOOXXXXXOXXXOOXXXXOOXXXXXOXXXXOOOXXX                                                   ",
"                       XXXOOOOOXXXOXXXXXXOOOXXXOOOXXXOXXXXXOXXXOXXXXXXOOOXXX                                                    ",
"                    XXXXXXXXOOOXXXOXXXXOOOOOOOOOOOXXOOXXXXOOXXXOXXXXXOOOXXX                                                     ",
"                 XXXXXXXXXXXOOOOOOOOXXOOooOOOOOOOOXXoXXXXOOoXXXOXXXOOOOOXXX                                                     ",
"                 XXXXXOOXXXXOOOOoooOOOOoooOOOOoooOXXoXXXOOooXXooXXoOOOOOXX                                                      ",
"                 XXXXOOOOOOoooOOoooOooooooooOOoooooooXXXOoooXXooXXoOOOOXXXXXXXXXXXX                                             ",
"                  XXXXOOOOOoooooooooooooooooOoooooooOXXOooooooooooOOOOOXXXXXXXXXXXX                                             ",
"                   XXXXOOOOOooooooooooooooooOoooooooOOOooooooOOoooOOOOOXXOOOOOOOOXX                                             ",
"                    XXXXOOOOoooooOooooooooooooooooooOOoooooooOooooOOOOOOOOOOOOOXXXX                                             ",
"                     XXXXXOOOooooOoooooooooooooooOooooooOoooOooooOOXXXXXXXXXXXXXXX                                              ",
"                      XXXXXXOOooooOooooOooOooooooOooooooooooXXXXXXXXXXXXXXXXXXXX                                                ",
"                        XXXXXXXooooooooOooOooXXXXXXXXXXXXXXXXXXXXXXX                                                            ",
"                          XXXXXXXXXXXXXXXXXXXXXXXXXXXXXXXXXXXX                                                                  ",
"                             XXXXXXXXXXXXXXXXX                                                                                  ",
"                                                                                                                                ",
"                                                                                                                                ",
"                                                                                                                                ",
"                                                                                                                                ",
"                                                                                                                                ",
"                                                                                                                                "
};
