/* XPM */
static char *coinblue3_1_png1711199611[] = {
/* columns rows colors chars-per-pixel */
"64 64 142 2 ",
"   c None",
".  c black",
"X  c #080000",
"o  c #0B0000",
"O  c #0C0600",
"+  c #0B0704",
"@  c #0C0B00",
"#  c #0D0D01",
"$  c #0F0C07",
"%  c #04080B",
"&  c #050A0E",
"*  c #120D06",
"=  c #150C07",
"-  c #0F1702",
";  c #101903",
":  c #171108",
">  c #1A1309",
",  c #1A150B",
"<  c #1F170B",
"1  c #1E190F",
"2  c #081117",
"3  c #09131A",
"4  c #101110",
"5  c #131513",
"6  c #221609",
"7  c #27190F",
"8  c #2F1F11",
"9  c #3E101C",
"0  c #112304",
"q  c #122705",
"w  c #132804",
"e  c #132B04",
"r  c #112D07",
"t  c #0F3209",
"y  c #123307",
"u  c #163506",
"i  c #173C06",
"p  c #2F2211",
"a  c #272218",
"s  c #3A2715",
"d  c #3A2B15",
"f  c #3C331E",
"g  c #0C1A23",
"h  c #0D1C25",
"j  c #11232F",
"k  c #373428",
"l  c #272D35",
"z  c #323238",
"x  c #432E16",
"c  c #462F19",
"v  c #463319",
"b  c #4B361B",
"n  c #523C1E",
"m  c #6D192F",
"M  c #4B3C25",
"N  c #4B3F25",
"B  c #503D23",
"V  c #5E3F22",
"C  c #0F4A0F",
"Z  c #194207",
"A  c #104B0F",
"S  c #154D0C",
"D  c #194F0A",
"F  c #1C5009",
"G  c #1B550B",
"H  c #1D5609",
"J  c #0E5011",
"K  c #105712",
"L  c #166612",
"P  c #136414",
"I  c #5E4422",
"U  c #5E4522",
"Y  c #564829",
"T  c #5A4C2D",
"R  c #6A4D26",
"E  c #6D4C2A",
"W  c #75512A",
"Q  c #76562B",
"!  c #695934",
"~  c #78663C",
"^  c #1E3E52",
"/  c #5C525A",
"(  c gray38",
")  c #646471",
"_  c #7B6E78",
"`  c #767676",
"'  c #7E7E7E",
"]  c #815E2F",
"[  c #826237",
"{  c #8D6433",
"}  c #8D6633",
"|  c #9B6737",
" . c #997037",
".. c #A5783C",
"X. c #942442",
"o. c #C72C55",
"O. c #877343",
"+. c #B17740",
"@. c #B17B40",
"#. c #BD7F45",
"$. c #B85871",
"%. c #B18140",
"&. c #BD8345",
"*. c #BD8545",
"=. c #BD8A45",
"-. c #A58C52",
";. c #B4995A",
":. c #C3884B",
">. c #C68D4E",
",. c #CC9754",
"<. c #D09C58",
"1. c #C3A661",
"2. c #D7B166",
"3. c #E1C070",
"4. c #F0CD78",
"5. c #336A8D",
"6. c #717F95",
"7. c #8A7C87",
"8. c #7C8498",
"9. c #4085B1",
"0. c #568EB7",
"q. c #7A90AD",
"w. c #5B97C3",
"e. c #779DC1",
"r. c #71A1CA",
"t. c #7CA6CD",
"y. c #909090",
"u. c #808DA4",
"i. c #899EBC",
"p. c #B8A5B4",
"a. c #87ABD0",
"s. c #92B0D3",
"d. c #9DB5D7",
"f. c #A8BADA",
"g. c #C7B3C3",
"h. c #BEC4E0",
"j. c #C5C0D8",
"k. c #C9C9E4",
"l. c #D4CEE7",
"z. c #DFD3EA",
"x. c #EAD8ED",
"c. c #F6DDF1",
/* pixels */
"                                                                                                                                ",
"                                                                                                                                ",
"                                                                                                                                ",
"                                                                                                                                ",
"                                        . . 3 3 j j _ _ X.X.X.X.X.X.9 9 h h . .                                                 ",
"                                        . . 3 3 j j _ _ X.X.X.X.X.X.9 9 h h . .                                                 ",
"                                3 3 9 9 o.o.9 9 $.$.$.$.o.o.9 9 c.c.9 9 9 9 9.9.9 9 9 9                                         ",
"                                3 3 9 9 o.o.9 9 $.$.$.$.o.o.9 9 c.c.9 9 9 9 9.9.9 9 9 9                                         ",
"                        . . 7.7.f.f.d.d.d.d.d.d.g.g.p.p.8.8.o.o.u.u.i.i.o.o.o.o.l.l.x.x.9 9 & &                                 ",
"                        . . 7.7.f.f.d.d.d.d.d.d.g.g.p.p.8.8.o.o.u.u.i.i.o.o.o.o.l.l.x.x.9 9 & &                                 ",
"                    . . X.X.8.8.X.X.z z p p p p n n I I Y Y I I U U v v p p a a l l X.X.$.$.q.q.& &                             ",
"                    . . X.X.8.8.X.X.z z p p p p n n I I Y Y I I U U v v p p a a l l X.X.$.$.q.q.& &                             ",
"                    % % M M Q Q ....=.=.*.*.=.=.=.=. . .{ {  . .*.*.*.*.=.=.=.=.=.=. . .R R k k 9 9                             ",
"                    % % M M Q Q ....=.=.*.*.=.=.=.=. . .{ }  . .*.*.*.*.=.=.=.=.=.=. . .R R k k 9 9                             ",
"                . . ] ] =.=.=.=.=.=.=.=.*.*.=.=.* # M Y ~ ~ Y Y , , &.&.*.*.*.*.*.*.&.&.*.*.&.&.W W                             ",
"                . . ] ] =.=.=.=.=.=.=.=.*.*.=.=.* $ M M ~ ~ Y Y , , &.&.*.*.*.*.*.*.&.&.*.*.&.&.W W                             ",
"                . . U U =.=.*.*.*.*.*.*.*.*.*.*.$ $ y.y.y.y.y.y.f f =.=.*.*.=.=.=.=.=.=.=.=.%.%.b b                             ",
"                . . U U =.=.*.*.*.*.*.*.*.*.*.*.$ $ y.y.y.y.y.y.f f =.=.*.*.=.=.=.=.=.=.=.=.%.%.b b                             ",
"                        < < v v Q Q } } =.=.=.=.p p ` ` y.y.` ` f f =.=.*.*.@.@.} } R R d d * *                                 ",
"                        < < v v Q Q } } =.=.=.=.p p ` ` y.y.` ` f f =.=.*.*.@.@.} } R R d d * *                                 ",
"                                        . . . . $ $ ` ` ` ` ( ( f f , , . . . .                                                 ",
"                                        . . . . $ $ ` ` ` ` ( ( f f , , . . . .                                                 ",
"                                                f f ( ( 7.7.( ( ! !                                                             ",
"                                                f f ( ( 7.7.( ( ! !                                                             ",
"                                                f f 7.7.( ( 7.7.~ ~                                                             ",
"                                                f f 7.7.( ( 7.7.~ ~                                                             ",
"                                                M M ' ' 7.7.' ' ~ ~                 . . . . z z & &                             ",
"                                                M M ' ' 7.7.' ' ~ ~                 . . . . z z & &                             ",
"                                            . . ;.;.' ' ' ' ' ' ~ ~         . . j j X.X.d.d.a.a.o.o.X.X.. .                     ",
"                                            . . ;.;.' ' ' ' ' ' ~ ~         . . j j X.X.d.d.a.a.o.o.X.X.. .                     ",
"                    . . m m 9 9 m m m m 9 9 2 2 O.O.4.4.' ' 4.4.T T     2 2 ) ) 9 9 X.X.$.$.c.c.z.z.$.$.X.X.                    ",
"                    . . m m 9 9 m m m m 9 9 2 2 O.O.4.4.' ' 4.4.T T     2 2 ) ) 9 9 X.X.$.$.c.c.z.z.$.$.X.X.                    ",
"                . . 8.8.t.t.l.l.m m h.h.k.k.e.e.1 1 4.4.4.4.4.4.* *     . . U U } } p p X.X.5.5.o.o.$.$.6.6.+ +                 ",
"                . . 8.8.t.t.l.l.m m h.h.k.k.e.e.1 1 4.4.4.4.4.4.* *     . . U U } } p p X.X.5.5.o.o.$.$.6.6.+ +                 ",
"                g g s.s.0.0.9 9 o.o.$.$.d.d.w.w.j j 4.4.4.4.-.-.. .     d d } } *.*.=.=.] ] 4 4 o.o.c.c.p.p.+ +                 ",
"                g g s.s.0.0.9 9 o.o.$.$.d.d.w.w.j j 4.4.4.4.-.-.. .     d d } } *.*.=.=.] ] 4 4 o.o.c.c.p.p.+ +                 ",
"                X.X.o.o.w.w.d.d.r.r.o.o.$.$.x.x.g g 4.4.4.4.~ ~         . . $ $ + + p p U U I I X.X.f.f.p.p.X X                 ",
"                X.X.o.o.w.w.d.d.r.r.o.o.$.$.x.x.g g 4.4.4.4.~ ~         . . $ $ + + p p U U I U X.X.f.f.p.p.X X                 ",
"                j.j.X.X.k.k.c.c.x.x.o.o.$.$.7.7.f f 4.4.4.4.M M         $ $ ` ` y.y.( ( p p =.=.: : 0.0.m m X X                 ",
"                j.j.X.X.k.k.c.c.x.x.o.o.$.$.7.7.f f 4.4.4.4.M M         $ $ ` ` y.y.( ( p p =.=.: : 0.0.m m X X                 ",
"                / / m m X.X.k.k.s.s.X.X.h h Y Y 2.2.,.,.4.4.f f     . . -.-.y.y.( ( ` ` d d *.*.n n $.$.3 3                     ",
"                / / m m X.X.k.k.s.s.X.X.h h Y Y 2.2.,.,.4.4.f f     . . -.-.y.y.( ( ` ` d d *.*.n n $.$.3 3                     ",
"                    & & j j ^ ^ 5 5 Y Y 8 8 >.>.:.:.<.<.3.3.. .     T T ( ( ( ( ( ( $ $ ] ] *.*.R R % % . .                     ",
"                    & & j j ^ ^ 5 5 Y Y 8 8 >.>.:.:.<.<.3.3.. .     T T ( ( ( ( ( ( $ $ ] ] *.*.R R % % . .                     ",
"                            . . ` ` y.y.B B ....#.#.>.>.[ [ . . . . ;.;.' ' ' ' ! ! . . . . . . . .                             ",
"                            . . ` ` y.y.B B ....#.#.>.>.[ [ . . . . ;.;.' ' ' ' ! ! . . . . . . . .                             ",
"                            X X ` ` y.y.( ( V V #.#.+.+.> > . . ! ! ' ' <.<.1.1.. .                                             ",
"                            X X ` ` y.y.( ( V V #.#.+.+.> > . . ! ! ' ' <.<.1.1.. .                                             ",
"                                E E >.>.( ( s s V V + + <.<.:.:.<.<.<.<.<.<.f f                                                 ",
"                                E E >.>.( ( s s V V + + <.<.:.:.<.<.<.<.<.<.f f                                                 ",
"                                c c #.#.#.#.. . | | | | | | <.<.:.:.| | :.:.. .                                                 ",
"                                c c #.#.#.#.. . | | | | | | <.<.:.:.| | :.:.. .                                                 ",
"                    # # e e X X O O | | x x X X c c 6 6 X X # # 7 7 | | = =                                                     ",
"                    # # e e X X O O | | x x X X c c 6 6 X X # # 7 7 | | = =                                                     ",
"                    o o 0 0 F F r r - - G G i i e e q q e e ; ; # # Z Z - -                                                     ",
"                    o X 0 0 F F r r - - G G i i e e q q e e ; ; # # Z Z - -                                                     ",
"                o o u u D D L L P P P P P P L L K K y y P P A A S S H H - - 0 0 @ @                                             ",
"                o o u u D D L L P P P P P P L L K K y y P P A A S S H H - - 0 0 @ @                                             ",
"                    o o w w K K P P P P P P J J A A A A C C t t r r 0 0 0 0 ; ;                                                 ",
"                    o o w w K K P P P P P P J J A A A A C C t t r r 0 0 0 0 ; ;                                                 ",
"                                                                                                                                ",
"                                                                                                                                ",
"                                                                                                                                ",
"                                                                                                                                "
};
