/* XPM */
static char *coinblue31711125451[] = {
/* columns rows colors chars-per-pixel */
"32 32 167 2 ",
"   c None",
".  c black",
"X  c #080000",
"o  c #0A0000",
"O  c #0B0000",
"+  c #0C0600",
"@  c #0B0704",
"#  c #0C0B00",
"$  c #0D0D01",
"%  c #0E0E01",
"&  c #0B0804",
"*  c #0F0C07",
"=  c #04080B",
"-  c #04090C",
";  c #050A0E",
":  c #100D07",
">  c #120D06",
",  c #150C07",
"<  c #170F08",
"1  c #0F1402",
"2  c #0F1602",
"3  c #0F1702",
"4  c #101903",
"5  c #101A03",
"6  c #171108",
"7  c #1A1309",
"8  c #1A150B",
"9  c #1F170B",
"0  c #1E190F",
"q  c #081117",
"w  c #09131A",
"e  c #101110",
"r  c #131513",
"t  c #221609",
"y  c #27190F",
"u  c #2F1F11",
"i  c #3E101C",
"p  c #122103",
"a  c #112304",
"s  c #122705",
"d  c #132804",
"f  c #132B04",
"g  c #132E05",
"h  c #112D07",
"j  c #142E05",
"k  c #152E05",
"l  c #0F3209",
"z  c #123307",
"x  c #163506",
"c  c #173C06",
"v  c #2F2211",
"b  c #272218",
"n  c #3A2715",
"m  c #3A2B15",
"M  c #3C331E",
"N  c #0C1A23",
"B  c #0D1C25",
"V  c #182227",
"C  c #11232F",
"Z  c #373428",
"A  c #272D35",
"S  c #323238",
"D  c #432E16",
"F  c #452C18",
"G  c #462F19",
"H  c #463319",
"J  c #4B361B",
"K  c #523C1E",
"L  c #6D192F",
"P  c #4B3C25",
"I  c #4B3F25",
"U  c #503D23",
"Y  c #5E3F22",
"T  c #0F4A0F",
"R  c #194207",
"E  c #104B0F",
"W  c #154D0C",
"Q  c #194F0A",
"!  c #12510F",
"~  c #1C5009",
"^  c #1B550B",
"/  c #1D5609",
"(  c #0E5011",
")  c #105712",
"_  c #166612",
"`  c #126414",
"'  c #136414",
"]  c #5E4422",
"[  c #5E4522",
"{  c #564829",
"}  c #5A4C2D",
"|  c #6A4D26",
" . c #6D4C2A",
".. c #75512A",
"X. c #76562B",
"o. c #695934",
"O. c #78663C",
"+. c #1E3E52",
"@. c #5C525A",
"#. c gray38",
"$. c #646471",
"%. c #7B6E78",
"&. c #767676",
"*. c #7E7E7E",
"=. c #815E2F",
"-. c #826237",
";. c #8D6433",
":. c #8D6633",
">. c #8D6733",
",. c #9B6737",
"<. c #997037",
"1. c #A5783C",
"2. c #942442",
"3. c #C72C55",
"4. c #877343",
"5. c #B17740",
"6. c #B17B40",
"7. c #BD7F45",
"8. c #B85871",
"9. c #B18140",
"0. c #BD8345",
"q. c #BD8445",
"w. c #BD8545",
"e. c #BD8645",
"r. c #BD8745",
"t. c #BD8845",
"y. c #BD8945",
"u. c #BD8A45",
"i. c #A58C52",
"p. c #B4995A",
"a. c #C3884B",
"s. c #C68D4E",
"d. c #CC9754",
"f. c #D09C58",
"g. c #C3A661",
"h. c #D7B166",
"j. c #E1C070",
"k. c #F0CD78",
"l. c #336A8D",
"z. c #717F95",
"x. c #8A7C87",
"c. c #7C8498",
"v. c #4085B1",
"b. c #568EB7",
"n. c #7688A1",
"m. c #7A90AD",
"M. c #5092C0",
"N. c #5B97C3",
"B. c #779DC1",
"V. c #71A1CA",
"C. c #7CA6CD",
"Z. c #909090",
"A. c #808DA4",
"S. c #899EBC",
"D. c #B8A5B4",
"F. c #87ABD0",
"G. c #92B0D3",
"H. c #9DB5D7",
"J. c #A8BADA",
"K. c #C7B3C3",
"L. c #BEC4E0",
"P. c #C5C0D8",
"I. c #C9C9E4",
"U. c #D4CEE7",
"Y. c #DFD3EA",
"T. c #EAD8ED",
"R. c #F6DDF1",
/* pixels */
"                                                                ",
"                                                                ",
"                    . w C %.2.2.2.i B .                         ",
"                w i 3.i 8.8.3.i R.i i v.i i                     ",
"            . x.J.H.H.H.K.D.c.3.A.S.3.3.U.T.i ;                 ",
"          . 2.c.2.S v v K ] { ] [ H v b A 2.8.m.;               ",
"          = P X.1.u.w.u.u.<.;.<.w.w.u.u.u.<.| Z i               ",
"        . =.u.u.u.u.w.u.> I O.{ 8 0.w.w.w.0.w.0...              ",
"        . [ u.w.w.w.w.w.* Z.Z.Z.M u.w.u.u.u.u.9.J               ",
"            9 H X.:.u.u.v &.Z.&.M u.w.6.:.| m >                 ",
"                    . . * &.&.#.M 8 . .                         ",
"                        M #.x.#.o.                              ",
"                        M x.#.x.O.                              ",
"                        P *.x.*.O.        . . S ;               ",
"                      . p.*.*.*.O.    . C 2.H.F.3.2..           ",
"          . L i L L i q 4.k.*.k.}   q $.i 2.8.R.Y.8.2.          ",
"        . c.C.U.L L.I.B.0 k.k.k.>   . [ :.v 2.l.3.8.z.@         ",
"        N G.b.i 3.8.H.N.C k.k.i..   m :.w.u.=.e 3.R.D.@         ",
"        2.3.N.H.V.3.8.T.N k.k.O.    . * @ v [ ] 2.J.D.X         ",
"        P.2.I.R.T.3.8.x.M k.k.P     * &.Z.#.v u.6 b.L X         ",
"        @.L 2.I.G.2.B { h.d.k.M   . i.Z.#.&.m w.K 8.w           ",
"          ; C +.r { u s.a.f.j..   } #.#.#.* =.w.| = .           ",
"              . &.Z.U 1.7.s.-.. . p.*.*.o.. . . .               ",
"              X &.Z.#.Y 7.5.7 . o.*.f.g..                       ",
"                 .s.#.n Y @ f.a.f.f.f.M                         ",
"                G 7.7.. ,.,.,.f.a.,.a..                         ",
"          $ f X + ,.D X G t X $ y ,.,                           ",
"          O a ~ h 3 ^ c f s f 4 $ R 3                           ",
"        O x Q _ ' ' ' _ ) z ' E W / 3 a #                       ",
"          O d ) ' ' ' ( E E T l h a a 4                         ",
"                                                                ",
"                                                                "
};
