/* XPM */
static char *coinblue1711125451[] = {
/* columns rows colors chars-per-pixel */
"32 32 182 2 ",
"   c None",
".  c black",
"X  c #080000",
"o  c #0A0000",
"O  c #0B0000",
"+  c #0C0600",
"@  c #0B0704",
"#  c #0C0B00",
"$  c #0D0D01",
"%  c #0E0E01",
"&  c #0B0804",
"*  c #0F0C07",
"=  c #04080B",
"-  c #04090C",
";  c #050A0E",
":  c #100D07",
">  c #120D06",
",  c #150C07",
"<  c #170F08",
"1  c #0F1402",
"2  c #0F1602",
"3  c #0F1702",
"4  c #101903",
"5  c #101A03",
"6  c #171108",
"7  c #1A1309",
"8  c #1A150B",
"9  c #1F170B",
"0  c #1E190F",
"q  c #081117",
"w  c #09131A",
"e  c #101110",
"r  c #131513",
"t  c #221609",
"y  c #27190F",
"u  c #2F1F11",
"i  c #122103",
"p  c #112304",
"a  c #122705",
"s  c #132804",
"d  c #132B04",
"f  c #132E05",
"g  c #112D07",
"h  c #142E05",
"j  c #152E05",
"k  c #0F3209",
"l  c #123307",
"z  c #163506",
"x  c #173C06",
"c  c #2F2211",
"v  c #272218",
"b  c #3A2715",
"n  c #3A2B15",
"m  c #3C331E",
"M  c #0C1A23",
"N  c #0D1C25",
"B  c #182227",
"V  c #11232F",
"C  c #122532",
"Z  c #152C3A",
"A  c #152C3B",
"S  c #373428",
"D  c #272D35",
"F  c #323238",
"G  c #432E16",
"H  c #452C18",
"J  c #462F19",
"K  c #463319",
"L  c #4B361B",
"P  c #523C1E",
"I  c #4B3C25",
"U  c #4B3F25",
"Y  c #503D23",
"T  c #5E3F22",
"R  c #0F4A0F",
"E  c #194207",
"W  c #104B0F",
"Q  c #154D0C",
"!  c #194F0A",
"~  c #12510F",
"^  c #1C5009",
"/  c #1B550B",
"(  c #1D5609",
")  c #0E5011",
"_  c #105712",
"`  c #166612",
"'  c #126414",
"]  c #136414",
"[  c #5E4422",
"{  c #5E4522",
"}  c #564829",
"|  c #5A4C2D",
" . c #6A4D26",
".. c #6D4C2A",
"X. c #75512A",
"o. c #76562B",
"O. c #695934",
"+. c #78663C",
"@. c #193546",
"#. c #1E3E52",
"$. c #22475E",
"%. c #344759",
"&. c #264F69",
"*. c #264F6A",
"=. c #385065",
"-. c #2A5875",
";. c #2B5876",
":. c #3C5970",
">. c #5C525A",
",. c #4E5A6B",
"<. c #475E74",
"1. c #646471",
"2. c #7B6E78",
"3. c #815E2F",
"4. c #826237",
"5. c #8D6433",
"6. c #8D6633",
"7. c #8D6733",
"8. c #9B6737",
"9. c #997037",
"0. c #A5783C",
"q. c #877343",
"w. c #B17740",
"e. c #B17B40",
"r. c #BD7F45",
"t. c #96804B",
"y. c #B18140",
"u. c #BD8345",
"i. c #BD8445",
"p. c #BD8545",
"a. c #BD8645",
"s. c #BD8745",
"d. c #BD8845",
"f. c #BD8945",
"g. c #BD8A45",
"h. c #A58C52",
"j. c #B4995A",
"k. c #C3884B",
"l. c #C68D4E",
"z. c #CC9754",
"x. c #D09C58",
"c. c #C3A661",
"v. c #D7B166",
"b. c #D2B369",
"n. c #DAB66A",
"m. c #E1C070",
"M. c #F0CD78",
"N. c #2F6181",
"B. c #336A8D",
"V. c #717E95",
"C. c #717F95",
"Z. c #8A7C87",
"A. c #6A839D",
"S. c #7C8498",
"D. c #5285AB",
"F. c #4085B1",
"G. c #458EBD",
"H. c #568EB7",
"J. c #7688A1",
"K. c #7A90AD",
"L. c #5092C0",
"P. c #5B97C3",
"I. c #669CC6",
"U. c #779DC1",
"Y. c #71A1CA",
"T. c #7CA6CD",
"R. c #808DA4",
"E. c #899EBC",
"W. c #B8A5B4",
"Q. c #87ABD0",
"!. c #92B0D3",
"~. c #9DB5D7",
"^. c #A4B1CE",
"/. c #A8BADA",
"(. c #C7B3C3",
"). c #BEC4E0",
"_. c #C5C0D8",
"`. c #C9C9E4",
"'. c #D4CEE7",
"]. c #DFD3EA",
"[. c #EAD8ED",
"{. c #F6DDF1",
/* pixels */
"                                                                ",
"                                                                ",
"                    . w V 2.=.$.$.Z N .                         ",
"                w :.D.G.!.!.G.I.{.'.T.F.;.C                     ",
"            . Z./.~.~.~.(.W.A.B.R.E.P.P.'.[.N.;                 ",
"          . &.S.%.F c c P { { [ { L c v D ,.A.K.;               ",
"          = I o.0.f.s.s.g.9.5.9.p.p.g.g.g.9. .S V               ",
"        . 3.g.g.f.s.s.s.> } +.} 8 p.p.p.p.u.p.u.X.              ",
"        . { g.p.p.p.p.p.* M.M.M.m g.p.g.g.g.g.y.L               ",
"            9 K o.6.g.g.c M.M.M.m g.p.e.6. .n >                 ",
"                    . . * M.M.M.m 8 . .                         ",
"                        m M.M.M.O.                              ",
"                        m M.M.M.+.                              ",
"                        I M.M.M.+.        . . F ;               ",
"                      . j.M.M.M.+.    . V N.~.Q.F.@..           ",
"          . @.Z -.&.C q q.M.M.M.|   q 1.=.N.Y.{.].P.V           ",
"        . S.T.'.I.).`.U.0 M.M.M.>   . { 6.c A B.G.I.C.@         ",
"        M !.L.T.L.!.~.P.V M.M.h..   n 6.p.g.3.e F.{.W.@         ",
"        &.G.P.~.Y.G.Y.[.M M.M.+.    . * @ c { [ #./.W.X         ",
"        (.Q.).{.[.G.Q.Z.m M.M.I     * b.M.m.c g.6 H.<.X         ",
"        >.^.Y.`.!.;.B } v.z.M.m   . h.M.M.t.n p.P C.w           ",
"          ; C #.r } c l.k.x.m..   | M.M.M.* 3.p. .= .           ",
"              . b.M.I w.r.l.4.. . j.M.M.O.. . . .               ",
"              . c.M.q.T r.w.7 . O.M.x.c..                       ",
"                ..l.n.b T @ x.k.x.x.x.m                         ",
"                J r.r.. 8.8.8.x.k.8.k..                         ",
"          > k @ + 8.G X J t X $ y 8.,                           ",
"          O p ^ g 3 / x d a d 4 $ E 3                           ",
"        O z ! ` ] ] ] ` _ l ] W Q ( 3 p #                       ",
"          O a _ ] ] ] ) W W R k g p p 4                         ",
"                                                                ",
"                                                                "
};
