/* XPM */
static char *coinblue0_1_png1711197946[] = {
/* columns rows colors chars-per-pixel */
"64 64 154 2 ",
"   c None",
".  c black",
"X  c #080000",
"o  c #0B0000",
"O  c #0C0600",
"+  c #0B0704",
"@  c #0C0B00",
"#  c #0D0D01",
"$  c #0F0C07",
"%  c #04080B",
"&  c #050A0E",
"*  c #120D06",
"=  c #150C07",
"-  c #0F1702",
";  c #101903",
":  c #171108",
">  c #1A1309",
",  c #1A150B",
"<  c #1F170B",
"1  c #1E190F",
"2  c #081117",
"3  c #09131A",
"4  c #101110",
"5  c #131513",
"6  c #221609",
"7  c #27190F",
"8  c #112304",
"9  c #122705",
"0  c #132B04",
"q  c #112D07",
"w  c #0F3209",
"e  c #123307",
"r  c #163506",
"t  c #173C06",
"y  c #2F2211",
"u  c #272218",
"i  c #3A2715",
"p  c #3A2B15",
"a  c #3C331E",
"s  c #0C1A23",
"d  c #0D1C25",
"f  c #182227",
"g  c #11232F",
"h  c #122532",
"j  c #152C3A",
"k  c #152C3B",
"l  c #373428",
"z  c #272D35",
"x  c #323238",
"c  c #432E16",
"v  c #462F19",
"b  c #463319",
"n  c #4B361B",
"m  c #523C1E",
"M  c #4B3C25",
"N  c #5E3F22",
"B  c #0F4A0F",
"V  c #194207",
"C  c #104B0F",
"Z  c #154D0C",
"A  c #194F0A",
"S  c #1C5009",
"D  c #1B550B",
"F  c #1D5609",
"G  c #0E5011",
"H  c #105712",
"J  c #166612",
"K  c #136414",
"L  c #5E4422",
"P  c #5E4522",
"I  c #564829",
"U  c #5A4C2D",
"Y  c #6A4D26",
"T  c #6D4C2A",
"R  c #75512A",
"E  c #76562B",
"W  c #695934",
"Q  c #78663C",
"!  c #193546",
"~  c #1E3E52",
"^  c #22475E",
"/  c #344759",
"(  c #264F69",
")  c #385065",
"_  c #2A5875",
"`  c #2B5876",
"'  c #3C5970",
"]  c #5C525A",
"[  c #4E5A6B",
"{  c #475E74",
"}  c #646471",
"|  c #7B6E78",
" . c #815E2F",
".. c #826237",
"X. c #8D6433",
"o. c #8D6633",
"O. c #9B6737",
"+. c #997037",
"@. c #A5783C",
"#. c #877343",
"$. c #B17740",
"%. c #B17B40",
"&. c #BD7F45",
"*. c #96804B",
"=. c #B18140",
"-. c #BD8345",
";. c #BD8545",
":. c #BD8745",
">. c #BD8945",
",. c #BD8A45",
"<. c #A58C52",
"1. c #B4995A",
"2. c #C3884B",
"3. c #C68D4E",
"4. c #CC9754",
"5. c #D09C58",
"6. c #C3A661",
"7. c #D7B166",
"8. c #D2B369",
"9. c #DAB66A",
"0. c #E1C070",
"q. c #F0CD78",
"w. c #2F6181",
"e. c #336A8D",
"r. c #717F95",
"t. c #8A7C87",
"y. c #6A839D",
"u. c #7C8498",
"i. c #5285AB",
"p. c #4085B1",
"a. c #458EBD",
"s. c #568EB7",
"d. c #7A90AD",
"f. c #5092C0",
"g. c #5B97C3",
"h. c #669CC6",
"j. c #779DC1",
"k. c #71A1CA",
"l. c #7CA6CD",
"z. c #808DA4",
"x. c #899EBC",
"c. c #B8A5B4",
"v. c #87ABD0",
"b. c #92B0D3",
"n. c #9DB5D7",
"m. c #A4B1CE",
"M. c #A8BADA",
"N. c #C7B3C3",
"B. c #BEC4E0",
"V. c #C9C9E4",
"C. c #D4CEE7",
"Z. c #DFD3EA",
"A. c #EAD8ED",
"S. c #F6DDF1",
/* pixels */
"                                                                                                                                ",
"                                                                                                                                ",
"                                                                                                                                ",
"                                                                                                                                ",
"                                        . . 3 3 g g | | ) ) ^ ^ ^ ^ j j d d . .                                                 ",
"                                        . . 3 3 g g | | ) ) ^ ^ ^ ^ j j d d . .                                                 ",
"                                3 3 ' ' i.i.a.a.b.b.b.b.a.a.h.h.S.S.C.C.l.l.p.p.` ` h h                                         ",
"                                3 3 ' ' i.i.a.a.b.b.b.b.a.a.h.h.S.S.C.C.l.l.p.p.` _ h h                                         ",
"                        . . t.t.M.M.n.n.n.n.n.n.N.N.c.c.y.y.e.e.z.z.x.x.g.g.g.g.C.C.A.A.w.w.& &                                 ",
"                        . . t.t.M.M.n.n.n.n.n.n.N.N.c.c.y.y.e.e.z.z.x.x.g.g.g.g.C.C.A.A.w.w.& &                                 ",
"                    . . ( ( u.u./ / x x y y y y m m P P P P L L P P n n y y u u z z [ [ y.y.d.d.& &                             ",
"                    . . ( ( u.u./ / x x y y y y m m P P P P L L P P n n y y u u z z [ [ y.y.d.d.& &                             ",
"                    % % M M E E @.@.,.,.;.,.;.;.,.,.+.+.X.X.+.+.;.;.;.;.,.,.,.,.,.,.+.+.Y Y l l h g                             ",
"                    % % M M E E @.@.,.;.;.;.,.,.,.,.+.+.X.o.+.+.;.;.;.;.,.,.,.,.,.,.+.+.Y Y l l g g                             ",
"                . .  . .,.,.,.,.,.,.;.,.,.;.,.;.* * I I Q Q I I , , ;.;.;.;.;.;.;.;.-.-.;.;.-.-.R R                             ",
"                . .  . .,.,.,.,.;.,.,.;.;.,.;.;.* * I I Q Q I I , , ;.;.;.;.;.;.;.;.-.-.;.;.-.-.R R                             ",
"                . . P P ,.,.;.;.;.;.;.;.;.;.;.;.$ $ q.q.q.q.q.q.a a ,.,.;.;.,.,.,.,.,.,.,.,.=.=.n n                             ",
"                . . P P ,.,.;.;.;.;.;.;.;.;.;.;.$ $ q.q.q.q.q.q.a a ,.,.;.;.,.,.,.,.,.,.,.,.=.=.n n                             ",
"                        < < b b E E o.o.,.,.,.,.y y q.q.q.q.q.q.a a ,.,.;.;.%.%.o.o.Y Y p p * *                                 ",
"                        < < b b E E o.o.,.,.,.,.y y q.q.q.q.q.q.a a ,.,.;.;.%.%.o.o.Y Y p p * *                                 ",
"                                        . . . . $ $ q.q.q.q.q.q.a a , , . . . .                                                 ",
"                                        . . . . $ $ q.q.q.q.q.q.a a , , . . . .                                                 ",
"                                                a a q.q.q.q.q.q.W W                                                             ",
"                                                a a q.q.q.q.q.q.W W                                                             ",
"                                                a a q.q.q.q.q.q.Q Q                                                             ",
"                                                a a q.q.q.q.q.q.Q Q                                                             ",
"                                                M M q.q.q.q.q.q.Q Q                 . . . . x x & &                             ",
"                                                M M q.q.q.q.q.q.Q Q                 . . . . x x & &                             ",
"                                            . . 1.1.q.q.q.q.q.q.Q Q         . . g g w.w.n.n.v.v.p.p.! ! . .                     ",
"                                            . . 1.1.q.q.q.q.q.q.Q Q         . . g g w.w.n.n.v.v.p.p.! ! . .                     ",
"                    . . ! ! j j _ _ ( ( h h 2 2 #.#.q.q.q.q.q.q.U U     2 2 } } ) ) w.w.k.k.S.S.Z.Z.g.g.g g                     ",
"                    . . ! ! j j _ _ ( ( h h 2 2 #.#.q.q.q.q.q.q.U U     2 2 } } ) ) w.w.k.k.S.S.Z.Z.g.g.g g                     ",
"                . . u.u.l.l.C.C.h.h.B.B.V.V.j.j.1 1 q.q.q.q.q.q.* *     . . P P o.o.y y k k e.e.a.a.h.h.r.r.+ +                 ",
"                . . u.u.l.l.C.C.h.h.B.B.V.V.j.j.1 1 q.q.q.q.q.q.* *     . . P P o.o.y y k k e.e.a.a.h.h.r.r.+ +                 ",
"                s s b.b.f.f.l.l.f.f.b.b.n.n.g.g.g g q.q.q.q.<.<.. .     p p o.o.;.;.,.,. . .4 4 p.p.S.S.c.c.+ +                 ",
"                s s b.b.f.f.l.l.f.f.b.b.n.n.g.g.g g q.q.q.q.<.<.. .     p p o.o.;.;.,.,. . .4 4 p.p.S.S.c.c.+ +                 ",
"                ( ( a.a.g.g.n.n.k.k.a.a.k.k.A.A.s s q.q.q.q.Q Q         . . $ $ + + y y P P L L ~ ~ M.M.c.c.X X                 ",
"                ( ( a.a.g.g.n.n.k.k.a.a.k.k.A.A.s s q.q.q.q.Q Q         . . $ $ + + y y P P L P ~ ~ M.M.c.c.X X                 ",
"                N.N.v.v.B.B.S.S.A.A.a.a.v.v.t.t.a a q.q.q.q.M M         $ $ 8.8.q.q.0.0.y y ,.,.: : s.s.{ { X X                 ",
"                N.N.v.v.B.B.S.S.A.A.a.a.v.v.t.t.a a q.q.q.q.M M         $ $ 8.8.q.q.0.0.y y ,.,.: : s.s.{ { X X                 ",
"                ] ] m.m.k.k.V.V.b.b.` ` f f I I 7.7.4.4.q.q.a a     . . <.<.q.q.q.q.*.*.p p ;.;.m m r.r.3 3                     ",
"                ] ] m.m.k.k.V.V.b.b.` _ f f I I 7.7.4.4.q.q.a a     . . <.<.q.q.q.q.*.*.p p ;.;.m m r.r.3 3                     ",
"                    & & h h ~ ~ 5 5 I I y y 3.3.2.2.5.5.0.0.. .     U U q.q.q.q.q.q.$ $  . .;.;.Y Y % % . .                     ",
"                    & & h h ~ ~ 5 5 I I y y 3.3.2.2.5.5.0.0.. .     U U q.q.q.q.q.q.$ $  . .;.;.Y Y % % . .                     ",
"                            . . 8.8.q.q.M M $.$.&.&.3.3...... . . . 1.1.q.q.q.q.W W . . . . . . . .                             ",
"                            . . 8.8.q.q.M M $.$.&.&.3.3...... . . . 1.1.q.q.q.q.W W . . . . . . . .                             ",
"                            . . 6.6.q.q.#.#.N N &.&.$.$.> > . . W W q.q.5.5.6.6.. .                                             ",
"                            . . 6.6.q.q.#.#.N N &.&.$.$.> > . . W W q.q.5.5.6.6.. .                                             ",
"                                T T 3.3.9.9.i i N N + + 5.5.2.2.5.5.5.5.5.5.a a                                                 ",
"                                T T 3.3.9.9.i i N N + + 5.5.2.2.5.5.5.5.5.5.a a                                                 ",
"                                v v &.&.&.&.. . O.O.O.O.O.O.5.5.2.2.O.O.2.2.. .                                                 ",
"                                v v &.&.&.&.. . O.O.O.O.O.O.5.5.2.2.O.O.2.2.. .                                                 ",
"                    * * w w + + O O O.O.c c X X v v 6 6 X X # # 7 7 O.O.= =                                                     ",
"                    * * w w + + O O O.O.c c X X v v 6 6 X X # # 7 7 O.O.= =                                                     ",
"                    o o 8 8 S S q q - - D D t t 0 0 9 9 0 0 ; ; # # V V - -                                                     ",
"                    o o 8 8 S S q q - - D D t t 0 0 9 9 0 0 ; ; # # V V - -                                                     ",
"                o o r r A A J J K K K K K K J J H H e e K K C C Z Z F F - - 8 8 @ @                                             ",
"                o o r r A A J J K K K K K K J J H H e e K K C C Z Z F F - - 8 8 @ @                                             ",
"                    o o 9 9 H H K K K K K K G G C C C C B B w w q q 8 8 8 8 ; ;                                                 ",
"                    o o 9 9 H H K K K K K K G G C C C C B B w w q q 8 8 8 8 ; ;                                                 ",
"                                                                                                                                ",
"                                                                                                                                ",
"                                                                                                                                ",
"                                                                                                                                "
};
