/* XPM */
static char *coinblue71711125452[] = {
/* columns rows colors chars-per-pixel */
"32 32 110 2 ",
"   c None",
".  c black",
"X  c #080000",
"o  c #0A0000",
"O  c #0B0000",
"+  c #0C0600",
"@  c #0B0704",
"#  c #0C0B00",
"$  c #0D0D01",
"%  c #0E0E01",
"&  c #0B0804",
"*  c #0F0C07",
"=  c #04080B",
"-  c #04090C",
";  c #050A0E",
":  c #100D07",
">  c #120D06",
",  c #150C07",
"<  c #170F08",
"1  c #0F1402",
"2  c #0F1602",
"3  c #0F1702",
"4  c #101903",
"5  c #101A03",
"6  c #171108",
"7  c #1A1309",
"8  c #1A150B",
"9  c #1F170B",
"0  c #1E190F",
"q  c #081117",
"w  c #09131A",
"e  c #101110",
"r  c #131513",
"t  c #221609",
"y  c #27190F",
"u  c #2F1F11",
"i  c #3E101C",
"p  c #122103",
"a  c #112304",
"s  c #122705",
"d  c #132804",
"f  c #132B04",
"g  c #132E05",
"h  c #112D07",
"j  c #142E05",
"k  c #152E05",
"l  c #0F3209",
"z  c #123307",
"x  c #163506",
"c  c #173C06",
"v  c #2F2211",
"b  c #272218",
"n  c #3A2715",
"m  c #3A2B15",
"M  c #3C331E",
"N  c #0C1A23",
"B  c #0D1C25",
"V  c #182227",
"C  c #11232F",
"Z  c #373428",
"A  c #272D35",
"S  c #323238",
"D  c #463319",
"F  c #4B361B",
"G  c #523C1E",
"H  c #6D192F",
"J  c #4B3C25",
"K  c #4B3F25",
"L  c #0F4A0F",
"P  c #194207",
"I  c #104B0F",
"U  c #154D0C",
"Y  c #194F0A",
"T  c #12510F",
"R  c #1C5009",
"E  c #1B550B",
"W  c #1D5609",
"Q  c #0E5011",
"!  c #105712",
"~  c #166612",
"^  c #126414",
"/  c #136414",
"(  c #564829",
")  c #5A4C2D",
"_  c #695934",
"`  c #78663C",
"'  c #1E3E52",
"]  c #5C525A",
"[  c #446274",
"{  c gray38",
"}  c #646471",
"|  c #767676",
" . c #7E7E7E",
".. c #826237",
"X. c #942442",
"o. c #C72C55",
"O. c #B85871",
"+. c #8A7C87",
"@. c #658090",
"#. c #909090",
"$. c #96AAB6",
"%. c #D0889B",
"&. c #F09DB3",
"*. c #BEC4E0",
"=. c #EEC8D2",
"-. c #C9C9E4",
";. c #D4CEE7",
":. c #DFD3EA",
">. c #EAD8ED",
",. c #F6DDF1",
/* pixels */
"                                                                ",
"                                                                ",
"                    . w C =.X.X.X.i B .                         ",
"                w i o.i O.O.o.i ,.i i &.i i                     ",
"            . =.%.&.&.%.%.=.&.o.&.%.o.o.=.>.i ;                 ",
"          . X.=.X.S v v ] S S S ] D v b A X.O.%.;               ",
"          = J ] #.#.] ] } } A } ] ] ] #.#.#.$.Z i               ",
"        . { { { { { { } 6 J ` ( 8 } { { { { #.{ ]               ",
"        . ] #.#.] ] ] } * #.#.#.M } ] ] ] #.#.{ F               ",
"            9 #.#.#.#.} v | #.| M } #.#.#.$.] >                 ",
"                    . . * | | { M 8 . .                         ",
"                        M { +.{ _                               ",
"                        M +.{ +.`                               ",
"                        J  .+. .`         . . S ;               ",
"                      . #. . . .`     . C X.%.%.o.X..           ",
"          . H i H H i q #.+. .+.)   q } i X.O.,.:.O.X.          ",
"        . =.=.;.H *.-.%.0 +.+.+.>   . S S v X.&.o.O.%.@         ",
"        %.&.&.i o.O.%.%.C } } } .   ] S } } ] e o.,.=.@         ",
"        X.o.&.%.&.o.O.>.N #.#.`     . * & v ] ] X.%.=.X         ",
"        =.X.=.,.>.o.O.+.M #.#.J     * | #.{ v } 6 %.H X         ",
"        ] H X.=.%.X.B ( #.$.#.M   . +.#.{ | m } G O.w           ",
"          ; C ' r ( u @.@.$.#..   ) { { { * ] } ] = .           ",
"              . | #.' ' [ @.... . +. . ._ . . . .               ",
"              . | #.{ ' ' [ < . $.$.+.+..                       ",
"                ' $.{ n ' @ @.[ @.@.@.$.                        ",
"                S $.$.. ' ' ' @.[ ' [ .                         ",
"          > f X + S S X ' t X $ y ' ,                           ",
"          X p R h 3 E c k s k 4 $ P 3                           ",
"        X x R ~ / / / ~ ! z / I U W 3 a #                       ",
"          O f T / / / Q I I L l h a a 4                         ",
"                                                                ",
"                                                                "
};
