/* XPM */
static char *coinblue11711125451[] = {
/* columns rows colors chars-per-pixel */
"32 32 182 2 ",
"   c None",
".  c black",
"X  c #080000",
"o  c #0A0000",
"O  c #0B0000",
"+  c #0C0600",
"@  c #0B0704",
"#  c #0C0B00",
"$  c #0D0D01",
"%  c #0E0E01",
"&  c #0B0804",
"*  c #0F0C07",
"=  c #04080B",
"-  c #04090C",
";  c #050A0E",
":  c #100D07",
">  c #120D06",
",  c #150C07",
"<  c #170F08",
"1  c #0F1402",
"2  c #0F1602",
"3  c #0F1702",
"4  c #101903",
"5  c #101A03",
"6  c #171108",
"7  c #1A1309",
"8  c #1A150B",
"9  c #1F170B",
"0  c #1E190F",
"q  c #081117",
"w  c #09131A",
"e  c #101110",
"r  c #131513",
"t  c #221609",
"y  c #27190F",
"u  c #2F1F11",
"i  c #122103",
"p  c #112304",
"a  c #122705",
"s  c #132804",
"d  c #132B04",
"f  c #132E05",
"g  c #112D07",
"h  c #142E05",
"j  c #152E05",
"k  c #0F3209",
"l  c #123307",
"z  c #163506",
"x  c #173C06",
"c  c #2F2211",
"v  c #272218",
"b  c #3A2715",
"n  c #3A2B15",
"m  c #3C331E",
"M  c #0C1A23",
"N  c #0D1C25",
"B  c #182227",
"V  c #11232F",
"C  c #122532",
"Z  c #152C3A",
"A  c #152C3B",
"S  c #373428",
"D  c #272D35",
"F  c #323238",
"G  c #432E16",
"H  c #452C18",
"J  c #462F19",
"K  c #463319",
"L  c #4B361B",
"P  c #523C1E",
"I  c #4B3C25",
"U  c #4B3F25",
"Y  c #503D23",
"T  c #5E3F22",
"R  c #0F4A0F",
"E  c #194207",
"W  c #104B0F",
"Q  c #154D0C",
"!  c #194F0A",
"~  c #12510F",
"^  c #1C5009",
"/  c #1B550B",
"(  c #1D5609",
")  c #0E5011",
"_  c #105712",
"`  c #166612",
"'  c #126414",
"]  c #136414",
"[  c #5E4422",
"{  c #5E4522",
"}  c #564829",
"|  c #5A4C2D",
" . c #6A4D26",
".. c #6D4C2A",
"X. c #75512A",
"o. c #76562B",
"O. c #695934",
"+. c #78663C",
"@. c #193546",
"#. c #1E3E52",
"$. c #22475E",
"%. c #344759",
"&. c #264F69",
"*. c #264F6A",
"=. c #385065",
"-. c #2A5875",
";. c #2B5876",
":. c #3C5970",
">. c #5C525A",
",. c #4E5A6B",
"<. c #475E74",
"1. c #646471",
"2. c #7B6E78",
"3. c #815E2F",
"4. c #826237",
"5. c #8D6433",
"6. c #8D6633",
"7. c #8D6733",
"8. c #9B6737",
"9. c #997037",
"0. c #A5783C",
"q. c #C72C55",
"w. c #877343",
"e. c #B17740",
"r. c #B17B40",
"t. c #BD7F45",
"y. c #96804B",
"u. c #B18140",
"i. c #BD8345",
"p. c #BD8445",
"a. c #BD8545",
"s. c #BD8645",
"d. c #BD8745",
"f. c #BD8845",
"g. c #BD8945",
"h. c #BD8A45",
"j. c #A58C52",
"k. c #B4995A",
"l. c #C3884B",
"z. c #C68D4E",
"x. c #CC9754",
"c. c #D09C58",
"v. c #C3A661",
"b. c #D7B166",
"n. c #D2B369",
"m. c #DAB66A",
"M. c #E1C070",
"N. c #F0CD78",
"B. c #2F6181",
"V. c #336A8D",
"C. c #717E95",
"Z. c #717F95",
"A. c #8A7C87",
"S. c #6A839D",
"D. c #7C8498",
"F. c #4085B1",
"G. c #568EB7",
"H. c #7688A1",
"J. c #7A90AD",
"K. c #5092C0",
"L. c #5B97C3",
"P. c #669CC6",
"I. c #779DC1",
"U. c #71A1CA",
"Y. c #7CA6CD",
"T. c #909090",
"R. c #808DA4",
"E. c #899EBC",
"W. c #B8A5B4",
"Q. c #87ABD0",
"!. c #92B0D3",
"~. c #9DB5D7",
"^. c #A4B1CE",
"/. c #A8BADA",
"(. c #C7B3C3",
"). c #BEC4E0",
"_. c #C5C0D8",
"`. c #C9C9E4",
"'. c #D4CEE7",
"]. c #DFD3EA",
"[. c #EAD8ED",
"{. c #F6DDF1",
/* pixels */
"                                                                ",
"                                                                ",
"                    . w C 2.=.&.$.Z N .                         ",
"                w :.q.G.!.!.q.P.{.'.Y.F.-.C                     ",
"            . A./.~.~.~.(.W.S.q.R.E.q.q.'.[.B.;                 ",
"          . &.D.%.F c c P { { [ { K c v D ,.S.J.;               ",
"          = I o.0.g.d.d.h.9.5.9.a.a.h.h.h.9. .S C               ",
"        . 3.h.h.g.d.d.d.> } +.} 8 i.a.a.a.i.a.i.X.              ",
"        . { h.a.a.a.a.a.* T.T.T.m h.a.h.h.h.h.u.L               ",
"            9 K o.6.h.h.c N.T.N.m h.a.r.6. .n >                 ",
"                    . . * N.N.N.m 8 . .                         ",
"                        m N.N.N.O.                              ",
"                        m N.N.N.+.                              ",
"                        I N.N.N.+.        . . F ;               ",
"                      . k.N.N.N.+.    . V B.~.Q.q.@..           ",
"          . @.Z -.&.C q w.N.N.N.|   q 1.=.B.U.{.].L.V           ",
"        . D.Y.'.P.).`.I.0 N.N.N.>   . { 6.c A V.q.P.Z.@         ",
"        M !.K.Y.q.!.~.L.V N.N.j..   n 6.a.h.3.e q.{.W.@         ",
"        &.q.L.~.U.q.U.[.M N.N.+.    . * @ c { [ #./.W.X         ",
"        (.Q.).{.[.q.Q.A.m N.N.I     * n.T.M.c h.6 G.<.X         ",
"        >.^.U.`.!.;.B } b.x.N.m   . j.T.T.y.n a.P Z.w           ",
"          ; C #.r } c z.l.c.M..   | N.N.N.* 3.a. .= .           ",
"              . n.T.I e.t.z.4.. . k.N.N.O.. . . .               ",
"              . v.T.w.T t.e.7 . O.N.c.v..                       ",
"                ..z.m.b T @ c.l.c.c.c.m                         ",
"                J t.t.. 8.8.8.c.l.8.l..                         ",
"          > k @ + 8.G X J t X $ y 8.,                           ",
"          O p ^ g 3 / x d a d 4 $ E 3                           ",
"        O z ! ` ] ] ] ` _ l ] W Q ( 3 p #                       ",
"          O a _ ] ] ] ) W W R k g p p 4                         ",
"                                                                ",
"                                                                "
};
