/* XPM */
static char *exit1321711126603[] = {
/* columns rows colors chars-per-pixel */
"32 32 73 1 ",
"  c None",
". c black",
"X c #030000",
"o c #070000",
"O c #060606",
"+ c #0A0000",
"@ c #0C0C0C",
"# c #100401",
"$ c #160704",
"% c #170905",
"& c #170B07",
"* c #190905",
"= c #1A0A06",
"- c #1B0D05",
"; c #1B0C06",
": c #1D0E06",
"> c #1E0E06",
", c #1B0F08",
"< c #111111",
"1 c #131313",
"2 c #151414",
"3 c #1A1210",
"4 c #1C1313",
"5 c #1C1511",
"6 c #191818",
"7 c #191919",
"8 c #1F1919",
"9 c #210F08",
"0 c #201107",
"q c #231407",
"w c #251309",
"e c #271708",
"r c #261609",
"t c #2C170C",
"y c #2C1B0A",
"u c #2C1D0A",
"i c #2D1E0B",
"p c #301E0B",
"a c #281D17",
"s c #231E1E",
"d c #371F11",
"f c #30200B",
"g c #36260E",
"h c #38240D",
"j c #3A290F",
"k c #3C280F",
"l c #2A201D",
"z c #3C2511",
"x c #272727",
"c c #2D2727",
"v c gray23",
"b c #3D3B3B",
"n c #422715",
"m c #402B10",
"M c #442F11",
"N c #4D2F19",
"B c #483212",
"V c #483312",
"C c #4A3413",
"Z c #4D3614",
"A c #58371D",
"S c #58371E",
"D c #6E4726",
"F c #6F4726",
"G c #7A4F2A",
"H c gray25",
"J c #414040",
"K c #434242",
"L c #464545",
"P c #484747",
"I c gray29",
"U c #4C4C4C",
"Y c gray31",
/* pixels */
"                                ",
"                                ",
"                                ",
"                                ",
"                                ",
"                                ",
"                                ",
"                                ",
"       .<7O..O@..@O..O7<.       ",
"      xIYYILLKbbbKLLYYYYIx      ",
"      <vv62222222222<27vv<      ",
"       xYYYYYYYYYYYYYYYYx       ",
"       KYYYYYYYYYYYYYYYPx       ",
"       KYYYYYYYYYYYYYYYKx       ",
"       IYYYYYYYYYYYYYYYbx       ",
"       IYYYYYYYYYYYYYYYK.       ",
"       IYYYYYYYYYYYYYYPH.       ",
"       IYYYYYYYYYYYYYYHv.       ",
"       KYYYYYYYYYYYYYUJv.       ",
"       KYYYYYYYYYYYYUIbb.       ",
"       xYYYYYYYYYYYYIbJx.       ",
"       <YYYYYYYYYYYIKvx4<       ",
"       .455xYYYYYYLbxx84olu     ",
"     dru44acx54x4x4x8643Me%     ",
"     SyDSNeh&s5dtls,BwS$mzt     ",
"     npDGFnmCi>SD=yBmnFNk-n     ",
"     =renn9kpg0NGrjZmdF0e>=     ",
"      uuu      iu   +#   ui     ",
"                                ",
"                                ",
"                                ",
"                                "
};
