/* XPM */
static char *New_Piskel__1_1710178183[] = {
/* columns rows colors chars-per-pixel */
"128 128 14 1 ",
"  c None",
". c black",
"X c #0B0000",
"o c #36260E",
"O c #2B2828",
"+ c #4D3614",
"@ c gray31",
"# c #916626",
"$ c #BD4545",
"% c #BD7F45",
"& c #01E84F",
"* c #BDAF45",
"= c #45ADBD",
"- c #F6DDF1",
/* pixels */
"                                                                                                                                ",
"                                                                                                                                ",
"                                                                                                                                ",
"                                                                                                                                ",
"                                                                                                                                ",
"                                                                                                                                ",
"                                                                                                                                ",
"                                                                                                                                ",
"                                                                                                                                ",
"                                                                                                                                ",
"                                                                                                                                ",
"                                                                                                                                ",
"                                                                                                                                ",
"                                                                                                                                ",
"                                                                                                                                ",
"                                                                                                                                ",
"                                                                                                                                ",
"                                                                                                                                ",
"                                                                                                                                ",
"                                                                                                                                ",
"                                                                                                                                ",
"                                                                                                                                ",
"                                                                                                                                ",
"                                                                                                                                ",
"                                                                                                                                ",
"                                                                                                                                ",
"                                                                                                                                ",
"                                                                                                                                ",
"                                                                                                                                ",
"                                                                                                                                ",
"                                                                                                                                ",
"                                                        XXX                                                                     ",
"                                                      XXXXXXXXXXXX                                                              ",
"                               ............        XXXXXXXXXXXXXXXXXXX....           ............                               ",
"                            .................XXXXXXXXXXX----XXX--XXXXXXX............................                            ",
"                         ........@@@@@@XXXXXXXXXXXXXXXX------XX---XXXXXXX..............@@@@@@@@........                         ",
"                       ......@@@XXXXXXXXXXXXXXX-XXX---------------XX---XX@@@@@@@@@@@@@@@@@@@@@@@@@@......                       ",
"                       ...@@@@@XXXXXXXXXXXXXX----XX---------------XX---XXXXXXXX@@@@@@@@@@@@@@@@@@@@@@@...                       ",
"                       ..@@@@@@XXX---XX---XXX-------%%-------XXXX------XXXXXXXXX%%%%%@XXXXX@@@@@@@@@@@@..                       ",
"                      ...@@@@@XXXX----------------%%%%%%%---XX--X---XXXXXX---XXX%%%%%%XXXXXX@@@@@@@@@@@...                      ",
"                      ...@@@@XXXXX---------XXXX--%%%%OO%%%%-----X---X---------%%%%O%%%---XXX@@@@@@@@@@@...                      ",
"                       .....@XX-----------------%%%%OOOOO%%-------------------%%%OOO%%----....@@@@@@.....                       ",
"                       ......XX----XXXX.........%%%.................................%%........@@@@.......                       ",
"                           ..XX---XXXXX.........%%..................................%%.....@@@@@@@...                           ",
"                            .XXXXXXXX@@@@@@@@@@%%%@@@@@@@@@@@@@@@@@@@@@@@@@@@@@@@@@@%%@@@@@@@@@@@@..                            ",
"                            .XXXXXXX@@@@@@@@@@@%%@@@@@@@@@@@@@@@@@@@@@@@@@@@@@@@@@@@%%@@@@@@@@@@@@..                            ",
"                            ..@@@@@@@@@@@@@@@@@%%@@@@@@@@@@@@@@@@@@@@@@@@@@@@@@@@@@@%%@@@@@@@@@@@@..                            ",
"                            ..@@@@@@@@@@@@@@@@@%%@@@@@@@@@@@@@@@@@@@@@@@@@@@@@@@@@@@%%@@@@@@@@@@@@..                            ",
"                            ..@@@@@@@@@@@@@@@@%%%@@@@@@@@@@&&@@@@&&@@@@@@@@@@@@@@@@@%%@@@=--@@@@@@..                            ",
"                            ..@@@@@@@####@@@@@%%@@@@@@@@@@@&&@@@@&&&&&&&@@&&@@&&@@@@%%%@@=--==@@@@..                            ",
"                            ..@@@@@==####@@@@%%%@@@@@@@@@@&&&@@@@@&&&&&&&&&&@@&&@@@@%%%%=======@@@..                            ",
"                            ..@@@@@==######@%%%@@@@@@@@@@@&&@@@@@@@@@&&&&&&@@@&&@@@@@%%=====--=@@@..                            ",
"                            ..@@@@====####%%%%%@@@@@@@@@@&&&@@@@@@@@@&&@@@@@@&&&@@@@@@@--===--=@@@..                            ",
"                            ..@@@@===--###%%%%@@@@@@@@@@&&&@@@@@@@@@@&&@@@@@@&&@@@@@@@@--======@@@..                            ",
"                            ..@@@@--=--==#%%%##@@@@@@@@@&&@@@@@@@@@@@&&@@@@@@&&@@@@@@@@========@@@..                            ",
"                            ..@@@@--======#######@@@@@@@&&@@@@@@@@@@@&&@@@@@@@@@@@@@@@========@@@@..                            ",
"                            ..@@@@======--==#####@@@@@@&&&@&&&&@@@@@@&&@@@@@@@@@@@@@@@====--==@@@@..                            ",
"                            ..@@@@===--=--======#@@@@@@&&@&&@@&&@@@@@&&@@@@@@@@@@@@@@@--==--==@@@@..                            ",
"                            ..@@@@@@=--=========@@@@@@&&&@&&@@&&@@@@@&&@@@@@@@&&&&&@@@--=====@@@@@..                            ",
"                            ..@@@@@@@@@=====--=@@@@@@@&&@@&&&&&&@@@@@&&@@@@@@&&&&&&&@@@@==@@@@@@@@..                            ",
"                            ..@@@@@@@@@@====--@@@@@@@@&&@@&&&@@@@@@@@&&@@@@@&&&@@&&&@@@@@@@@@@@@@@..                            ",
"                           ...@@@@@@@@@@@@@@@@@@@@@@@&&&@@&&&&&@@@@@@&&@@@@@&&&@@@@@@@@@@@@@@@@@@@...                           ",
"                           ..@@@@@@@@@@@@@@@@@@@@@@@@&&@@@&&&&&&&@@@@@@@@@@@@&&@@@@@@@@@@@@@@@@@@@@..                           ",
"                           ..@@@@@@@@@@@@@@@@@@@@@@@&&&@@@@@@&&&&@@@@@@@@@@@@&&&&&@@@@@@@@@@@@@@@@@..                           ",
"                           ..@@@@@@@@@@@@@@@@@@@@@@&&&&&&@@@@@@@@@@@@@@@@@@@@@&&&&@@@@@@@@@@@@@@@@@..                           ",
"                           ..@@@@@@@@@@@@@@@@@@@@@@&&&&&&&&&&&&&@@@@@@@@@@@@@@@@&&@@@@@@@@@@@@@@@@@..                           ",
"                          ...@@@@@@@@@@@@@@@@@@@@@@@@@@@&&&&&&&&&&&&&@@@@@@@@@@&&&@@@@@@@@@@@@@@@@@...                          ",
"                          ..@@@@@@@@@@@@@@@@@@@@@@@&&&&&@@@@@@@&&&&&&&&@@&&&&&&&&&@@@@@@@@@@@@@@@@@@..                          ",
"                          ..@@@@@@@@@@@@@@@@@@@&&&&&&&&&@@@@@@@@@@@@&&&@@&&&&&&&@@@@@@@@@@@@@@@@@@@@..                          ",
"                          ..@@@@@@@@@@@@@@@@@@@&&&&&@@@@@@@@@@&&&@@@@@@@@@@@@@@@@@@@@@@@@@@@@@@@@@@@..                          ",
"                          ..@@@@@@@@@@@@@@@@@@@@@@@@@@@@@@@@@@&&&@@@@@@@@@@@@@@@@@@@@@@@@@@@@@@@@@@@..                          ",
"                          ..@@@@@@@@@@@@@@@@@@@&&&@@@@@@@@@@@&&&&@@@@@&&&@@@@@@@@@@@@@@@@@@@@@@@@@@@..                          ",
"                          ..@@@@@@@@@@@@@@@@@@@&&&&@@@@@@@@@&&&&&@@@@@&&&&&&&&&&&&&&&@@@@@@@@@@@@@@@..                          ",
"                          ..@@@@@@@@@@@@@@@@@&&&&&&@@@@@@@@&&&@&&@@@@@@@&&&&&&&&&&&&&@@@@@@@@@@@@@@@..                          ",
"                          ..@@@@@@@@@@@@@@@@@&&&&&@@@@@@@@&&&@@&&@@@@@@@@@&&@@@@@@@@@@@@@@@@@@@@@@@@..                          ",
"                          ..@@@@@@@@@@@@@@@@&&&@@@@@@@@@@&&&@@@&&@@@@@@@@@&&@@@@@@@@@@@@@@@@@@@@@@@@..                          ",
"                          ..@@@@@@@@@@@@@@@@&&&@@@@@@@@@&&&@&&&&&&&@@@@@@@&&@@@@@@@@@@@@@@@@@@@@@@@@..                          ",
"                          ..@@@@@@@@@@@@@@@@&&&&&&&&@@@@&&@&&&&&&&&@@@@@@@&&@@@@@@@@@@@@@@@@@@@@@@@@..                          ",
"                          ..@@@@@@$$@@@@@@@@&&&&&&&&@@@&&&@&&@@&&@@@@@@@@@&&@@@@@@@@@@@@@@@@@@@@@@@@..                          ",
"                          ...@@@@$$$@@@@@@@@@@@@@@@@@@&&&@@@@@@&&@@@@@@@@@&&@@@@@@@@@@@@@@@@@@@@@@@...                          ",
"                           ..@@@@$$$@@@@@@@@@@@@@@@@@@&&@@@@@@@&&@@@@@@@@@&&@@@@@@@@@@@@@@@@@@$$@@@..                           ",
"                           ..@@@$$$$@@@@@@@@@@@@@@@@@@&&@@@@@@@&&@@@@@@@@@&&@@@@@@@@@@@@@@@@@$$$@@@..                           ",
"                           ...@$$$$$$@@@@@@@@@@@@@@@@@@@@@@@@@@@@@@@@@@@@@@@@@@@@@@@@@@@@@@@$$$$@@...                           ",
"                            .$$$$$%$$@@@@@@@@@@@@@@@@@@@@@@@@@@@@@@@@@@@@@@@@@@@@@@@@@@@@@@$$$$$@@..                            ",
"                            .$$$$%%$$@@@@@@@@@@@@@@@@@$$@@@@@@@@@@@@@@@@@@@@@@@@@@@@@@@@@@$$$$$$@@..                            ",
"                            $$$$%%%$$@@@@@@@@@@@@@@@@$$$@@@@@@@@@@@@@@@@@@@@@@@@@@@@@@@@$$$$$%$$@...                            ",
"                            $$$$%%%$$$@@@@@@@@@@@@@@@$$$@@@@@@@@@@@@@@@@@$$$@@@@@@@@@$$$$$$$%%$$...                             ",
"                           $$$$%%%%%$$$@@@@@@@@@@@@@@$$$$@@@@@@@@@@@@@@@$$$$@@@@@@@@$$$$$%%%%%$$..                              ",
"                           $$ %%%**%$$$$@@@@@@@@@@@@$$$$$@@@@@@@@@@@@@@$$$$$@@@@@@@$$$$%%%%%%%$$$.                              ",
"                           $$%%%***%%$$$@@@@@@@@@@@$$$$$$$@@@@@@@@@@@@$$$$$$$@@@@@@$$%%%%%*%%%$$$.                              ",
"                          X$$%%.****%%$$@@@@@@@@@@$$$$%$$$$@@@@@@@@@@$$$$%$$$@@@@@@$$%%%%**%%%%$$XXXXXXX                        ",
"                     XXXXXXXX%%.****%%$$@@@@@@@@@$$$$%%%$$$$@@@@@@@$$$$$%%%$$$@@@@@$$%%*****%%%$$XXXXXXXXXX                     ",
"                    XXXXXXXXXXXXX*****$$@@@@@@@@$$$$%%%%%$$$@@@@@@@$$$$%%%%%$$$@@@@$$%******%%%$$X++++XXXXX                     ",
"                    XXXXXX+++XXXX***XXXXXXXXX@@$$$%%%***%%$$@@@@@@$$$%%%%*%%$$$@@@@@XXXXXXXX%%%.++++++XXXXX                     ",
"                   XXX%%XX+++++++XXXXXXXXXXXXXX$$%%%****%%$$@@@@@@$$%%%%**%%%$$XXXXXXXXXXXXXXX.+++++++XX%XX                     ",
"                   XXX%%XX++++++XXXXXXXX+++XXXX$$%%%****%%$$@@@@@@$$%%%****%%$$XXXXXXXXXXXXXXXX++++++XXXXXXX                    ",
"                   XXXXXXX+++++XXXX%%XXXXXX++XXXX%%%*****%$$XXXXXX$$%%******%%XXX++++XXXXXXXXXXX+++++XXXXXXX                    ",
"                   XXX%%XX+++++XXX%%%%XXXXXX+++XXXXX*****OXXXXXXXXXXXO******%%XX++++XXXXXX%XXXXXX++++XX%%XXX                    ",
"                   XX%%%XX+++++XX%%%%XXX%XXX++++XXXX*****XXXXXXXXX%%XX****XXXXXX++++XXX%%%%%XXXXX++++XX%%XXX                    ",
"                   XX%X%XX++++XXX%XXX%%XX%XXX+++++XXX****XXX%%%%%XXX%X***XXXX+++++++XX%XXX%%%XXXX++++XX%X%XX                    ",
"                   XX%XXXX++++XXXXX%%XX%X%%XX+++++++XXXXXXX%XXXXX%%XXXXXXXX+++++++++XX%X%XX%%XXXX++++XXX%%XX                    ",
"                   XX%%XXX++++XX%X%%X%X%X%XXX++++++++ooooXXXX%%%XX%%XXXXXoooo++++++XXXX%%%%X%X%XX++++XXX%%XX                    ",
"                   XXXXXXX++++XX%X%%X%X%X%XXX++++++++ooooXXX%%XX%X%%%XXoooooo++++++XXXX%%XX%%X%XX++++XXX%XXX                    ",
"                   XX%%XX+++++XX%X%%%%X%X%XX++++++oooooooXXX%%XXXX%%XXXoooooo++++++XX%X%%XX%%XXXX++++XXXXXXX                    ",
"                   XXX%XX+++++XXXXXXXXXXX%XX++++++oooooooXXXX%%%%%%%XXXoooo++++++++XX%X%%XX%XXXXX++++XX%%XX                     ",
"                   XXXXXX+++++XXX%%%%%XX%XXX+++++ooooooooXX%XXX%%XXX%XXooo+++++++++XXXX%%%%%X%XX+++++XXXXXX                     ",
"                    XXXXXXX++++XXX%%%XX%XXXX+++++ooooooooXXX%%XXX%%%XXoooooo+++++++XXXX%%%%X%XXXXXXXXXXXXXX                     ",
"                        XXXXXXXXXXXXXX%XXXXXXXXXXXXXoooooXXXXXXXX%%XXXoooooo++++++++XXXXXXXXXXXXXXXXXXXXXX                      ",
"                          XXXXXXXXXXXXXXXXXXXXXXXXXXXXXXXXXXXXXXXXXXXXXXXXXXXXXXXXXX+XXXXXXXXXXX                                ",
"                             XXXXX XXXXXXXXX          XXXXXXX  XXXXXXXXXXXXXXXXXXXXXXXXXXXXXX                                   ",
"                                                                                  XXXXX                                         ",
"                                                                                                                                ",
"                                                                                                                                ",
"                                                                                                                                ",
"                                                                                                                                ",
"                                                                                                                                ",
"                                                                                                                                ",
"                                                                                                                                ",
"                                                                                                                                ",
"                                                                                                                                ",
"                                                                                                                                ",
"                                                                                                                                ",
"                                                                                                                                ",
"                                                                                                                                ",
"                                                                                                                                ",
"                                                                                                                                ",
"                                                                                                                                ",
"                                                                                                                                "
};
