/* XPM */
static char *exit2321711126603[] = {
/* columns rows colors chars-per-pixel */
"32 32 157 2 ",
"   c None",
".  c black",
"X  c #030000",
"o  c #060606",
"O  c #080000",
"+  c #0A0000",
"@  c #0B0000",
"#  c #100401",
"$  c #160704",
"%  c #170905",
"&  c #190905",
"*  c #1A0A06",
"=  c #1B0D05",
"-  c #1B0C06",
";  c #1D0E06",
":  c #1E0E06",
">  c #1B0F11",
",  c #111111",
"<  c #131313",
"1  c #141313",
"2  c #171313",
"3  c #191919",
"4  c #210F08",
"5  c #201107",
"6  c #231407",
"7  c #251309",
"8  c #271708",
"9  c #261609",
"0  c #2C170C",
"q  c #2C1B0A",
"w  c #2C1D0A",
"e  c #2D1E0B",
"r  c #301E0B",
"t  c #341E0F",
"y  c #271E17",
"u  c #281D17",
"i  c #371E11",
"p  c #371F11",
"a  c #30200B",
"s  c #36260E",
"d  c #38240D",
"f  c #38250D",
"g  c #3A290F",
"h  c #3C280F",
"j  c #2A201D",
"k  c #372211",
"l  c #3C2511",
"z  c #372B11",
"x  c #39291B",
"c  c #272727",
"v  c #2D2727",
"b  c #2E2627",
"n  c #332626",
"m  c #36292D",
"M  c #352A2C",
"N  c #312C2C",
"B  c #342E31",
"V  c #313131",
"C  c #3D3336",
"Z  c #393636",
"A  c #3A3A3A",
"S  c gray23",
"D  c #441717",
"F  c #422015",
"G  c #422715",
"H  c #402B10",
"J  c #432915",
"K  c #4D2F19",
"L  c #483212",
"P  c #483312",
"I  c #4A3413",
"U  c #4F3315",
"Y  c #4D3614",
"T  c #58371D",
"R  c #58371E",
"E  c #452A2A",
"W  c #5F3A20",
"Q  c #5A3E20",
"!  c #45373C",
"~  c #513333",
"^  c #51441B",
"/  c #5C4536",
"(  c #524439",
")  c #6E4726",
"_  c #6F4726",
"`  c #7A4F2A",
"'  c gray25",
"]  c #4E444B",
"[  c gray29",
"{  c gray31",
"}  c #514F4F",
"|  c #5C4D4D",
" . c #575149",
".. c #53504C",
"X. c #55524E",
"o. c #5C5B5B",
"O. c #6A4C4C",
"+. c #714B4B",
"@. c #784B4B",
"#. c #7F4A4A",
"$. c #635541",
"%. c #6C574D",
"&. c #6A5B4C",
"*. c #715E4B",
"=. c #63525A",
"-. c #726745",
";. c #4B6C71",
":. c #6C6069",
">. c #786568",
",. c #7B6E78",
"<. c #7F6E78",
"1. c #617277",
"2. c gray44",
"3. c #99443D",
"4. c #985A36",
"5. c #85782F",
"6. c #90693B",
"7. c #877131",
"8. c #934848",
"9. c #9A4848",
"0. c #A84646",
"q. c #B14440",
"w. c #B64945",
"e. c #AF5146",
"r. c #BD5345",
"t. c #BD5745",
"y. c #BD5E45",
"u. c #86674A",
"i. c #9D6C42",
"p. c #936D48",
"a. c #99754E",
"s. c #937C4D",
"d. c #9C765E",
"f. c #BD6245",
"g. c #BD6945",
"h. c #BD6C45",
"j. c #BD7045",
"k. c #BD7345",
"l. c #806E78",
"z. c #BD9145",
"x. c #BD9445",
"c. c #B1A440",
"v. c #BDA045",
"b. c #BDA645",
"n. c #8E7C87",
"m. c #5E95A1",
"M. c #72ADBC",
"N. c #808080",
"B. c #9D8A96",
"V. c #A58C90",
"C. c #AC97A5",
"Z. c #E0B9B0",
"A. c #E3CDD9",
"S. c #F2D7E6",
"D. c #F6DCEA",
"F. c gray97",
"G. c white",
/* pixels */
"          S.S.                                                  ",
"      G.  S.A.                    G.                            ",
"                      S.S.    S.G.                  F.D.        ",
"            G.        A.S.S.        S.              A.          ",
"            S.G.G.      F.F.    S.S.        D.A.D.F.            ",
"              A.S.S.      A.S.  A.S.        D.F.G.A.            ",
"                A.F.S.                    S.D.D.A.              ",
"                            V.V.          V.V.                  ",
"              . , 1 X . @ > l.m V.@ . >.V.o 3 , .               ",
"            c Z ! =.=.C.V.Z.S.C.B.n.m v u.( N { [ c             ",
"            , C C.<.:.] i.y / ,.{ { ,.%.x d.B S S ,             ",
"              2 v [ } &.*.{ { { { { { { } u.{ { c               ",
"              c S.-.$.p.X.{ { { { { { { { a.M.S.c               ",
"              c M.S.s.6...{ { { { { { { { 1.S.m.c               ",
"              c M.M.m.S. .{ { { { { { { { S.M.;.c               ",
"              V { m.M.M.{ { { { { { { { { { { { V               ",
"              ' { { { { { { { { { { { { { { { { S               ",
"              { { { { { { { { { { { { { { { { { S               ",
"              o.2.o.{ { { { { { { { { { { { ..S 2.              ",
"              N.+.2.{ { { o.{ { ........} { } 2.[               ",
"              ~ w.| 2.{ o.2.o.o.{ o.2.o.o.2.2.0.V               ",
"              q.j.#.2.o.N.9.2.o.%.m.@.2.<.#.e.t.,               ",
"              4.b.t.N.2.@.r.8.2.>.8.r.O.%.h.x.h.D j q           ",
"          p 6 r ^ p u E f.v.y.N.8.k.z.3.n k z R U 8 %           ",
"          R q d R K 7 d t c.Q p F 7.5.J L 7 R $ H l 0           ",
"          G e e ` ) G H I e : R ) = e L H G ) K h = G           ",
"          * 8 8 G G 4 h a s 5 K ` 8 g Y H p ) 4 8 : *           ",
"            e e e             e e       @ #       e e           ",
"                                                                ",
"                                                                ",
"                                                                ",
"                                                                "
};
