/* XPM */
static char *New_Piskel__1_1711121469[] = {
/* columns rows colors chars-per-pixel */
"128 128 6 1 ",
"  c #103811",
". c #3E3C38",
"X c #2C522D",
"o c #527447",
"O c #555A61",
"+ c #63686F",
/* pixels */
"++++OOOO++++OOOO++++++++++++XXXXoooooooo....................OOOO++++++++++++++++++++OOOOoooo++++++++OOOO....OOOO    ++++++++++++",
"++++OOOO++++OOOO++++++++++++XXXXoooooooo....................OOOO++++++++++++++++++++OOOOoooo++++++++OOOO....OOOO    ++++++++++++",
"++++OOOO++++OOOO++++++++++++XXXXoooooooo....................OOOO++++++++++++++++++++OOOOoooo++++++++OOOO....OOOO    ++++++++++++",
"++++OOOO++++OOOO++++++++++++XXXXoooooooo....................OOOO++++++++++++++++++++OOOOoooo++++++++OOOO....OOOO    ++++++++++++",
"++++++++OOOO++++++++++++XXXXOOOOXXXX    ooooOOOOOOOOOOOO....OOOOOOOOOOOO++++OOOOOOOOXXXXOOOO++++OOOOOOOO....OOOOooooOOOOOOOO++++",
"++++++++OOOO++++++++++++XXXXOOOOXXXX    ooooOOOOOOOOOOOO....OOOOOOOOOOOO++++OOOOOOOOXXXXOOOO++++OOOOOOOO....OOOOooooOOOOOOOO++++",
"++++++++OOOO++++++++++++XXXXOOOOXXXX    ooooOOOOOOOOOOOO....OOOOOOOOOOOO++++OOOOOOOOXXXXOOOO++++OOOOOOOO....OOOOooooOOOOOOOO++++",
"++++++++OOOO++++++++++++XXXXOOOOXXXX    ooooOOOOOOOOOOOO....OOOOOOOOOOOO++++OOOOOOOOXXXXOOOO++++OOOOOOOO....OOOOooooOOOOOOOO++++",
"++++++++OOOO++++++++OOOOOOOOXXXXoooo....OOOOOOOO++++OOOOOOOO............OOOO    ooooOOOO++++++++++++OOOO    ooooXXXXOOOO++++++++",
"++++++++OOOO++++++++OOOOOOOOXXXXoooo....OOOOOOOO++++OOOOOOOO............OOOO    ooooOOOO++++++++++++OOOO    ooooXXXXOOOO++++++++",
"++++++++OOOO++++++++OOOOOOOOXXXXoooo....OOOOOOOO++++OOOOOOOO............OOOO    ooooOOOO++++++++++++OOOO    ooooXXXXOOOO++++++++",
"++++++++OOOO++++++++OOOOOOOOXXXXoooo....OOOOOOOO++++OOOOOOOO............OOOO    ooooOOOO++++++++++++OOOO    ooooXXXXOOOO++++++++",
"++++++++++++++++OOOOXXXXXXXXOOOO    ooooOOOO++++++++OOOOOOOOOOOOOOOO........oooooooooooo++++OOOO++++OOOO....OOOO++++XXXX++++++++",
"++++++++++++++++OOOOXXXXXXXXOOOO    ooooOOOO++++++++OOOOOOOOOOOOOOOO........oooooooooooo++++OOOO++++OOOO....OOOO++++XXXX++++++++",
"++++++++++++++++OOOOXXXXXXXXOOOO    ooooOOOO++++++++OOOOOOOOOOOOOOOO........oooooooooooo++++OOOO++++OOOO....OOOO++++XXXX++++++++",
"++++++++++++++++OOOOXXXXXXXXOOOO    ooooOOOO++++++++OOOOOOOOOOOOOOOO........oooooooooooo++++OOOO++++OOOO....OOOO++++XXXX++++++++",
"OOOO++++++++++++++++OOOOXXXXoooo....    OOOO++++OOOO++++++++++++++++OOOO....ooooXXXX++++OOOO++++OOOO........XXXXOOOO++++OOOO++++",
"OOOO++++++++++++++++OOOOXXXXoooo....    OOOO++++OOOO++++++++++++++++OOOO....ooooXXXX++++OOOO++++OOOO........XXXXOOOO++++OOOO++++",
"OOOO++++++++++++++++OOOOXXXXoooo....    OOOO++++OOOO++++++++++++++++OOOO....ooooXXXX++++OOOO++++OOOO........XXXXOOOO++++OOOO++++",
"OOOO++++++++++++++++OOOOXXXXoooo....    OOOO++++OOOO++++++++++++++++OOOO....ooooXXXX++++OOOO++++OOOO........XXXXOOOO++++OOOO++++",
"....OOOO++++XXXX++++++++OOOO    ....OOOO++++OOOO++++++++++++++++OOOO    ....OOOOooooOOOOOOOOOOOO........ooooXXXX++++++++++++++++",
"....OOOO++++XXXX++++++++OOOO    ....OOOO++++OOOO++++++++++++++++OOOO    ....OOOOooooOOOOOOOOOOOO........ooooXXXX++++++++++++++++",
"....OOOO++++XXXX++++++++OOOO    ....OOOO++++OOOO++++++++++++++++OOOO    ....OOOOooooOOOOOOOOOOOO........ooooXXXX++++++++++++++++",
"....OOOO++++XXXX++++++++OOOO    ....OOOO++++OOOO++++++++++++++++OOOO    ....OOOOooooOOOOOOOOOOOO........ooooXXXX++++++++++++++++",
"OOOO....oooo....OOOO++++++++OOOOooooOOOO++++++++++++++++++++OOOO++++OOOO....ooooOOOOOOOO............XXXXooooOOOOOOOOOOOO++++OOOO",
"OOOO....oooo....OOOO++++++++OOOOooooOOOO++++++++++++++++++++OOOO++++OOOO....ooooOOOOOOOO............XXXXooooOOOOOOOOOOOO++++OOOO",
"OOOO....oooo....OOOO++++++++OOOOooooOOOO++++++++++++++++++++OOOO++++OOOO....ooooOOOOOOOO............XXXXooooOOOOOOOOOOOO++++OOOO",
"OOOO....oooo....OOOO++++++++OOOOooooOOOO++++++++++++++++++++OOOO++++OOOO....ooooOOOOOOOO............XXXXooooOOOOOOOOOOOO++++OOOO",
"++++OOOOoooo........OOOOOOOO        ooooOOOO++++OOOO++++++++++++++++OOOO................oooooooo....    XXXXooooooooOOOOOOOO++++",
"++++OOOOoooo........OOOOOOOO        ooooOOOO++++OOOO++++++++++++++++OOOO................oooooooo....    XXXXooooooooOOOOOOOO++++",
"++++OOOOoooo........OOOOOOOO        ooooOOOO++++OOOO++++++++++++++++OOOO................oooooooo....    XXXXooooooooOOOOOOOO++++",
"++++OOOOoooo........OOOOOOOO        ooooOOOO++++OOOO++++++++++++++++OOOO................oooooooo....    XXXXooooooooOOOOOOOO++++",
"++++OOOO    oooo    ............ooooOOOOOOOOOOOOXXXXOOOOOOOO++++OOOO....    OOOOOOOOOOOOOOOOXXXX    ................OOOOOOOOOOOO",
"++++OOOO    oooo    ............ooooOOOOOOOOOOOOXXXXOOOOOOOO++++OOOO....    OOOOOOOOOOOOOOOOXXXX    ................OOOOOOOOOOOO",
"++++OOOO    oooo    ............ooooOOOOOOOOOOOOXXXXOOOOOOOO++++OOOO....    OOOOOOOOOOOOOOOOXXXX    ................OOOOOOOOOOOO",
"++++OOOO    oooo    ............ooooOOOOOOOOOOOOXXXXOOOOOOOO++++OOOO....    OOOOOOOOOOOOOOOOXXXX    ................OOOOOOOOOOOO",
"++++++++OOOOOOOOooooOOOO................OOOO............XXXXOOOOOOOO....OOOOOOOO++++ooooOOOOXXXXXXXXXXXXoooooooo    ............",
"++++++++OOOOOOOOooooOOOO................OOOO............XXXXOOOOOOOO....OOOOOOOO++++ooooOOOOXXXXXXXXXXXXoooooooo    ............",
"++++++++OOOOOOOOooooOOOO................OOOO............XXXXOOOOOOOO....OOOOOOOO++++ooooOOOOXXXXXXXXXXXXoooooooo    ............",
"++++++++OOOOOOOOooooOOOO................OOOO............XXXXOOOOOOOO....OOOOOOOO++++ooooOOOOXXXXXXXXXXXXoooooooo    ............",
"++++OOOO++++OOOO    OOOO....OOOOOOOOOOOOOOOOOOOOOOOO........OOOO........OOOO++++OOOOOOOOOOOOOOOOoooo++++ooooXXXXOOOOOOOOOOOOOOOO",
"++++OOOO++++OOOO    OOOO....OOOOOOOOOOOOOOOOOOOOOOOO........OOOO........OOOO++++OOOOOOOOOOOOOOOOoooo++++ooooXXXXOOOOOOOOOOOOOOOO",
"++++OOOO++++OOOO    OOOO....OOOOOOOOOOOOOOOOOOOOOOOO........OOOO........OOOO++++OOOOOOOOOOOOOOOOoooo++++ooooXXXXOOOOOOOOOOOOOOOO",
"++++OOOO++++OOOO    OOOO....OOOOOOOOOOOOOOOOOOOOOOOO........OOOO........OOOO++++OOOOOOOOOOOOOOOOoooo++++ooooXXXXOOOOOOOOOOOOOOOO",
"++++++++++++++++OOOO....OOOO++++++++++++OOOOOOOOOOOOOOOO............OOOO++++OOOO++++++++++++OOOOXXXX++++++++XXXXOOOO....OOOO++++",
"++++++++++++++++OOOO....OOOO++++++++++++OOOOOOOOOOOOOOOO............OOOO++++OOOO++++++++++++OOOOXXXX++++++++XXXXOOOO....OOOO++++",
"++++++++++++++++OOOO....OOOO++++++++++++OOOOOOOOOOOOOOOO............OOOO++++OOOO++++++++++++OOOOXXXX++++++++XXXXOOOO....OOOO++++",
"++++++++++++++++OOOO....OOOO++++++++++++OOOOOOOOOOOOOOOO............OOOO++++OOOO++++++++++++OOOOXXXX++++++++XXXXOOOO....OOOO++++",
"++++++++++++OOOO........OOOO++++OOOO++++++++++++++++OOOOOOOO....    ++++OOOO++++++++++++OOOO++++OOOOoooo++++++++OOOOOOOOOOOO++++",
"++++++++++++OOOO........OOOO++++OOOO++++++++++++++++OOOOOOOO....    ++++OOOO++++++++++++OOOO++++OOOOoooo++++++++OOOOOOOOOOOO++++",
"++++++++++++OOOO........OOOO++++OOOO++++++++++++++++OOOOOOOO....    ++++OOOO++++++++++++OOOO++++OOOOoooo++++++++OOOOOOOOOOOO++++",
"++++++++++++OOOO........OOOO++++OOOO++++++++++++++++OOOOOOOO....    ++++OOOO++++++++++++OOOO++++OOOOoooo++++++++OOOOOOOOOOOO++++",
"++++++++++++OOOO....OOOOOOOO++++++++++++OOOOOOOOOOOOOOOO    ....    OOOO++++++++++++++++++++++++++++++++++++OOOO....OOOO++++++++",
"++++++++++++OOOO....OOOOOOOO++++++++++++OOOOOOOOOOOOOOOO    ....    OOOO++++++++++++++++++++++++++++++++++++OOOO....OOOO++++++++",
"++++++++++++OOOO....OOOOOOOO++++++++++++OOOOOOOOOOOOOOOO    ....    OOOO++++++++++++++++++++++++++++++++++++OOOO....OOOO++++++++",
"++++++++++++OOOO....OOOOOOOO++++++++++++OOOOOOOOOOOOOOOO    ....    OOOO++++++++++++++++++++++++++++++++++++OOOO....OOOO++++++++",
"OOOO++++++++OOOOOOOOOOOO++++++++++++OOOOooooOOOOooooOOOO....oooo....++++OOOO++++++++++++++++OOOO++++++++OOOOOOOO....OOOO++++OOOO",
"OOOO++++++++OOOOOOOOOOOO++++++++++++OOOOooooOOOOooooOOOO....oooo....++++OOOO++++++++++++++++OOOO++++++++OOOOOOOO....OOOO++++OOOO",
"OOOO++++++++OOOOOOOOOOOO++++++++++++OOOOooooOOOOooooOOOO....oooo....++++OOOO++++++++++++++++OOOO++++++++OOOOOOOO....OOOO++++OOOO",
"OOOO++++++++OOOOOOOOOOOO++++++++++++OOOOooooOOOOooooOOOO....oooo....++++OOOO++++++++++++++++OOOO++++++++OOOOOOOO....OOOO++++OOOO",
"++++OOOO++++OOOO....OOOO++++++++++++++++OOOOOOOOOOOOOOOOooooXXXXOOOOOOOO++++++++++++++++OOOO++++++++OOOO++++....OOOO++++++++++++",
"++++OOOO++++OOOO....OOOO++++++++++++++++OOOOOOOOOOOOOOOOooooXXXXOOOOOOOO++++++++++++++++OOOO++++++++OOOO++++....OOOO++++++++++++",
"++++OOOO++++OOOO....OOOO++++++++++++++++OOOOOOOOOOOOOOOOooooXXXXOOOOOOOO++++++++++++++++OOOO++++++++OOOO++++....OOOO++++++++++++",
"++++OOOO++++OOOO....OOOO++++++++++++++++OOOOOOOOOOOOOOOOooooXXXXOOOOOOOO++++++++++++++++OOOO++++++++OOOO++++....OOOO++++++++++++",
"++++++++++++OOOO....OOOOOOOOOOOO++++++++++++ooooOOOO        oooo........OOOOOOOO++++++++++++++++OOOO++++....OOOOOOOOOOOO++++OOOO",
"++++++++++++OOOO....OOOOOOOOOOOO++++++++++++ooooOOOO        oooo........OOOOOOOO++++++++++++++++OOOO++++....OOOOOOOOOOOO++++OOOO",
"++++++++++++OOOO....OOOOOOOOOOOO++++++++++++ooooOOOO        oooo........OOOOOOOO++++++++++++++++OOOO++++....OOOOOOOOOOOO++++OOOO",
"++++++++++++OOOO....OOOOOOOOOOOO++++++++++++ooooOOOO        oooo........OOOOOOOO++++++++++++++++OOOO++++....OOOOOOOOOOOO++++OOOO",
"++++OOOOOOOOOOOO........OOOOOOOO++++++++++++OOOOOOOO    ++++OOOOOOOO........XXXXOOOO++++++++OOOOOOOO........OOOO++++++++++++OOOO",
"++++OOOOOOOOOOOO........OOOOOOOO++++++++++++OOOOOOOO    ++++OOOOOOOO........XXXXOOOO++++++++OOOOOOOO........OOOO++++++++++++OOOO",
"++++OOOOOOOOOOOO........OOOOOOOO++++++++++++OOOOOOOO    ++++OOOOOOOO........XXXXOOOO++++++++OOOOOOOO........OOOO++++++++++++OOOO",
"++++OOOOOOOOOOOO........OOOOOOOO++++++++++++OOOOOOOO    ++++OOOOOOOO........XXXXOOOO++++++++OOOOOOOO........OOOO++++++++++++OOOO",
"OOOOOOOO............OOOO....OOOOOOOOOOOOOOOOOOOOXXXXXXXX++++++++OOOO++++........OOOOOOOOOOOO++++OOOOOOOOOOOO++++++++ooooOOOOXXXX",
"OOOOOOOO............OOOO....OOOOOOOOOOOOOOOOOOOOXXXXXXXX++++++++OOOO++++........OOOOOOOOOOOO++++OOOOOOOOOOOO++++++++ooooOOOOXXXX",
"OOOOOOOO............OOOO....OOOOOOOOOOOOOOOOOOOOXXXXXXXX++++++++OOOO++++........OOOOOOOOOOOO++++OOOOOOOOOOOO++++++++ooooOOOOXXXX",
"OOOOOOOO............OOOO....OOOOOOOOOOOOOOOOOOOOXXXXXXXX++++++++OOOO++++........OOOOOOOOOOOO++++OOOOOOOOOOOO++++++++ooooOOOOXXXX",
"OOOOOOOO....OOOOOOOOOOOOOOOO........OOOOOOOOooooXXXX    ++++oooo++++++++++++........XXXXOOOOOOOO........OOOOooooOOOOOOOOXXXXOOOO",
"OOOOOOOO....OOOOOOOOOOOOOOOO........OOOOOOOOooooXXXX    ++++oooo++++++++++++........XXXXOOOOOOOO........OOOOooooOOOOOOOOXXXXOOOO",
"OOOOOOOO....OOOOOOOOOOOOOOOO........OOOOOOOOooooXXXX    ++++oooo++++++++++++........XXXXOOOOOOOO........OOOOooooOOOOOOOOXXXXOOOO",
"OOOOOOOO....OOOOOOOOOOOOOOOO........OOOOOOOOooooXXXX    ++++oooo++++++++++++........XXXXOOOOOOOO........OOOOooooOOOOOOOOXXXXOOOO",
"....OOOOOOOOOOOO++++++++++++OOOOOOOO........ooooXXXXXXXXOOOO++++++++++++++++++++OOOO........    ............    OOOO    OOOO++++",
"....OOOOOOOOOOOO++++++++++++OOOOOOOO........ooooXXXXXXXXOOOO++++++++++++++++++++OOOO........    ............    OOOO    OOOO++++",
"....OOOOOOOOOOOO++++++++++++OOOOOOOO........ooooXXXXXXXXOOOO++++++++++++++++++++OOOO........    ............    OOOO    OOOO++++",
"....OOOOOOOOOOOO++++++++++++OOOOOOOO........ooooXXXXXXXXOOOO++++++++++++++++++++OOOO........    ............    OOOO    OOOO++++",
"....++++++++++++++++++++OOOOOOOOooooOOOOooooXXXX    OOOO++++OOOO++++++++++++OOOO....++++OOOOOOOO++++oooo    ....ooooOOOOXXXXOOOO",
"....++++++++++++++++++++OOOOOOOOooooOOOOooooXXXX    OOOO++++OOOO++++++++++++OOOO....++++OOOOOOOO++++oooo    ....ooooOOOOXXXXOOOO",
"....++++++++++++++++++++OOOOOOOOooooOOOOooooXXXX    OOOO++++OOOO++++++++++++OOOO....++++OOOOOOOO++++oooo    ....ooooOOOOXXXXOOOO",
"....++++++++++++++++++++OOOOOOOOooooOOOOooooXXXX    OOOO++++OOOO++++++++++++OOOO....++++OOOOOOOO++++oooo    ....ooooOOOOXXXXOOOO",
"XXXXXXXXoooo++++++++++++OOOOOOOO++++OOOOoooooooo++++++++++++++++OOOO++++++++++++....OOOO++++++++OOOO++++oooo....XXXXooooOOOO++++",
"XXXXXXXXoooo++++++++++++OOOOOOOO++++OOOOoooooooo++++++++++++++++OOOO++++++++++++....OOOO++++++++OOOO++++oooo....XXXXooooOOOO++++",
"XXXXXXXXoooo++++++++++++OOOOOOOO++++OOOOoooooooo++++++++++++++++OOOO++++++++++++....OOOO++++++++OOOO++++oooo....XXXXooooOOOO++++",
"XXXXXXXXoooo++++++++++++OOOOOOOO++++OOOOoooooooo++++++++++++++++OOOO++++++++++++....OOOO++++++++OOOO++++oooo....XXXXooooOOOO++++",
"XXXXoooooooo++++OOOO++++++++OOOOOOOOOOOOXXXXoooo++++oooo++++++++++++++++    ++++OOOO++++OOOO++++++++++++OOOO....XXXXOOOO++++++++",
"XXXXoooooooo++++OOOO++++++++OOOOOOOOOOOOXXXXoooo++++oooo++++++++++++++++    ++++OOOO++++OOOO++++++++++++OOOO....XXXXOOOO++++++++",
"XXXXoooooooo++++OOOO++++++++OOOOOOOOOOOOXXXXoooo++++oooo++++++++++++++++    ++++OOOO++++OOOO++++++++++++OOOO....XXXXOOOO++++++++",
"XXXXoooooooo++++OOOO++++++++OOOOOOOOOOOOXXXXoooo++++oooo++++++++++++++++    ++++OOOO++++OOOO++++++++++++OOOO....XXXXOOOO++++++++",
"ooooXXXXOOOOOOOO++++OOOO++++++++++++OOOO....OOOO++++++++++++++++++++++++++++oooo....++++++++++++++++++++OOOOoooo....OOOOOOOOOOOO",
"ooooXXXXOOOOOOOO++++OOOO++++++++++++OOOO....OOOO++++++++++++++++++++++++++++oooo....++++++++++++++++++++OOOOoooo....OOOOOOOOOOOO",
"ooooXXXXOOOOOOOO++++OOOO++++++++++++OOOO....OOOO++++++++++++++++++++++++++++oooo....++++++++++++++++++++OOOOoooo....OOOOOOOOOOOO",
"ooooXXXXOOOOOOOO++++OOOO++++++++++++OOOO....OOOO++++++++++++++++++++++++++++oooo....++++++++++++++++++++OOOOoooo....OOOOOOOOOOOO",
"XXXX    XXXXOOOOOOOO++++++++++++++++OOOO....OOOO++++++++++++++++++++++++++++    ....OOOO++++++++++++OOOOXXXX............OOOO....",
"XXXX    XXXXOOOOOOOO++++++++++++++++OOOO....OOOO++++++++++++++++++++++++++++    ....OOOO++++++++++++OOOOXXXX............OOOO....",
"XXXX    XXXXOOOOOOOO++++++++++++++++OOOO....OOOO++++++++++++++++++++++++++++    ....OOOO++++++++++++OOOOXXXX............OOOO....",
"XXXX    XXXXOOOOOOOO++++++++++++++++OOOO....OOOO++++++++++++++++++++++++++++    ....OOOO++++++++++++OOOOXXXX............OOOO....",
"        ooooXXXXOOOOOOOOOOOO++++++++OOOO........OOOOOOOOOOOO++++++++++++........    oooo++++++++OOOOXXXXoooo........XXXX++++OOOO",
"        ooooXXXXOOOOOOOOOOOO++++++++OOOO........OOOOOOOOOOOO++++++++++++........    oooo++++++++OOOOXXXXoooo........XXXX++++OOOO",
"        ooooXXXXOOOOOOOOOOOO++++++++OOOO........OOOOOOOOOOOO++++++++++++........    oooo++++++++OOOOXXXXoooo........XXXX++++OOOO",
"        ooooXXXXOOOOOOOOOOOO++++++++OOOO........OOOOOOOOOOOO++++++++++++........    oooo++++++++OOOOXXXXoooo........XXXX++++OOOO",
"XXXXoooooooooooo........OOOO++++++++++++........OOOO................ooooooooOOOOoooo++++OOOO++++++++OOOOoooooooo....OOOOOOOO++++",
"XXXXoooooooooooo........OOOO++++++++++++........OOOO................ooooooooOOOOoooo++++OOOO++++++++OOOOoooooooo....OOOOOOOO++++",
"XXXXoooooooooooo........OOOO++++++++++++........OOOO................ooooooooOOOOoooo++++OOOO++++++++OOOOoooooooo....OOOOOOOO++++",
"XXXXoooooooooooo........OOOO++++++++++++........OOOO................ooooooooOOOOoooo++++OOOO++++++++OOOOoooooooo....OOOOOOOO++++",
"++++++++ooooXXXXOOOO....OOOO++++++++OOOO....OOOOOOOOOOOOOOOOOOOOoooooooo    ooooOOOO++++++++++++++++++++OOOO    ....XXXX++++OOOO",
"++++++++ooooXXXXOOOO....OOOO++++++++OOOO....OOOOOOOOOOOOOOOOOOOOoooooooo    ooooOOOO++++++++++++++++++++OOOO    ....XXXX++++OOOO",
"++++++++ooooXXXXOOOO....OOOO++++++++OOOO....OOOOOOOOOOOOOOOOOOOOoooooooo    ooooOOOO++++++++++++++++++++OOOO    ....XXXX++++OOOO",
"++++++++ooooXXXXOOOO....OOOO++++++++OOOO....OOOOOOOOOOOOOOOOOOOOoooooooo    ooooOOOO++++++++++++++++++++OOOO    ....XXXX++++OOOO",
"++++++++++++++++OOOO........OOOOOOOO........OOOO++++++++++++OOOO++++oooo            ++++OOOO++++XXXX++++oooooooo....oooooooo++++",
"++++++++++++++++OOOO........OOOOOOOO........OOOO++++++++++++OOOO++++oooo            ++++OOOO++++XXXX++++oooooooo....oooooooo++++",
"++++++++++++++++OOOO........OOOOOOOO........OOOO++++++++++++OOOO++++oooo            ++++OOOO++++XXXX++++oooooooo....oooooooo++++",
"++++++++++++++++OOOO........OOOOOOOO........OOOO++++++++++++OOOO++++oooo            ++++OOOO++++XXXX++++oooooooo....oooooooo++++",
"OOOO++++++++++++++++OOOO................OOOO++++++++++++++++++++OOOOXXXXXXXXoooo    ++++++++OOOO....XXXX........    XXXX++++OOOO",
"OOOO++++++++++++++++OOOO................OOOO++++++++++++++++++++OOOOXXXXXXXXoooo    ++++++++OOOO....XXXX........    XXXX++++OOOO",
"OOOO++++++++++++++++OOOO................OOOO++++++++++++++++++++OOOOXXXXXXXXoooo    ++++++++OOOO....XXXX........    XXXX++++OOOO",
"OOOO++++++++++++++++OOOO................OOOO++++++++++++++++++++OOOOXXXXXXXXoooo    ++++++++OOOO....XXXX........    XXXX++++OOOO",
"OOOOOOOO++++++++ooooOOOO....OOOOOOOOOOOO++++++++++++OOOO++++++++XXXXXXXXoooooooooooo....++++OOOO....XXXX    XXXXooooXXXXoooo++++",
"OOOOOOOO++++++++ooooOOOO....OOOOOOOOOOOO++++++++++++OOOO++++++++XXXXXXXXoooooooooooo....++++OOOO....XXXX    XXXXooooXXXXoooo++++",
"OOOOOOOO++++++++ooooOOOO....OOOOOOOOOOOO++++++++++++OOOO++++++++XXXXXXXXoooooooooooo....++++OOOO....XXXX    XXXXooooXXXXoooo++++",
"OOOOOOOO++++++++ooooOOOO....OOOOOOOOOOOO++++++++++++OOOO++++++++XXXXXXXXoooooooooooo....++++OOOO....XXXX    XXXXooooXXXXoooo++++"
};
