/* XPM */
static char *New_Piskel_copy_31710178184[] = {
/* columns rows colors chars-per-pixel */
"128 128 3 1 ",
"  c #1A4D14",
". c gray31",
"X c #F6DDF1",
/* pixels */
"                                                                                                                                ",
"                                                                                                                                ",
"                                                                                                                                ",
"                                                                                                                                ",
"                                                                                                                                ",
"                                                                                                                                ",
"                                                                                                                                ",
"                                                                                                                                ",
"                                                                                                                                ",
"                                                                                                                                ",
"                                                                                                                                ",
"                                                                                                                                ",
"                                                                     . .                  .                                     ",
"                                                  .                                      . .                                    ",
"                                                                           .                                                    ",
"                                             .  .                    ...                                                        ",
"                                           .   ..  .    ..          .......    .     ..    ..                                   ",
"                                          .   ......  .        .   ............   . ..  ...  .                                  ",
"                                    ..   .  . .....  .           ............... .    .....  .                                  ",
"                                    .      . ......   ..  ...XXXXXX.............  . ......... .                                 ",
"                                     .    . ............   ..XXXXXXX.............  .......... .                                 ",
"                                      .   . ..............  XXX..XXX.............. .......... ..                                ",
"                                     ..  . ...............  XX................................ .                                ",
"                                    .     .................................................... .                                ",
"                                      ..  ....................................................                                  ",
"                                     .........................................................                                  ",
"                                     .........................................................                                  ",
"                                       .......................XXXX............................                                  ",
"                                      .........................XXX............................                                  ",
"                                    . .......................XXXXXXX..........................                                  ",
"                                      .......................XXXXXXX......................... ..                                ",
"                                      .......................XXXXXXX......................... .                                 ",
"                  . ..   ....        ........................XXXXXXX.........................    ..            .                ",
"                 . ...   .... ... ...........................XXXXXXX........................   .         .. ...                 ",
"                   ..    ....................................XXXXXXX......................... ...   ........                    ",
"                . ..  . .....................................XXXXXXX............................................                ",
"                  .  .. ..............................  .....XXXXXXX.............................................               ",
"                       ...............................    ...XXXXXXX............................................. .             ",
"                 . .  ................................    . .XXX.XXX............................................. .             ",
"                ..   ..................................     ..XX..XX............................................. .             ",
"                .    ............................................................................................ ...           ",
"                    ............................................................................................. ..            ",
"                    ..............................................................................................  .. .        ",
"                     ............................................XX............................................... ... .        ",
"                   . ............................................XX.............................................                ",
"                . . .........................................X..XXX............................................                 ",
"                   ...........................................XXXXXX........................................   .                ",
"                 . ...........................................XXXXXX.......................................                     ",
"                  ...........................................XXXXXXX..........................................                  ",
"                  ...........................................XXXXXXX......................................... ..                ",
"                 ............................................XXXXXXX.........................................                   ",
"                .............................................XXXXXXX..........................................                  ",
"          ...................................................XXXXXXX............................................                ",
"         ....................................................XXXXXX...........................................                  ",
"           ....................................................X...X........................................                    ",
"          .........................................................X..........................................                  ",
"            .......................................................X............................................                ",
"             ................................................................................................                   ",
"               ...............................................X.................................................                ",
"              ............XXX........XXXXXXXXX..X..XXX..XXXXX.X...X.......................XXXXXXXXXXX....XX...X.                ",
"                 XXXXXX.X....XX..XXX.XXXXXXXXXX...X..X..X.XXX.....X..XXXX....................XXXXXXX.....XX...X                 ",
"             XXXX.XXXX.....XXXX.XXXXX.XXXXXXXX...XX..X.X..XXXX......XXXXXXX......X.........X.XXXXXXX....     XX                 ",
"               XX..XXX..XXXXXXXXXXX...XXXXXXX....XX.XX....XXX.....XXXXXXXXXXX......XXX........XXXXXXX...    .X                  ",
"             XXXXXXXXX.XXXXXXXXXXXXX...XXXXXX....X.XXX....XXX....XXXXXXXXXXXXXXXXXXXXXXXXXXXXXXXXXXXX...    .X                  ",
"                .XXXXX.XXXXXXXXXXXXX.X.XXXXXXX....XXXXXX..XXX...XXXXXXXXXXXXXXXXXXXXXXXXXXXXXXXXXXXXX....   .X                  ",
"                 ...XX.XXXXXXXXXXXXXX.XXXXXXXX...XXXXXXX.X.XX.X.XXXXXXXXXXXXXXX  XXXXXXXXXXXXXXXXXXX.....X. ..                  ",
"                 ..........XXXXXX...X.        .....XXXXX...XX..XXXXXXXXXXXXXXX        ..............X.........                  ",
"                 .................... .        ...............XXXXXX..........        ........................                  ",
"                 ............................. ..............XXXXXXX.......... ...............................                  ",
"                 ............................................XXXXXXX..........................................                  ",
"                 ............................................XXXXXXX..........................................                  ",
"                   ..........................................XXXXXXX.......................................... .                ",
"                .. ............................................XXXXX..........................................     .            ",
"                .. ..............................................XXX.......................................... ..  .            ",
"                 . ................................................X.............................................  .            ",
"                   ................................................X.............................................               ",
"                    .........................................X.....................................................             ",
"                    ..............................................X................................................             ",
"                       ........................................X.................................................. .            ",
"                       ..........................................................................................  .            ",
"                        .....................................XXXX................................................               ",
"                        .....................................XXXXXX................................................             ",
"                        .....................................XXXXXXX..................................................          ",
"                        .......................................XXXXX.................................................. .        ",
"                        .....................................XXXXXX...................................................          ",
"                        .....................................XXXXXX   .................................................         ",
"                          .....................................XXXX    ................................................         ",
"                          ...................................XX.XXX     ...............................................         ",
"                          ........................................XX..  .........................................  .....        ",
"                         .............................................. ......................................                  ",
"                         ....................................X...............................................   ....            ",
"                         ....................................XX.................................................     .          ",
"                           ..................................XXX............................................                    ",
"                           ..................................XXXXXXX........................................                    ",
"                          ...................................XXXXXXX.......................................                     ",
"                          ...................................XX.XXXX......................................                      ",
"                     .....................................................................................                      ",
"                        .......................................XXX..............................  .....                         ",
"                      .  .....  ...............................................................  ....   .                       ",
"                      ..  ....    ..........................XX.................................  .                              ",
"                                     ........................XX....X..........................                                  ",
"                                     .........................XX..XX.........................                                   ",
"                                     ........ .   .............XX.XX......................... .                                 ",
"                                     ......   .      .. ........XXXX............................                                ",
"                                     ...                 ...XXXX.XXX...........................                                 ",
"                                      ..                  ..XXXXXX.X............... ...........                                 ",
"                                    .                     . X  XXXXX......      ..  ..........                                  ",
"                                     ..                         XXXXX.... .             .....                                   ",
"                                     ...                                                .....                                   ",
"                                      ..                                                                                        ",
"                                                                 ...                    . ....                                  ",
"                                                                 ...                                                            ",
"                                                                                        ..    .                                 ",
"                                                                                                                                ",
"                                                                                        ....                                    ",
"                                                                                            ....                                ",
"                                                                                                                                ",
"                                                                                                                                ",
"                                                                                                                                ",
"                                                                                                                                ",
"                                                                                                                                ",
"                                                                                                                                ",
"                                                                                                                                ",
"                                                                                                                                ",
"                                                                                                                                ",
"                                                                                                                                ",
"                                                                                                                                ",
"                                                                                                                                "
};
