/* XPM */
static char *_701710516967[] = {
/* columns rows colors chars-per-pixel */
"128 128 19 1 ",
"  c None",
". c black",
"X c #0B0000",
"o c #2B2828",
"O c #7A1616",
"+ c #226B0C",
"@ c gray29",
"# c gray31",
"$ c #A53E3E",
"% c #BD4545",
"& c #BD7F45",
"* c #BD8A45",
"= c #BDAF45",
"- c #454EBD",
"; c #4573BD",
": c #BC45BD",
"> c #45ADBD",
", c #F6DDF1",
"< c white",
/* pixels */
"                                                                                                                                ",
"                                                                                                                                ",
"                                                                                                                                ",
"                                                                                                                                ",
"                                                                                                                                ",
"                                                                                                                                ",
"                                                                                                                                ",
"                                                                                                                                ",
"                                                                                                                                ",
"                                                                                                                                ",
"                                                                                                                                ",
"                                                                                                                                ",
"                                                                                                                                ",
"                                                                                                                                ",
"                                                                                                                                ",
"                                                                                                                                ",
"                                                                                                                                ",
"                                                                                                                                ",
"                                                                                                                                ",
"                                                                                                                                ",
"                                                                                                                                ",
"                                                                                                                                ",
"                                                                                                                                ",
"                                                                                                                                ",
"                                                                                                                                ",
"                                ....  ....  ....  ....  ....  ....  ....  ....  ....  ....  ....  ....                          ",
"                                ....  ....  ....  ....  ....  ....  ....  ....  ....  ....  ....  ....                          ",
"                              ..$<$$..$<$$..$<$$..$<$$..$<$$..$<$$..$<$$..$<$$..$<$$..$<$$..$<$$..$<$$..                        ",
"                             ...$<$$<$$<$$<$$<$$<$$<$$<$$<$$<$$<$$<$$<$$<$$<$$<$$<$$<$$<$$<$$<$$<$$<$$<X.                       ",
"                             ...$<$$<$$<$$<$$<$$<$$<$$<$$<$$<$$<$$<$$<$$<$$<$$<$$<$$<$$<$$<$$<$$<$$<$$<X.                       ",
"                             ..$$<$$<$$<$$<$$<$$<$$<$$<$$<$$<$$<$$<$$<$$<$$<$$<$$<$$<$$<$$<$$<$$<$$<$$<X.                       ",
"                             ..$$<$$<$$<$$<$$<$$<$$<$$<$$<$$<$$<$$<$$<$$<$$<$$<$$<$$<$$<$$<$$<$$<$$<$$<X.                       ",
"                             ..$$<$$<$$<$$<$$<$$<$$<$$<$$<$$<$$<$$<$$<$$<$$<$$<$$<$$<$$<$$<$$<$$<$$<$$<X.                       ",
"                             ..$$<$$<$$<$$<$$<$$<$$<$$<$$<$$<$$<$$<$$<$$<$$<$$<$$<$$<$$<$$<$$<$$<$$<$$<X.                       ",
"                             ............................................................................                       ",
"                ...............................................................................................                 ",
"     ..........................................................................................................                 ",
"    ...;;;.......;;;;;;;;;;;;;;;;;;;;;;;;;;;;;;;;;;;;;;;;;;;;;;;;;;;;;;;;;;;;;;;;;;;;;;;;;;;;;;;;;;;;;;;;;..=..                 ",
"    .=..;...;;;;.;;;;;;;;;;;;;;;;;;;;;;;;;;;;;;;;;;;;;;;;;;;;;;;;;;;;;;;;;;;;;;;;;;;;;;;;;;;;;;;;;;;;;;;;;;.=............       ",
"    .==....;;....;;;;;;;;;;;;;;;;;;;;;;;;;;;;;;;;;;;;;;;;;;;;;;;;;;;;;;;;;;;;;;;;;;;;;;;;;;;;;;;;;;;;;;;;;;.=.................  ",
"    .==...;;.....;;;;;;;;;;;;;;;;;;;;;;;;;;;;;;;;;;;;;;;;;;;;;;;;;;;;;;;;;;;;;;;;;;;;;;;;;;;;;;;;;;;;;;;;;;.....;;;;;;;;......  ",
"    .=...;;..>>>.;;;;;;;;;;;;;;;;;;;;;;;;;;;;;;;;;;;;;;;;;;;;;;;;;;;;;;;;;;;;;;;;;;;;;;;;;;;;;;;;;;;;;;;;;;;;...;;;;;;;;.ooo..  ",
"    .....;;.>>>>.;;;;;;;;;;;;;;;;;;;;;;;;;;;;;;;;;;;;;;;;;;;;;;;;;;;;;;;;;;;;;;;;;;;;;;;;;;;;;;;;;;;;;;;;;;;;...;;;;;;;;.ooo..  ",
"     ...;;..>>>>.;;;;;;;;;;;;;;;;;;;;;;;;;;;;;;;;;;;;;;;;;;;;;;;;;;;;;;;;;;;;;;;;;;;;;;;;;;;;;;;;;;;;;;;;;;;;...;;;;;;;;.ooo..  ",
"      ..;;.>>>>>.;;;;;;;;;;;;;;;;;;;;;;;;;;;;;;;;;;;;;;;;;;;;;;;;;;;;;;;;;;;;;;;;;;;;;;;;;;;;;;;;;;;;;;;;;;;;...;;;X;;;;.ooo..  ",
"      .;;..>>>>>.;;;;;;;;;;;;;;;;;;;;;;;;;;;;;;;;;;;;;;;;;;;;;;;;;;;;;;;;;;;;;;;;;;;;;;;;;;;;;;;;;;;;;;;;;;;;...;;XXX;;.......  ",
"     ..;;..>>><<.;;;;;;;;;;;;;;;;;;;;;;;;;;;;..................................;;;;;;;;;;;;;;;;;;;;;;;;;;;;;;...;;X>X;;.......  ",
"     ..;;..><<<<.;;;;;;;;;;;;;;;;;;;;;;;;;;;;..................................;;;;;;;;;;;;;;;;;;;;;;;;;;;;;;...;;X>X;;..       ",
"     ..;..<<<<<<.;;;;;;;;;;;;;;;;;;;;;;;;;;;;..oooooooooooooooooooooooooooooo..;;;;;;;;;;;;;;;;;;;;;;;;;;;;;;...;;X>X;;..       ",
"    ..;;..<<<<<<.;;;;;;;;;.....................oooooooooooooooooooooooooooooo...........................;;;;;...;;X>X;;..       ",
"    ..;;..<<<<<<.;;;;;;;;;;;;..................oooooooooooooooooooooooooooooo.......................;;;;;;;;;...;;X>X;;..       ",
"    ..;;..<<<<<<.;;;;;;;.......++++++++++++++..##############################..+++++++++++.....+++.....;;;;;;...;;X>X;;..       ",
"    ..;;.<<<<<<<.;;;;;;;;;;;;..++++++++++++++..##############################..++++++++++........+..;;;;;;;;;...;;X>X;;..       ",
"   ..;;..<<<<<>>.;;;;;;;;;;....++++++++++++++..................................++++++++++..$$$$..+......;;;;;...;;X>X;;..       ",
"   ..;;..<<<<>>>.;;;;;;;;;;;;..++++++++++++++.....................................XXXX.XX.$$$<$$....;;;;;;;;;...;;X>X;;..       ",
"   ..;;..>>>>>>>.;;;;;;;;......+++++++++++++++++.XXXXXXXXXXXXXXXXXXXXXXXXXXXXXXXXXXXXXXXXX$<<$<<......;;;;;;;...;;X>X;;..       ",
"   ..;;..>>>>>>>.;;;;;;;;........................$<<$<<<$<<$<<$<<<$<<$<<$XX<$<<$<<$<<<$<<.<$$$$$....;;;;;;;;;...;;X>X;;..       ",
"   ..;;..>>>>><<.;;;;;;;;........................<$$$$$$$$$<$$$$$$$$$<$XXXXX$$$<$$$$$$$$$.$$$<$$.........;;;;...;;X>X;;..       ",
"   ..;;..>>>><<<.;;;;;;;..<$<<$<<<$<<$<<$<<<$<<$.$$$<$$$<$$$$$<$$$<$$$XXX<XX<$$$$$<$$$<$$.$<<$<<....;;;;;;;;;...;;X>X;;..       ",
"   ..;;..>>>><<<.;;;;;...$$<$$$$$$$$$<$$$$$$$$$<.$<<$<<<$<<$<<$<<<$<<$XXo<XX$<<$<<$<<<$<<.<$$$$$......;;;;;;;...;;X>XX;..       ",
"  ..;;..>>><<<<<.;;;;;..<$$$$$<$$$<$$$$$<$$$<$$$.<$$$$$$$$$<$$XXXXXXXXXX<<XX$$$<$$$$$$$$$.$$$<$$....;;;;;;;;;...;X>>>X;..       ",
"  ..;;..><<<<<<<.;;;;;..$<<$<<$<<<$<<$<<$<<<$<<$.$$XXX$$<$$$$XXXXXXXXXXXo#XXXX$$$$<$$$<$$.$<<$<<.........;;;;...;X><<X;..       ",
"  ..;;..<<<<<<<<.;;;;;..$$$<$$$$$$$$$<$$$$$$$$$<.$XXXXX<$<<$XXX########Xo#XXXXX$<<$<<<$<<.<$$$$$....;;;;;;;;;...;X<<<X;..       ",
"  ..;;..<<<<<<<<.;;;;;..<$$$$$<$$$<$$$$$<$$$<$$$.<XX<XX$$$$XX##########X##Xo<XX<$$$$$$$$$.$$$<$$........;;;;;...;X<<>X;..       ",
"  ..;;..<<<<<<<<.;;;;;..$<<$<<$<<<$<<$<<$<<<$<<$.$XX<XX$<$XX###########X##XXXXX$$$<$$$<$$.$<<$<<....;;;;;;;;;...;X>>>X;..       ",
"  ..;;..<<<<<<<<.;;;;;..$$$<$$$$$$$$$<$$$$$$$$$<.$XX<XX<$XXoooo##XXX#XXX##XXXX<$<<$<<<$<<.<$$$$$.......;;;;;;...;X><<X;..       ",
"  ..;;..<<<<<<<<.;;;;;..<$$$$$<$$$<$$$$$<$$$<$$$.<XXoXX$XXooooo##X#XXX####XXXX$<$$$$$$$$$.$$$<$$....;;;;;;;;;...;X<<<X;..       ",
"  ..;;..<<<<<<<>.;;;;;..$<<$<<$<<<$<<$<<$<<<$<<$.$XXoXX$XXoooo###X#######XXXXXX$$$<$$$<$$.$<<$<<........;;;;;...;X<<>X;..       ",
"  ..;;..<<<<<<>>.;;;;;..$$$<$$$$$$$$$<$$$$$$$$$<.$XXoXXXXoooo###XX#####XX#####XX<<$<<<$<<.<$$$$$....;;;;;;;;;...;X>>>X;..       ",
"  ..;;..<<<<<>>>.;;;;;..<$$$$$<$$$<$$$$$<$$$<$$$.<XXXoXXXooo###########X##XX@<#XX$$$$$$$$.$$$<$$......;;;;;;;...;X>>>X;..       ",
"  ..;;..<<<<>>>>.;;;;;..$<<$<<$<<<$<<$<<$<<<$<<$.$$XXoXXX#########oo##X###X#<###XX<$$$<$$.$<<$<<....;;;;;;;;;...;X><<X;..       ",
"  ..;;..<<<>>>>>.;;;;;..$$$<$$$$$$$$$<$$$$$$$$$<.$<XXoXXX#########oo##X#XX:##X##XX$<<<$<<.<$$$$$.........;;;;...;X><<X;..       ",
"  ..;;..>>>>>>>>.;;;;;..<$$$$$<$$$<$$$$$<$$$<$$$.<$XXoooX########ooo##X#X#######XX$$$$$$$.$$$<$$....;;;;;;;;;...;X<<<X;..       ",
"  ..;;..>>>>>>>>.;;;;;..$<<$<<$<<<$<<$<<$<<<$<<$.$$$XXooX########ooo##X###<#####XXX$$$<$$.$<<$<<......;;;;;;;...-X<<>X;..       ",
"  ..;;..>>>>>>>>.;;;;;..$$$<$$$$$$$$$<$$$$$$$$$<.$<<$XXoX#############XX#<#X###X:XX<<<$<<.<$$$$$....;;;;;;;;;...-X>>>X;..       ",
"  ..;;..>>>>>>>>.;;;;;..<$$$$$<$$$<$$$$$<$$$<$$$.<$$$XXoXX##o#########XOX#####XX#XX$$$$$$.$$$<$$.........;;;;...-X>>>X;..       ",
"  ..;;..>>>>>>>>.;;;;;..$<<$<<$<<<$<<$<<$<<<$<<$.$$$<XXooX#oooo#######XXOXXXXXXXXXX$$$<$$.$<<$<<....;;;;;;;;;...-X>>>X;..       ",
"  ..;;..>>>>>>>>.;;;;;..$$$<$$$$$$$$$<$$$$$$$$$<.$<<$<XXXXXoooooo######XOOOX:XXXXX$<<<$<<.<$$$$$....;;;;;;;;;...-;X>XX;..       ",
"   ..;-..>>>>><<.;;;;;..<$$$$$<$$$<$$$$$<$$$<$$$.<$$$$$XXXXoooooo######XXOXX#XX<$$$$$$$$$.$$$<$$.......;;;;;;...-;X>X;;..       ",
"   ..;-..>>>><<<.;;;;;..$<<$<<$<<<$<<$<<$<<<$<<$.$$$<$$$<XXXXoooo#######XXXXXX$$$$<$$$<$$.$<<$<<....;;;;;;;;;...-;X>X;;..       ",
"   ..;-..><<<<<<.;;;;;..$$$<$$$$$$$$$<$$$$$$$$$<.$<<$<<<$<<XXXXoo######XXX<<XX<$<<$<<<$<<.<$$$$$........;;;;;...-;X>X;;..       ",
"   ..;-..<<<<<<<.;;;;;;;.$$$$$<$$$<$$$$$<$$$<$$$.<$$$$$$$$$<$XXXXXXXXXXXX$$$$$$<$$$$$$$$$.$$$<$$....;;;;;;;;;...-;X>X;;..       ",
"   ..;-..<<<<<<<.;;;;;;;..<$<<$<<<$<<$<<$<<<$<<$.$$$<$$$<$$$$$<XXXXXXXXX<$$$<$$$$$<$$$<$$X$<<$<<......;;;;;;;...-;X>X;;..       ",
"   ..;-..<<<<<<<.;;;;;;;;;.......................$<<$<<<$<<$<<$<<<$<<$<<$<<<$<<$<<$<<<$<<X<$$$$$....;;;;;;;;;...-;X>X;;..       ",
"   ..;-..<<<<<<<.;;;;;;;XXX......................<$$$$$$$$$<$$$$$$$$$<$$$$$$$$$<$$$$$$$$$X$$$<$$.........;;;;...-;X>X;;..       ",
"    ..--.<<<<<<>.XXXXXXX,,XX;..++++++++++++++.............................................$<<$<<....;;;;;;;;;...-;X>X;;..       ",
"    ..--..<<<<>>.XX<<,,,,,,,X..++++++++++++++.............................................<$$$$$......;;;;;;;...-;X>X;;..       ",
"    ..--..<<>>>>.;XXXXXX,,,,,XX++++++++++++++..ooooooooooooooooooooooooooooo..+++++++++++..$$<$..+..;;;;;;;;;...-;X>X;;..       ",
"    ..;-..>>>>>>.;;;;;;X,,,,,,,XX++++++++++++..ooooooooooooooooooooooooooooo..+++++++++++........+.......;;;;...-;X>X;;..       ",
"     ..-..>>>>>>.;;;;;;XXXX,,,,,XXX............ooooooooooooooooooooooooooooo........................;;;;;;;;;...-;X>X;;..       ",
"     ..--..>>>>>.;;;;;;;;.XXXXX,,,XX...........ooooooooooooooooooooooooooooo...........................;;;;;;...--X>X;;..       ",
"     ..;-..>>>>>.;-;;;;;;;;;;;XXX,,XXX;;;;;;;..#############################..;;;;;;;;;;;;;;;;;;;;;;;;;;;;;;;...--XXX;;..       ",
"      .;-..>>>>>.--;;;;;;;;;;;;;XXXX+XX;;;;;;..#############################..;;;;;;;;;;;;;;;;;;;;;;;;;;;;;;;...--;X;;;..       ",
"      ..--.>>>>>.--;;;;;-------;;XX%%+%X;;;;;.................................;;;;;;;;;;;;;;;;;;;;;;;;;;;;;;;...------;..       ",
"     ...;-..>>>>.---------------XX%%%+%%X;;;;.................................;;;;;;;;;;;;;;;;;;;;;;;;;;;;;;;...-------..       ",
"    .....--.>>>>.---------------XXX%%+%%XX;;;;;;;;;;;;;;;;;;;;;;;;;;;;;;;;;;;;;;;----------------------------............       ",
"    .=...---.>>>.-----------------XX%+%%OX-----;;;;;;;;;;;;;;;;;;;;;;;;;;;;;---------------------------------............       ",
"    .=.-..--.....-------------------XXOO%%X---------;;;;;;;;;;;;;;;;;;;;;---------------------------------.....                 ",
"    .=.-..----...---------------------XX%%XX---------------;;;;;;;;--------------------------------------..-...                 ",
"    .=.--..-----.----------------------XOOOX-------------------------------------------------------------.-=;..                 ",
"    ...;--.......-----------------------X%+XX------------------------------------------------------------.-;;..                 ",
"      ...................................XOOXX............................................................-;;..                 ",
"                .........................XX+%X....XXXXXXXX................................................-;;..      ....       ",
"           XX                             X+%+X XXX%%+%+%XXXX                                           ..-;;..    .........    ",
"          XXXX             XXXXXXX        XO%+XXX,XX%+%+%+%%X                                           ..-;;..    ...;;;...    ",
"          X++XX         XXX&&&XX&XX       XOOOOXX&&XOO%+%+%OX                                           ..-;;..   ...;;;;;...   ",
"          X+++XX  XX  XXX&&&&&&&&X XXX    X%%+%X,&,X%OOOOOOOX                                           ..-;;..  ...-;..;;;...  ",
"        XXX++++XXXXOXXX&&&&&&&&&&XXX&XXX  XX%+%X&&,X%+%+%+%%X                                           ..-;;..  ..--..;;;;;..  ",
"       XX++X+++X%XOXXXXXXXXXXXXXXX&&&&&&X  XOOOX&,&X%+%+%+%X                                            ..-;;......-..;;;;;;..  ",
"       X+++XXXXXXX%%%X,oooo,,,,,X&&&&&&&X  X%+%X,,&XOOOOOOOX                                            ..--.......-..;;;.;;..  ",
"      XXX++X%%OOXOOO%X,o>>o,,,,X&&&&&&&&X  XOOXX&,XX%+%+%+%X                                            ..-.;;;;;;.-.*...=.;..  ",
"    XXX+XXXXOO%%X%%%OX,o><o,,,,X&&X&&&&X   X+XX,&,X%%+%+%+XX                                            ...-=;;;;;.-.***..;;..  ",
"    X+++++X%%%%%X%%%%X,o<>o,,,X&&&XXX&&X   X%X,&,&XOOOOOOOX                                             ....------.-..*.;;;;..  ",
"    XX++++X%%%%%X%OO%X,o>ooXX,X&&&XoX&&XX  XX,,&,&X+%+%+%X                                               ..........--..;;;;;..  ",
"     XX+++X%%%%%XO%%OX,oooXOOXX&&&XOX&&&XXXXX,,,,X%+%+%+%X                                                .........--..;;;;;..  ",
"      XXXXX%OOOOX%%%%X,ooXOOOXX&&&XOX&&&XX,,,,,,,XOOOOOOX                                                         ..--..;;;...  ",
"       X%OOOO%%%XOOOOX,oooXXX,X&&&XoX&&&X,,,,,,,XX+%+%XXX                                                         ..---;;;..    ",
"       XOO%%%%%%X%%%X,,o>>o,,,X&&&XXX&&XX,,,,,,XXXXXXXX                                                            ...---..     ",
"       XO%%%%%%%X%%%X,,o><o,,,X&&&X&&&&XX,,,,,XX   XX                                                               .......     ",
"       XOO%%%%%%XO%OX,,o<>o,,,,X&&&&&&&&XXXXXXX                                                                      ....       ",
"       X%OOOO%%%X%O%X,,o>oo,,,,X&&&&&&&&X                                                                                       ",
"       XX%%%OOOOX%%%X,,ooo,,,,,,X&&&&XXXX                                                                                       ",
"        XXX%%%%%XO%OXXXXXXXXXXXXXX&&&&X                                                                                         ",
"           XX%%%X%O%X&&&&&&&&&&&&XXXXX                                                                                          ",
"             XXXXX%XX&&&&XX&&&&&&&X                                                                                             ",
"                 XXX XX&&X XX&&&XXX                                                                                             ",
"                      XXXX  XXX&XXX                                                                                             ",
"                        XX    XXXX                                                                                              "
};
