/* XPM */
static char *New_Piskel1710178183[] = {
/* columns rows colors chars-per-pixel */
"128 128 19 1 ",
"  c None",
". c black",
"X c #0B0000",
"o c #2B2828",
"O c #7A1616",
"+ c #226B0C",
"@ c gray29",
"# c gray31",
"$ c #A53E3E",
"% c #BD4545",
"& c #BD7F45",
"* c #BD8A45",
"= c #BDAF45",
"- c #454EBD",
"; c #4573BD",
": c #BC45BD",
"> c #45ADBD",
", c #F6DDF1",
"< c white",
/* pixels */
"                                                                                                                                ",
"                                                                                                                                ",
"                                                  ..................                                                            ",
"                                           ................................                                                     ",
"              XXX          ......      ...........;;;;;;;;;;;;;;;;;;...........      ......                                     ",
"             XX+X          .====..  .......;;;;;;;;;;;;;;;;;;;;;;;;;;;;;;;;.......  ..====..                                    ",
"            XX++XX        .............;----------..................;;;;;;;;;;;........==...                                    ",
"      XXXXXXX++++XXX      .;---....;;------................................;;;;;;;;.......;.                                    ",
"     XX%OOO%X+++XX+XX     .--....;----............>>>>>><<<<<<<<<<>>............;;;;;....;;.                                    ",
"     X%OO%OOX+++X+++X     .-...----.......<<<<<>>>>>>>>><<<<<<<<<<<>>>>>><<<.......;;;;...;.                                    ",
"     X%O%%%OXXXXX+++XXXX  ...----.....>><<<<<<<<>>>>>>>><<<<<<<<<<<>>>>>><<<<<<<.....;;;....                                    ",
"    X%%O%%%O%%%%XXXX+++XX ..----..>>>>>><<<<<<<<>>>>>>>>><<<<<<<<<<<>>>>><<<<<<<>>>>...;;...                                    ",
"    X%OO%%%OO%%%O%X++++XX ..--..>>>>>>>>><<<<<<<>>>>>>>>>><<<<<<<<<<>>>>><<<<<<<<>>>>>..;;..                                    ",
"   X%%O%%%%%O%%%O%X+++XX  ..--.>>>>>>>>>><<<<<<<<>>>>>>>>>><<<<<<<<<<<>>>><<<<<<<>>>>>>..;..                                    ",
"   X%%O%%%%%O%%%%OX++XX   ..-..>>>>>>>>>>><<<<<<<<>>>>>>>>>><<<<<<<<<<<>>>><<<<<<<>>>>>..;..                                    ",
"   X%%O%%%%%O%%%%OXXXX    ..-..>>>>>>>>>>>><<<<<<<>>>>>>>>>>><<<<<<<<<<>>>><<<<<<<>>>>>..;..                                    ",
"   XXXXXXXXXXXXXXXX%X    ....................................................................                                   ",
"  XX%O%%O%%O%O%%%OXXX    ..---------;;;;;XX;;;;;;;;;;;;;;;;;;;;;;;;;;;;;;;;;;;;;;;;;;;;;;;;..                                   ",
"  X%O%%O%%%O%%O%%O%OXX   ..----------;;;XXX;;;;;;;;;;;;;;;;;;;;;;;;;;;;;;;;;;;;;;;;;;;;;;;;..                                   ",
"  XX%O%%O%%O%%O%%O%XOX   ..-------;;;;;;X<X;;;;;;;;;;;;;;;;;;;;;;;;;;;;;;;;;;;;;;;;;;;;;;;;..                                   ",
"   XXXXXXXXO%O%%O%%XX    ..-------;;;;;;X<X;;;;;;;;;;;;;;;;;;;;;;;;;;;;;;;;;;;;;;;;;;;;;;;;..                                   ",
"  X&&X,,,,,XXXXXXXXXX    ..-------;;;;;;X,X;;;;;;;;;;;;;;;;;;;;;;;;;;;;;;;;;;;;;;;;;;;;;;;;..                                   ",
" XX&&X,,,,,,,,,,,,,XXX   ..-------;;;;;;X,X;;;;......................;;;;;;;;;;;;;;;;;;;;;;..                                   ",
" X&&&XoooooooooooooX&X   ..-------;;;;XXX,X;;;;......................;;;;;;;;;;;;;;;;;;;;;;..                                   ",
"XX&&&Xo><>>ooo><>>oX&XX  ..--------;;;X,,,,X;..$$<$$<$$<$$<$$<$$<$$<..;;;;;;.;;;;;;;;;;;;;;..                                   ",
"XXXX&Xoo><>oXoo><>oX&&X  ..--------;;.X,,,,X;.$$<$$<$$<$$<$$<$$<$$<$$....;;;.;;;;;;;;;;;;;;..                                   ",
"   X&X,ooooXOXoooooX&&X  ..--------;;XX,,,XX.<$$<$$<$$<$$<$$<$$<$$<$$<...;;;.;.;;;;;;;;;;;;..                                   ",
"  X&&X,,,,,XOOX,,,,X&&&X ..--------;;X,,,,X..$$<$$<$$<$$<$$<$$<$$<$$<$...;.;.;.;;;;;;;;;;;;..                                   ",
" XX&&X,,,,,XOOX,,,,X&&&X ..--------;;X,,,X;..<$$<$$<$$<$$<$$<$$<$$<$$<...;.;.;.;;;;;;;;;;;;..                                   ",
" X&&&X,,,,,,XX,,,,,X&&&X ..--------;;X,,X....<$$<$$<$$<$$<$$<$$<$$<$$<.........;;;;;;;;;;;;.........                            ",
"XX&&&X,,,XXXXXXX,,,X&&XX ..--------;XX,,X....$<$$<$$<$$<$$<$$<$$<$$<$$.........;;;;;;;;;;;;..........                           ",
"X&&&&X,XX&&&&&&&XX,X&&XX ..-------;;X,,X+++..<$$<$$<$$<$$<$$<$$<$$<$$<..+++++..;;;;;;;;;;;;...$$$$...                           ",
"XXX&&XX&&&&&&&&&&&XX&&&X ..-----XX;XX,XX+++..<$$<$$<$$<$$<$$<$$<$$<$$<..+++++..;;;;;;;;;;;;...$$$$$$$..                         ",
"XXX&XX&&&&&&&&&&&&&XXXXX ..-----XXXX,,X++++..<$$<$$<$$<$$<$$<$$<$$<$$<..+++++..;;;;;;;;;;;;...<<<<<<<..                         ",
" XXXX&&&&XXXXXXXX&&&X X  ..----XX%XX,XX++++..$<$$<$$<$$<$$<$$<$$<$$<$$..+++++..;;;;;;;;;;;;...$$$$$$$..                         ",
"    X&&&&&XoOOoX&&&&XX   ..----X%%%XXX.++++..<$$<$$<$$<$$<$$<$$<$$<$$<..+++++..;;;;;;;;;;;;...$$$$$$$..                         ",
"    X&&&&&XXXXXX&&&&&X   ..---X%%%%+X..++++..<$$<$$<$$<$$<$$<$$<$$<$$<..+++++..;;;;;;;;;;;;...<<<<<<.                           ",
"    X&X&&&&&&&&&&&&&XX   ..---X++++XX..++++..$$<$$<$$<$$<$$<$$<$$<$$<$..+++++..;;;;;;;;;;;;...$$$$$$.                           ",
"     XX&&&&&&&&&&&&&X    ..--XO%%%%X;..++++..<$$<$$<$$<$$<$$<$$<$$<$$<..+++++..;;;;;;;;;;;;...$$$$$$$..                         ",
"      X&&XX&&&XXX&&&X    ..-XXO%%%X;;..++++..<$$<$$<$$<$$<$$<$$<$$<$$<..+++++..;;;;;;;;;;;;...<<<<<<<..                         ",
"      XXXXXXXXX  XXX     ..XO%%OXX;;;..++++..$<$$<$$<$$<$$<$$<$$<$$<$$..+++++..;;;;;;;;;;;;...$$$$$$$..                         ",
"        X,,,XX           XX%O%%XX;;;;..++++..<$$<$$<$$<$$<$$<$$<$$<$$<..+++++..;;;;;;;;;;;;...$$$$$$$..                         ",
"        X,,,,X      XXXXXXO+OXX-;;;;;..++++..<$$<$$<$$<$$<$$<$$<$$<$$<..+++++..;;;;;;;;;;;;...<<<<<<.                           ",
"        X,,,,XXXXXXXX%OO++OXXX--;;;;;..++++..<$$<$$<$$<$$<$$<$$<$$<$$<..+++++..;;;;;;;;;;;;...$$$$$$.                           ",
"        X,,,,XX%+O%O%%O%%%XX----;;;;;..++++..$<$$<$$<$$<$$<$$<$$<$$<$$..+++++..;;;;;;;;;;;;...$$$$$$$..                         ",
"        X,,,,,,XXO+O++O++XX-----;............<$$<$$<$$<$$<$$<$$<$$<$$<..+.........;;;;;;;;;...<<<<<<<..                         ",
"        XX,,,,,,XX%O%%OXX..-----;............<$$<$$<$$<$$<$$<$$<$$<$$<..+.........;;;;;;;;;...$$$$$$$..                         ",
"         XX,,,&&,XXXXXXX ..----;;..##oooo....$$<$$<$$<$$<$$<$$<$$<$$<$..+..##ooo..;;;;;;;;;...$$$$$$$..                         ",
"          XX,,,,&&,&&,XXX..----;;..##oooo..................................##ooo..;;;;;;;;;...<<<<<<.                           ",
"          XXXX&&,,,,&&&,X..----;;..##oooo..<$$<$$<$$<$$<$$<$$<$$<$$<$$<$X..##ooo..;;;;;;;;;...$$$$$$.                           ",
"          X+O%XXXX&&,,&XXX.----;;..##oooo..$<$$<$$<$$<$$<$XXXXXXXX$$<$$<X..##ooo..;;;;;;;;;...$$$$$$$..                         ",
"         XX%O++O%XXXXXXX%X.----;;..##oooo..$<$$<$$<$$<$XXXXXXXXXXXX$<$$<X..##ooo..;;;;;;;;;...<<<<<<<..                         ",
"         XX+O%%O%%O%%%O%%X.---;;;..##oooo..$$<$$<$$<$$XXXXXooo<<<XX$$<$$X..##ooo..;;;;;;;;;...$$$$$$$..                         ",
"          X%O++O++O++OO++X.---;;;..##oooo..$<$$<$$<XXXXooooXXXXXXXX$<$$<X..##ooo..;;;;;;;;;...$$$$$$$..                         ",
"          XXO%%O%%O%%O%%%X.---;;;..##oooo..$<$$<$$XXXXooXXXXXXXXXX$$<$$<X..##ooo..;;;;;;;;;...<<<<<<.                           ",
"           XO++O++O++O+++X.---;;;..##oooo..$<$$<$XXoooooXXXX$$<$$<$$<$$<X..##ooo..;;;;;;;;;...$$$$$$.                           ",
"           XX%%O%%O%%O%%%X.---;;;..##oooo..$$<$$<XXoXXXXXXXXXX$<$$<$$<$$X..##ooo..;;;;;;;;;...$$$$$$$..                         ",
"             XXO++O++O++XX.---;;;..##oooo..$<$$<XXXXX#####ooXXX$$<$$<$$<X..##ooo..;;;;;;;;;...<<<<<<<..                         ",
"               XX%O%%O%%X..---;;;..##oooo..$<$$<XXX#######ooooXX$<$$<$$<X..##ooo..;;;;;;;;;...$$$$$$$..                         ",
"                XXXX%OO%X..--;;;;..##oooo..<$$<XXooo######oooooXX$$<$$<$X..##ooo..;;;;;;;;;...$$$$$$$..                         ",
"                    XXXXX..--;;;;..##oooo..$<$$XXoooo######oooo#XX$$<$$<X..##ooo..;;;;;;;;;...<<<<<<.                           ",
"                         ..--;;;;..##oooo..$<$XXoooo########ooo##XX$<$$<X..##ooo..;;;;;;;;;...$$$$$$.                           ",
"                         ..--;;;;..##oooo..$$<XXoooo#########oo##XXX$<$$X..##ooo..;;;;;;;;;...$$$$$$$..                         ",
"                         ..--;;;;..##oooo..$<XXoooo###############XX<$$<X..##ooo..;;;;;;;;;...<<<<<<<..                         ",
"                         ..--;;;;..##oooo..$<XXoooo########X######XX<$$<X..##ooo..;;;;;;;;;...$$$$$$$..                         ",
"                         ..--;;;;..##oooo..$<XX#######oo###XXXX###XX<$$<X..##ooo..;;;;;;;;;...$$$$$$$..                         ",
"                         ..--;;;;..##oooo..$$XX#######oooo####X###XX$<$$X..##ooo..;;;;;;;;;...<<<<<<.                           ",
"                         ..---;;;..##oooo..$<XX#######oooo###XX###XX<$$<X..##ooo..;;;;;;;;;...$$$$$$.                           ",
"                         ..---;;;..##oooo..$<XX##############X####XX<$$<X..##ooo..;;;;;;;;;...$$$$$$$..                         ",
"                         ..---;;;..##oooo..<$XX##############XX###XX$$<$X..##ooo..;;;;;;;;;...<<<<<<<..                         ",
"                         ..---;;;..##oooo..$<XX####XXXXXXX####X###XXXX$<X..##ooo..;;;;;;;;;...$$$$$$$..                         ",
"                         ..---;;;..##oooo..$<XXX#XXXOX####XX##XXXXXXXXX<X..##ooo..;;;;;;;;;...$$$$$$$..                         ",
"                         ..---;;;..##oooo..$$<XXXXOOX##XX##X#####oo<oXX$X..##ooo..;;;;;;;;;...<<<<<<.                           ",
"                         ..----;;..##oooo..$<$$XXOOX#<##X###X######<<<XXX..##ooo..;;;;;;;;;...$$$$$$.                           ",
"                         ..----;;..##oooo..$<$$<XXOX##<#:XX#XXXXXXXXXXXXX..##ooo..;;;;;;;;;...$$$$$$$..                         ",
"                         ..----;;..##oooo..$<$$<XXXX#X####X#XXXXoXXXXXX<X..##ooo..;;;;;;;;;...<<<<<<<..                         ",
"                         ..-----;..........$$<$XX#:X#####<@#XXXX<XX$$<$$X..##ooo..;;;;;;;;;...$$$$$$$..                         ",
"                         ..-----;..........$<$$XXXXX####X#<#XXXXXXX$<$$<X.........;;;;;;;;;...$$$$$$$..                         ",
"                         ..-----;;;;;..++..$<$$<$XXXX######XX$<XXX$$<$$<X.........;;;;;;;;;...<<<<<<.                           ",
"                         ..-----;;;;;..++..<$$<$$<XXXX####XX$<$$<$$<$$<$X.+++..;;;;;;;;;;;;...$$$$$$.                           ",
"                         ..-----;;;;;..++..$<$$<$$XX#:XXXXX<$$<$$<$$<$$<X.+++..;;;;;;;;;;;;...$$$$$$$..                         ",
"                         ..------;;;;..++..$<$$<$$XXXXXXXX$<$$<$$<$$<$$<X.+++..;;;;;;;;;;;;...<<<<<<<..                         ",
"                         ..------;;;;..++..$$<$$<$$XXXX$$<$$<$$<$$<$$<$$XX+++..;;;;;;;;;;;;...$$$$$$$..                         ",
"                         ..------;;;;..++..$<$$<$$<$$<$$<$$<$$<$$<$$<$$<XX+++..;;;;;;;;;;;;...$$$$$$$..                         ",
"                         ..------;;;;..++..$<$$<$$<$$<$$<$$<$$<$$<$$<$$<XX+++..;;;;;;;;;;;;...<<<<<<.                           ",
"                         ..------;;;;..++..$<$$<$$<$$<$$<$$<$$<$$<$$<$$<XX+++..;;;;;;;;;;;;...$$$$$$.                           ",
"                         ..------;;;;..++..$$<$$<$$<$$<$$<$$<$$<$$<$$<$$X.+++..;;;;;;;;;;;;...$$$$$$$..                         ",
"                         ..------;;;;..++..$<$$<$$<$$<$$<$$<$$<$$<$$<$$<XX+++..;;;;;;;;;;;;...<<<<<<<..                         ",
"                         ..------;;;;..++..$<$$<$$<$$<$$<$$<$$<$$<$$<$$<XX+++..;;;;;;;;;;;;...$$$$$$$..                         ",
"                         ..------;;;;......XXX..........................X...+..;;;;;;;;;;;;...$$$$$$$..                         ",
"                         ..------;;;;....<$$<$$<$$<$$<$$<$$<$$<$$<$$<$$<$$.....;;;;;;;;;;;;...<<<<<<.                           ",
"                         ..------;;;;...$$<$$<$$<$$<$$<$$<$$<$$<$$<$$<$$<$$....;;;;;;;;;;;;...$$$$$$.                           ",
"                         ..------;;;;...$$<$$<$$<$$<$$<$$<$$<$$<$$<$$<$$<$$....;;;;;;;;;;;;...$$$$$$$..                         ",
"                         ..------;;;;...<$$<$$<$$<$$<$$<$$<$$<$$<$$<$$<$$<$....;;;;;;;;;;;;...<<<<<<<..                         ",
"                         ..------;;;;...$$<$$<$$<$$<$$<$$<$$<$$<$$<$$<$$<$$....;;;;;;;;;;;;...$$$$$$$..                         ",
"                         ..------;;;;....$<$$<$$<$$<$$<$$<$$<$$<$$<$$<$$<$..+..;;;;;;;;;;;;...$$$$$$$..                         ",
"                         ..------;;;;.......................................+..;;;;;;;;;;;;...<<<<<<.                           ",
"                         ..------;;;;..++.................................+++..;;;;;;;;;;;;...$$$$$$.                           ",
"                         ..------;;;;..........................................;;;;;;;;;;;;...$$$$$$$..                         ",
"                         ..------;;;;..........................................;;;;;;;;;;;;...<<<<<<<..                         ",
"                         ..------;;;;.;.;.;.;.;.;.;;.;.;.;.;.;.;.;.;.;.;.;.;.;.;;;;;;;;;;;;...$$$$$$$..                         ",
"                         ..------;;;;.;.;.;.;.;.;.;;.;.;.;.;.;.;.;.;.;.;.;.;.;.;;;;;;;;;;;;...$$$$$$$..                         ",
"                         ..------;;;;.;.;;;.;;;.;.;;.;;;.;;;.;.;.;.;;;.;;;.;.;.;;;;;;;;;;;;...<<<<<<.                           ",
"                         ..------;;;;;;.;;;.;;;.;;;;.;;;.;;;.;;;.;.;;;.;;;.;;;.;;;;;;;;;;;;...XXXXXX.                           ",
"               ............------;;;;;;.;;;.;;;;;;;;.;;;.;;;;;;;;;.;;;.;;;;;;;;;;;;;;;;;;;;.........                            ",
"              ................---;;;;;;;;;;;;;;;;;;;;;;;;;;;;;;;;;;;;;;;;;;;;;;;;;;;;;;;;;;..                                   ",
"             ....------------..--;;;;;;;;;;;;;;;;;;;;;;;;;;;;;;;;;;;;;;;;;;;;;;;;;;;;;;;;;...                                   ",
"             ...-.-;;;;;;;;;=-.--;;;;;;;;;;;;;;;;;;;;;;;;;;;;;;;;;;;;;;;;;;;;;;;;;;;;;;......                                   ",
"             ..-=;.;;;;;;;;;;..--;;;;;;;;;;;;;;;;;;;;;;;;;;;;;;;;;;;;;;;;;;;;;;;;;;;;;;.===..                                   ",
"             ..-;;...........................................................................                                   ",
"             ..-;;...........................................................................                                   ",
"             ..-;;..           ...........................................................                                      ",
"             ..-;;..           ..----------------------;;;;;;;;;;;;;;;;;;;;;;;;;;;;;;;;;..                                      ",
"             ..-;;....         ..-----;;;;;;;;;;;;;XXXXXXXXXXXXXXXXX;;;;;;;;;;;;;;;;;;;;..                                      ",
"           ............        ..--;XXXXXXXXXXXXXXX>>><<>>>><<>><<>>XXXXXXXXXXXXXXX;;;;;..                                      ",
"          ...--------....      ..--XX>>>>>>>>>>>>>>>>><<<<>><<<><<<>>>>>>>>>>>>>>>XX;;;;..                                      ",
"         ..----.....--...      ..--;XXXXXXXXXXXXXXX>>>><<<>>><<>><<>XXXXXXXXXXXXXXX;;;;;..                                      ",
"        ...--...**...;;...     ..--;;;;;;;;;;;;;;;XXXXXXXXXXXXXXXXXXX;;;;;;;;;;;;;;;;;;;..                                      ",
"        ..--...**.;;..;;..     ..-;;;;;;;;;;;;;;;;;;;;;;;;;;;;;;;;;;;;;;;;;;;;;;;;;;;;;;..                                      ",
"        ..-;.;;.*.;;;.;;..     ....................................................;;;;;..                                      ",
"        ..-;;;;;..;;;;;;..     ...........................................................                                      ",
"         ..;;;;;.=.;;;;..                                                        ..oooo..                                       ",
"         ...;;;;;.;;;;...                                                        ..oooo..                                       ",
"           ..;;;;;;;;....                                                        ..oooo..                                       ",
"            ...........                                                          ........                                       ",
"            ..........                                                           ........                                       ",
"                                                                                                                                ",
"                                                                                                                                "
};
