/* XPM */
static char *_01710516967[] = {
/* columns rows colors chars-per-pixel */
"128 128 19 1 ",
"  c None",
". c black",
"X c #0B0000",
"o c #2B2828",
"O c #7A1616",
"+ c #226B0C",
"@ c gray29",
"# c gray31",
"$ c #A53E3E",
"% c #BD4545",
"& c #BD7F45",
"* c #BD8A45",
"= c #BDAF45",
"- c #454EBD",
"; c #4573BD",
": c #BC45BD",
"> c #45ADBD",
", c #F6DDF1",
"< c white",
/* pixels */
"                                                                                              XXXX    XX                        ",
"                                                                                             XXX&XXX  XXXX                      ",
"                                                                                             XXX&&&XX X&&XX XXX                 ",
"                                                                                             X&&&&&&&XX&&&&XX%XXXXX             ",
"                                                                                          XXXXX&&&&&&&&&&&&X%O%X%%%XX           ",
"                                                                                         X&&&&XXXXXXXXXXXXXXO%OX%%%%%XXX        ",
"                                                                                       XXXX&&&&X,,,,,,ooo,,X%%%XOOOO%%%XX       ",
"                                                                                       X&&&&&&&&X,,,,oo>o,,X%O%X%%%OOOO%X       ",
"       ....                                                                      XXXXXXX&&&&&&&&X,,,,o><o,,XO%OX%%%%%%OOX       ",
"     .......                                                               XX   XX,,,,,XX&&&&X&&&X,,,o<>o,,X%%%X%%%%%%%OX       ",
"     ..---...                                                            XXXXXXXX,,,,,,XX&&XXX&&&X,,,o>>o,,X%%%X%%%%%%OOX       ",
"    ..;;;---..                                                         XXX%+%+XX,,,,,,,X&&&XoX&&&X,XXXooo,XOOOOX%%%OOOO%X       ",
"  ...;;;..--..                                                         XOOOOOOX,,,,,,,XX&&&XOX&&&XXOOOXoo,X%%%%XOOOO%XXXXX      ",
"  ..;;;;;..--.........                                                X%+%+%+%X,,,,XXXXX&&&XOX&&&XXOOXooo,XO%%OX%%%%%X+++XX     ",
"  ..;;;;;..--..........                                               X%+%+%+X&,&,,XX  XX&&XoX&&&X,XXoo>o,X%OO%X%%%%%X++++XX    ",
"  ..;;;;.*..-.------....                                             XOOOOOOOX&,&,X%X   X&&XXX&&&X,,,o><o,X%%%%X%%%%%X+++++X    ",
"  ..;;..***.-.;;;;;=-...                                            XX+%+%+%%X,&,XX+X   X&&&&X&&X,,,,o<>o,XO%%%X%%OOXXXX+XXX    ",
"  ..;.=...*.-.;;;;;;.-..                                            X%+%+%+%XX,&XXOOX  X&&&&&&&&X,,,,o>>o,X%OOOXOO%%X++XXX      ",
"  ..;;.;;;..-.......--..                                            XOOOOOOOX&,,X%+%X  X&&&&&&&X,,,,,oooo,X%%%XXXXXXX+++X       ",
"  ..;;;;;;..-......;;-..                                            X%+%+%+%X&,&XOOOX  X&&&&&&XXXXXXXXXXXXXXXOX%X+++X++XX       ",
"  ..;;;;;..--..  ..;;-..                                           X%%+%+%+%X,&&X%+%XX  XXX&XXX&&&&&&&&&&XXXOXXXX++++XXX        ",
"  ...;;;..;-...  ..;;-..                                           XOOOOOOO%X,&,X%+%%X    XXX X&&&&&&&&XXX  XX  XX+++X          ",
"   ...;;;;;...   ..;;-..                                           XO%+%+%OOX&&XXOOOOX       XX&XX&&&XXX         XX++X          ",
"    ...;;;...    ..;;-..                                           X%%+%+%+%XX,XXX+%OX        XXXXXXX             XXXX          ",
"    .........    ..;;-..                                           XXXX%+%+%%XXX X+%+X                             XX           ",
"       ....      ..;;-................................................XXXXXXXX....X%+XX.........................                ",
"                 ..;;-............................................................XXOOX...................................      ",
"                 ..;;-.------------------------------------------------------------XX+%X-----------------------.......--;...    ",
"                 ..;=-.-------------------------------------------------------------XOOOX----------------------.-----..--.=.    ",
"                 ...-..--------------------------------------;;;;;;;;---------------XX%%XX---------------------...----..-.=.    ",
"                 .....---------------------------------;;;;;;;;;;;;;;;;;;;;;---------X%%OOXX-------------------.....--..-.=.    ",
"       ............---------------------------------;;;;;;;;;;;;;;;;;;;;;;;;;;;;;-----XO%%+%XX-----------------.>>>.---...=.    ",
"       ............----------------------------;;;;;;;;;;;;;;;;;;;;;;;;;;;;;;;;;;;;;;;XX%%+%%XXX---------------.>>>>.--.....    ",
"       ..-------...;;;;;;;;;;;;;;;;;;;;;;;;;;;;;;;.................................;;;;X%%+%%%XX---------------.>>>>..-;...     ",
"       ..;------...;;;;;;;;;;;;;;;;;;;;;;;;;;;;;;;.................................;;;;;X%+%%XX;;-------;;;;;--.>>>>>.--..      ",
"       ..;;;X;--...;;;;;;;;;;;;;;;;;;;;;;;;;;;;;;;..#############################..;;;;;;XX+XXXX;;;;;;;;;;;;;--.>>>>>..-;.      ",
"       ..;;XXX--...;;;;;;;;;;;;;;;;;;;;;;;;;;;;;;;..#############################..;;;;;;;XXX,,XXX;;;;;;;;;;;-;.>>>>>..-;..     ",
"       ..;;X>X--...;;;;;;...........................ooooooooooooooooooooooooooooo...........XX,,,XXXXX.;;;;;;;;.>>>>>..--..     ",
"       ..;;X>X;-...;;;;;;;;;........................ooooooooooooooooooooooooooooo............XXX,,,,,XXXX;;;;;;.>>>>>>..-..     ",
"       ..;;X>X;-...;;;;.......+........+++++++++++..ooooooooooooooooooooooooooooo..++++++++++++XX,,,,,,,X;;;;;;.>>>>>>..-;..    ",
"       ..;;X>X;-...;;;;;;;;;..+..$<$$..+++++++++++..ooooooooooooooooooooooooooooo..++++++++++++++XX,,,,,XXXXXX;.>>>><<..--..    ",
"       ..;;X>X;-...;;;;;;;......$$$$$<.............................................++++++++++++++..X,,,,,,,<<XX.>><<<<..--..    ",
"       ..;;X>X;-...;;;;;;;;;....<<$<<$.............................................++++++++++++++..;XX,,XXXXXXX.><<<<<<.--..    ",
"       ..;;X>X;-...;;;;.........$$<$$$X$$$$$$$$$<$$$$$$$$$<$$$$$$$$$<$$$$$$$$$<......................XXX;;;;;;;.<<<<<<<..-;..   ",
"       ..;;X>X;-...;;;;;;;;;....$$$$$<X<<$<<<$<<$<<$<<<$<<$<<$<<<$<<$<<$<<<$<<$.......................;;;;;;;;;.<<<<<<<..-;..   ",
"       ..;;X>X;-...;;;;;;;......<<$<<$X$$<$$$<$$$$$<$$$<XXXXXXXXX<$$$$$<$$$<$$$.$<<$<<<$<<$<<$<<<$<<$<..;;;;;;;.<<<<<<<..-;..   ",
"       ..;;X>X;-...;;;;;;;;;....$$<$$$.$$$$$$$$$<$$$$$$XXXXXXXXXXXX$<$$$$$$$$$<.$$$<$$$<$$$$$<$$$<$$$$$.;;;;;;;.<<<<<<<..-;..   ",
"       ..;;X>X;-...;;;;;........$$$$$<.<<$<<<$<<$<XX<<XXX######ooXXXX<<$<<<$<<$.<$$$$$$$$$<$$$$$$$$$<$$$..;;;;;.<<<<<<>..-;..   ",
"       ..;;X>X;-...;;;;;;;;;....<<$<<$.$$<$$$<$$$$XXXXXX#######ooooXXXX<$$$<$$$.$<<$<<<$<<$<<$<<<$<<$<<$..;;;;;.<<<>>>>..-;..   ",
"       ..;;X>X;-...;;;;;;.......$$<$$$.$$$$$$$$$<XX#XXOXX######ooooooXXXX$$$$$<.$$$<$$$<$$$$$<$$$<$$$$$<..;;;;;.<<>>>>>..-;..   ",
"       ..;XX>X;-...;;;;;;;;;....$$$$$<.<<$<<<$XXXXX:XOOOX######ooooooXXXXX<$<<$.<$$$$$$$$$<$$$$$$$$$<$$$..;;;;;.>>>>>>>>..;;..  ",
"       ..;X>>>X-...;;;;;;;;;....<<$<<$.$$<$$$XXXXXXXXXXOXX#######oooo#XooXX<$$$.$<<$<<<$<<$<<$<<<$<<$<<$..;;;;;.>>>>>>>>..;;..  ",
"       ..;X>>>X-...;;;;.........$$<$$$.$$$$$$XX#XX#####XOX#########o##XXoXX$$$<.$$$<$$$<$$$$$<$$$<$$$$$<..;;;;;.>>>>>>>>..;;..  ",
"       ..;X>>>X-...;;;;;;;;;....$$$$$<.<<$<<<XX:X###X#<#XX#############XoXX$<<$.<$$$$$$$$$<$$$$$$$$$<$$$..;;;;;.>>>>>>>>..;;..  ",
"       ..;X><<X-...;;;;;;;......<<$<<$.$$<$$$XXX#####<###X##ooo########XooXX$$$.$<<$<<<$<<$<<$<<<$<<$<<$..;;;;;.>>>>>>>>..;;..  ",
"       ..;X<<<X;...;;;;;;;;;....$$<$$$.$$$$$$$XX#######X#X##ooo########XoooXX$<.$$$<$$$<$$$$$<$$$<$$$$$<..;;;;;.>>>>>>>>..;;..  ",
"       ..;X<<>X;...;;;;.........$$$$$<.<<$<<<$XX##X##:XX#X##oo#########XXXoXX<$.<$$$$$$$$$<$$$$$$$$$<$$$..;;;;;.>>>>><<<..;;..  ",
"       ..;X<<>X;...;;;;;;;;;....<<$<<$.$$<$$$<XX###<#X###X##oo#########XXXoXX$$.$<<$<<<$<<$<<$<<<$<<$<<$..;;;;;.>>>><<<<..;;..  ",
"       ..;X>>>X;...;;;;;;;......$$<$$$.$$$$$$$$XX#<@XX##X###########oooXXXoXXX<.$$$<$$$<$$$$$<$$$<$$$$$<..;;;;;.>>><<<<<..;;..  ",
"       ..;X>>>X;...;;;;;;;;;....$$$$$<.<<$<<<$<<XX#####XX#####XX###ooooXXXXoXX$.<$$$$$$$$$<$$$$$$$$$<$$$..;;;;;.>><<<<<<..;;..  ",
"       ..;X><<X;...;;;;;........<<$<<$.$$<$$$<$$$XXXXXX#######X###ooooXX$XXoXX$.$<<$<<<$<<$<<$<<<$<<$<<$..;;;;;.><<<<<<<..;;..  ",
"       ..;X<<<X;...;;;;;;;;;....$$<$$$.$$$$$$$$$<$XXXX####XXX#X##oooooXX$XXoXX<.$$$<$$$<$$$$$<$$$<$$$$$<..;;;;;.<<<<<<<<..;;..  ",
"       ..;X<<>X;...;;;;;;.......$$$$$<.<<$<<<$<<$<XXXX##XXX#XXX##ooooXX$<XX<XX$.<$$$$$$$$$<$$$$$$$$$<$$$..;;;;;.<<<<<<<<..;;..  ",
"       ..;X>>>X;...;;;;;;;;;....<<$<<$.$$<$$$<$$$XXXXX##X###########XX$<$XX<XX$.$<<$<<<$<<$<<$<<<$<<$<<$..;;;;;.<<<<<<<<..;;..  ",
"       ..;X><<X;...;;;;;........$$<$$$.$$$$$$$$$<XX<oX##X##########XX$$$$XX<XX<.$$$<$$$<$$$$$<$$$<$$$$$<..;;;;;.<<<<<<<<..;;..  ",
"       ..;X<<<X;...;;;;;;;;;....$$$$$<.<<$<<<$<<$XXXXX#oX########XXX$<<$<XXXXX$.<$$$$$$$$$<$$$$$$$$$<$$$..;;;;;.<<<<<<<<..;;..  ",
"       ..;X<<>X;...;;;;.........<<$<<$.$$<$$$<$$$$XXXX#oXXXXXXXXXXX$$$$<$$XXX$$.$<<$<<<$<<$<<$<<<$<<$<<$..;;;;;.<<<<<<<>..;;..  ",
"       ..;X>>>X;...;;;;;;;;;....$$<$$$.$$$$$$$$$<$$$XX<<XXXXXXXXXX$$<$$$$$$$$$<.$$$<$$$<$$$$$<$$$<$$$$$<..;;;;;.<<<<<>>>..;;..  ",
"       ..;XX>X;;...;;;;;;;......$$$$$<.<<$<<<$<<$<<$XX<oXX$<<$<<<$<<$<<$<<<$<<$.<$$$$$$$$$<$$$$$$$$$<$$...;;;;;.<<<>>>>..;;..   ",
"       ..;;X>X;;...;;;;;;;;;....<<$<<$.$$<$$$<$$$$$<XX<XXX$$$<$$$<$$$$$<$$$<$$$.$<<$<<<$<<$<<$<<<$<<$<..;;;;;;;.<<<>>>>..;;..   ",
"       ..;;X>X;;...;;;;.........$$<$$$.$$$$$$$$$<$$$XXXXX$<$$$$$$$$$<$$$$$$$$$<........................;;;;;;;;.<<>>>>>..;;..   ",
"       ..;;X>X;;...;;;;;;;;;....$$$$$<.<<$<<<$<<$<<$<XX$<<$<<$<<<$<<$<<$<<<$<<$........................;;;;;;;;.>>>>>>>..;;..   ",
"       ..;;X>X;;...;;;;;;;......<<$<<$XXXXXXXXXXXXXXXXXXXXXXXXXXXXXXXXXXXXXXXXX.+++++++++++++++++......;;;;;;;;.>>>>>>>..;;..   ",
"       ..;;X>X;;...;;;;;;;;;....$$<$$$.XX.XXXX.....................................++++++++++++++..;;;;;;;;;;;;.>>><<<<..;;..   ",
"       ..;;X>X;;...;;;;;......+..$$$$..++++++++++..................................++++++++++++++....;;;;;;;;;;.>><<<<<..;;..   ",
"       ..;;X>X;;...;;;;;;;;;..+........++++++++++..##############################..++++++++++++++..;;;;;;;;;;;;.<<<<<<<.;;..    ",
"       ..;;X>X;;...;;;;;;.....+++.....+++++++++++..##############################..++++++++++++++.......;;;;;;;.<<<<<<..;;..    ",
"       ..;;X>X;;...;;;;;;;;;.......................oooooooooooooooooooooooooooooo..................;;;;;;;;;;;;.<<<<<<..;;..    ",
"       ..;;X>X;;...;;;;;...........................oooooooooooooooooooooooooooooo.....................;;;;;;;;;.<<<<<<..;;..    ",
"       ..;;X>X;;...;;;;;;;;;;;;;;;;;;;;;;;;;;;;;;..oooooooooooooooooooooooooooooo..;;;;;;;;;;;;;;;;;;;;;;;;;;;;.<<<<<<..;..     ",
"       ..;;X>X;;...;;;;;;;;;;;;;;;;;;;;;;;;;;;;;;..................................;;;;;;;;;;;;;;;;;;;;;;;;;;;;.<<<<>..;;..     ",
"  .......;;X>X;;...;;;;;;;;;;;;;;;;;;;;;;;;;;;;;;..................................;;;;;;;;;;;;;;;;;;;;;;;;;;;;.<<>>>..;;..     ",
"  .......;;XXX;;...;;;;;;;;;;;;;;;;;;;;;;;;;;;;;;;;;;;;;;;;;;;;;;;;;;;;;;;;;;;;;;;;;;;;;;;;;;;;;;;;;;;;;;;;;;;;.>>>>>..;;.      ",
"  ..ooo.;;;;X;;;...;;;;;;;;;;;;;;;;;;;;;;;;;;;;;;;;;;;;;;;;;;;;;;;;;;;;;;;;;;;;;;;;;;;;;;;;;;;;;;;;;;;;;;;;;;;;.>>>>>.;;..      ",
"  ..ooo.;;;;;;;;...;;;;;;;;;;;;;;;;;;;;;;;;;;;;;;;;;;;;;;;;;;;;;;;;;;;;;;;;;;;;;;;;;;;;;;;;;;;;;;;;;;;;;;;;;;;;.>>>>..;;...     ",
"  ..ooo.;;;;;;;;...;;;;;;;;;;;;;;;;;;;;;;;;;;;;;;;;;;;;;;;;;;;;;;;;;;;;;;;;;;;;;;;;;;;;;;;;;;;;;;;;;;;;;;;;;;;;.>>>>.;;.....    ",
"  ..ooo.;;;;;;;;...;;;;;;;;;;;;;;;;;;;;;;;;;;;;;;;;;;;;;;;;;;;;;;;;;;;;;;;;;;;;;;;;;;;;;;;;;;;;;;;;;;;;;;;;;;;;.>>>..;;...=.    ",
"  ......;;;;;;;;.....;;;;;;;;;;;;;;;;;;;;;;;;;;;;;;;;;;;;;;;;;;;;;;;;;;;;;;;;;;;;;;;;;;;;;;;;;;;;;;;;;;;;;;;;;;.....;;...==.    ",
"  .................=.;;;;;;;;;;;;;;;;;;;;;;;;;;;;;;;;;;;;;;;;;;;;;;;;;;;;;;;;;;;;;;;;;;;;;;;;;;;;;;;;;;;;;;;;;;....;;....==.    ",
"       ............=.;;;;;;;;;;;;;;;;;;;;;;;;;;;;;;;;;;;;;;;;;;;;;;;;;;;;;;;;;;;;;;;;;;;;;;;;;;;;;;;;;;;;;;;;;;.;;;;...;..=.    ",
"                 ..=..;;;;;;;;;;;;;;;;;;;;;;;;;;;;;;;;;;;;;;;;;;;;;;;;;;;;;;;;;;;;;;;;;;;;;;;;;;;;;;;;;;;;;;;;;.......;;;...    ",
"                 ..........................................................................................................     ",
"                 ...............................................................................................                ",
"                       ............................................................................                             ",
"                       .X<$$<$$<$$<$$<$$<$$<$$<$$<$$<$$<$$<$$<$$<$$<$$<$$<$$<$$<$$<$$<$$<$$<$$<$$..                             ",
"                       .X<$$<$$<$$<$$<$$<$$<$$<$$<$$<$$<$$<$$<$$<$$<$$<$$<$$<$$<$$<$$<$$<$$<$$<$$..                             ",
"                       .X<$$<$$<$$<$$<$$<$$<$$<$$<$$<$$<$$<$$<$$<$$<$$<$$<$$<$$<$$<$$<$$<$$<$$<$$..                             ",
"                       .X<$$<$$<$$<$$<$$<$$<$$<$$<$$<$$<$$<$$<$$<$$<$$<$$<$$<$$<$$<$$<$$<$$<$$<$$..                             ",
"                       .X<$$<$$<$$<$$<$$<$$<$$<$$<$$<$$<$$<$$<$$<$$<$$<$$<$$<$$<$$<$$<$$<$$<$$<$...                             ",
"                       .X<$$<$$<$$<$$<$$<$$<$$<$$<$$<$$<$$<$$<$$<$$<$$<$$<$$<$$<$$<$$<$$<$$<$$<$...                             ",
"                        ..$$<$..$$<$..$$<$..$$<$..$$<$..$$<$..$$<$..$$<$..$$<$..$$<$..$$<$..$$<$..                              ",
"                          ....  ....  ....  ....  ....  ....  ....  ....  ....  ....  ....  ....                                ",
"                          ....  ....  ....  ....  ....  ....  ....  ....  ....  ....  ....  ....                                ",
"                                                                                                                                ",
"                                                                                                                                ",
"                                                                                                                                ",
"                                                                                                                                ",
"                                                                                                                                ",
"                                                                                                                                ",
"                                                                                                                                ",
"                                                                                                                                ",
"                                                                                                                                ",
"                                                                                                                                ",
"                                                                                                                                ",
"                                                                                                                                ",
"                                                                                                                                ",
"                                                                                                                                ",
"                                                                                                                                ",
"                                                                                                                                ",
"                                                                                                                                ",
"                                                                                                                                ",
"                                                                                                                                ",
"                                                                                                                                ",
"                                                                                                                                ",
"                                                                                                                                ",
"                                                                                                                                ",
"                                                                                                                                ",
"                                                                                                                                "
};
