/* XPM */
static char *_801710516967[] = {
/* columns rows colors chars-per-pixel */
"128 128 19 1 ",
"  c None",
". c black",
"X c #0B0000",
"o c #2B2828",
"O c #7A1616",
"+ c #226B0C",
"@ c gray29",
"# c gray31",
"$ c #A53E3E",
"% c #BD4545",
"& c #BD7F45",
"* c #BD8A45",
"= c #BDAF45",
"- c #454EBD",
"; c #4573BD",
": c #BC45BD",
"> c #45ADBD",
", c #F6DDF1",
"< c white",
/* pixels */
"                                                                                                                                ",
"                                                                                                                                ",
"                                       ........                                                           ..........            ",
"                                       ........                                                          ...........            ",
"                                       ..oooo..                                                        ....;;;;;;;;..           ",
"                                       ..oooo..                                                        ...;;;;.;;;;;...         ",
"                                       ..oooo..                                                        ..;;;;.=.;;;;;..         ",
"                                      ...........................................................     ..;;;;;;..;;;;;-..        ",
"                                      ..;;;;;....................................................     ..;;.;;;.*.;;.;-..        ",
"                                      ..;;;;;;;;;;;;;;;;;;;;;;;;;;;;;;;;;;;;;;;;;;;;;;;;;;;;;;-..     ..;;..;;.**...--..        ",
"                                      ..;;;;;;;;;;;;;;;;;;;XXXXXXXXXXXXXXXXXXX;;;;;;;;;;;;;;;--..     ...;;...**...--...        ",
"                                      ..;;;;;XXXXXXXXXXXXXXX><<>><<>>><<<>>>>XXXXXXXXXXXXXXX;--..      ...--.....----..         ",
"                                      ..;;;;XX>>>>>>>>>>>>>>><<<><<<>><<<<>>>>>>>>>>>>>>>>>XX--..      ....--------...          ",
"                                      ..;;;;;XXXXXXXXXXXXXXX>><<>><<>>>><<>>>XXXXXXXXXXXXXXX;--..        ............           ",
"                                      ..;;;;;;;;;;;;;;;;;;;;XXXXXXXXXXXXXXXXX;;;;;;;;;;;;;-----..         ....;;-..             ",
"                                      ..;;;;;;;;;;;;;;;;;;;;;;;;;;;;;;;;;----------------------..           ..;;-..             ",
"                                      ...........................................................           ..;;-..             ",
"                                   ...........................................................................;;-..             ",
"                                   ...........................................................................;;-..             ",
"                                   ..===.;;;;;;;;;;;;;;;;;;;;;;;;;;;;;;;;;;;;;;;;;;;;;;;;;;;;;;--..;;;;;;;;;;.;=-..             ",
"                                   ......;;;;;;;;;;;;;;;;;;;;;;;;;;;;;;;;;;;;;;;;;;;;;;;;;;;;;;--.-=;;;;;;;;;-.-...             ",
"                                   ...;;;;;;;;;;;;;;;;;;;;;;;;;;;;;;;;;;;;;;;;;;;;;;;;;;;;;;;;;--..------------....             ",
"                                   ..;;;;;;;;;;;;;;;;;;;;;;;;;;;;;;;;;;;;;;;;;;;;;;;;;;;;;;;;;;---................              ",
"                            .........;;;;;;;;;;;;;;;;;;;;.;;;.;;;;;;;;;.;;;.;;;;;;;;.;;;.;;;;;;------............               ",
"                           .XXXXXX...;;;;;;;;;;;;.;;;.;;;.;;;.;.;;;.;;;.;;;.;;;;.;;;.;;;.;;;;;;------..                         ",
"                           .<<<<<<...;;;;;;;;;;;;.;.;.;;;.;;;.;.;.;.;;;.;;;.;;.;.;;;.;;;.;.;;;;------..                         ",
"                         ..$$$$$$$...;;;;;;;;;;;;.;.;.;.;.;.;.;.;.;.;.;.;.;.;;.;.;.;.;.;.;.;;;;------..                         ",
"                         ..$$$$$$$...;;;;;;;;;;;;.;.;.;.;.;.;.;.;.;.;.;.;.;.;;.;.;.;.;.;.;.;;;;------..                         ",
"                         ..<<<<<<<...;;;;;;;;;;;;..........................................;;;;------..                         ",
"                         ..$$$$$$$...;;;;;;;;;;;;..........................................;;;;------..                         ",
"                           .$$$$$$...;;;;;;;;;;;;..+++.................................++..;;;;------..                         ",
"                           .<<<<<<...;;;;;;;;;;;;..+.......................................;;;;------..                         ",
"                         ..$$$$$$$...;;;;;;;;;;;;..+..$<$$<$$<$$<$$<$$<$$<$$<$$<$$<$$<$....;;;;------..                         ",
"                         ..$$$$$$$...;;;;;;;;;;;;....$$<$$<$$<$$<$$<$$<$$<$$<$$<$$<$$<$$...;;;;------..                         ",
"                         ..<<<<<<<...;;;;;;;;;;;;....$<$$<$$<$$<$$<$$<$$<$$<$$<$$<$$<$$<...;;;;------..                         ",
"                         ..$$$$$$$...;;;;;;;;;;;;....$$<$$<$$<$$<$$<$$<$$<$$<$$<$$<$$<$$...;;;;------..                         ",
"                           .$$$$$$...;;;;;;;;;;;;....$$<$$<$$<$$<$$<$$<$$<$$<$$<$$<$$<$$...;;;;------..                         ",
"                           .<<<<<<...;;;;;;;;;;;;.....$$<$$<$$<$$<$$<$$<$$<$$<$$<$$<$$<....;;;;------..                         ",
"                         ..$$$$$$$...;;;;;;;;;;;;..+...X..........................XXX......;;;;------..                         ",
"                         ..$$$$$$$...;;;;;;;;;;;;..+++XX<$$<$$<$$<$$<$$<$$<$$<$$<$$<$..++..;;;;------..                         ",
"                         ..<<<<<<<...;;;;;;;;;;;;..+++XX<$$<$$<$$<$$<$$<$$<$$<$$<$$<$..++..;;;;------..                         ",
"                         ..$$$$$$$...;;;;;;;;;;;;..+++.X$$<$$<$$<$$<$$<$$<$$<$$<$$<$$..++..;;;;------..                         ",
"                           .$$$$$$...;;;;;;;;;;;;..+++XX<$$<$$<$$<$$<$$<$$<$$<$$<$$<$..++..;;;;------..                         ",
"                           .<<<<<<...;;;;;;;;;;;;..+++XX<$$<$$<$$<$$<$$<$$<$$<$$<$$<$..++..;;;;------..                         ",
"                         ..$$$$$$$...;;;;;;;;;;;;..+++XX<$$<$$<$$<$$<$$<$$<$$<$$<$$<$..++..;;;;------..                         ",
"                         ..$$$$$$$...;;;;;;;;;;;;..+++XX$$<$$<$$<$$<$$<$$XXXX$$<$$<$$..++..;;;;------..                         ",
"                         ..<<<<<<<...;;;;;;;;;;;;..+++.X<$$<$$<$$<$$<$XXXXXXXX$$<$$<$..++..;;;;------..                         ",
"                         ..$$$$$$$...;;;;;;;;;;;;..+++.X<$$<$$<$$<$$<XXXXX:#XX$$<$$<$..++..;;;;;-----..                         ",
"                           .$$$$$$...;;;;;;;;;;;;..+++.X$<$$<$$<$$<$XX####XXXX<$$<$$<..++..;;;;;-----..                         ",
"                           .<<<<<<...;;;;;;;;;.........X<$$<$$XXX<$XX######XXXX$<$$<$..++..;;;;;-----..                         ",
"                         ..$$$$$$$...;;;;;;;;;.........X<$$<$XXXXXXX#<#X####XXXXX$$<$..........;-----..                         ",
"                         ..$$$$$$$...;;;;;;;;;..ooo##..X$$<$$XX<XXXX#@<#####X:#XX$<$$..........;-----..                         ",
"                         ..<<<<<<<...;;;;;;;;;..ooo##..X<XXXXXXoXXXX#X####X#XXXX<$$<$..oooo##..;;----..                         ",
"                         ..$$$$$$$...;;;;;;;;;..ooo##..XXXXXXXXXXXXX#XX:#<##XOXX<$$<$..oooo##..;;----..                         ",
"                           .$$$$$$...;;;;;;;;;..ooo##..XXX<<<######X###X##<#XOOXX$$<$..oooo##..;;----..                         ",
"                           .<<<<<<...;;;;;;;;;..ooo##..X$XXo<oo#####X##XX##XOOXXXX<$$..oooo##..;;;---..                         ",
"                         ..$$$$$$$...;;;;;;;;;..ooo##..X<XXXXXXXXX##XX####XOXXX#XXX<$..oooo##..;;;---..                         ",
"                         ..$$$$$$$...;;;;;;;;;..ooo##..X<$XXXX###X####XXXXXXX####XX<$..oooo##..;;;---..                         ",
"                         ..<<<<<<<...;;;;;;;;;..ooo##..X$<$$XX###XX##############XX$<..oooo##..;;;---..                         ",
"                         ..$$$$$$$...;;;;;;;;;..ooo##..X<$$<XX####X##############XX<$..oooo##..;;;---..                         ",
"                           .$$$$$$...;;;;;;;;;..ooo##..X<$$<XX###XX###oooo#######XX<$..oooo##..;;;---..                         ",
"                           .<<<<<<...;;;;;;;;;..ooo##..X$$<$XX###X####oooo#######XX$$..oooo##..;;;;--..                         ",
"                         ..$$$$$$$...;;;;;;;;;..ooo##..X<$$<XX###XXXX###oo#######XX<$..oooo##..;;;;--..                         ",
"                         ..$$$$$$$...;;;;;;;;;..ooo##..X<$$<XX######X########ooooXX<$..oooo##..;;;;--..                         ",
"                         ..<<<<<<<...;;;;;;;;;..ooo##..X<$$<XX###############ooooXX<$..oooo##..;;;;--..                         ",
"                         ..$$$$$$$...;;;;;;;;;..ooo##..X$$<$XXX##oo#########ooooXX<$$..oooo##..;;;;--..                         ",
"                           .$$$$$$...;;;;;;;;;..ooo##..X<$$<$XX##ooo########ooooXX$<$..oooo##..;;;;--..                         ",
"                           .<<<<<<...;;;;;;;;;..ooo##..X<$$<$$XX#oooo######ooooXX$$<$..oooo##..;;;;--..XXXXX                    ",
"                         ..$$$$$$$...;;;;;;;;;..ooo##..X$<$$<$$XXooooo######oooXX<$$<..oooo##..;;;;--..X%OO%XXXX                ",
"                         ..$$$$$$$...;;;;;;;;;..ooo##..X<$$<$$<$XXoooo#######XXX<$$<$..oooo##..;;;---..X%%O%%O%XX               ",
"                         ..<<<<<<<...;;;;;;;;;..ooo##..X<$$<$$<$$XXXoo#####XXXXX<$$<$..oooo##..;;;---.XX++O++O++OXX             ",
"                         ..$$$$$$$...;;;;;;;;;..ooo##..X$$<$$<$$<$XXXXXXXXXXoXX<$$<$$..oooo##..;;;---.X%%%O%%O%%O%%XX           ",
"                           .$$$$$$...;;;;;;;;;..ooo##..X<$$<$$<$$<$$XXXXoooooXX$<$$<$..oooo##..;;;---.X+++O++O++O++OX           ",
"                           .<<<<<<...;;;;;;;;;..ooo##..X<$$<$$XXXXXXXXXXooXXXX$$<$$<$..oooo##..;;;---.X%%%O%%O%%O%%OXX          ",
"                         ..$$$$$$$...;;;;;;;;;..ooo##..X<$$<$XXXXXXXXooooXXXX<$$<$$<$..oooo##..;;;---.X++OO++O++O++O%X          ",
"                         ..$$$$$$$...;;;;;;;;;..ooo##..X$$<$$XX<<<oooXXXXX$$<$$<$$<$$..oooo##..;;;---.X%%O%%%O%%O%%O+XX         ",
"                         ..<<<<<<<...;;;;;;;;;..ooo##..X<$$<$XXXXXXXXXXXX$<$$<$$<$$<$..oooo##..;;----.X%XXXXXXX%O++O%XX         ",
"                         ..$$$$$$$...;;;;;;;;;..ooo##..X<$$<$$XXXXXXXX$<$$<$$<$$<$$<$..oooo##..;;----.XXX&,,&&XXXX%O+X          ",
"                           .$$$$$$...;;;;;;;;;..ooo##..X$<$$<$$<$$<$$<$$<$$<$$<$$<$$<..oooo##..;;----..X,&&&,,,,&&XXXX          ",
"                           .<<<<<<...;;;;;;;;;..ooo##..................................oooo##..;;----..XXX,&&,&&,,,,XX          ",
"                         ..$$$$$$$...;;;;;;;;;..ooo##..+..$<$$<$$<$$<$$<$$<$$<$$<$$....oooo##..;;----.. XXXXXXX,&&,,,XX         ",
"                         ..$$$$$$$...;;;;;;;;;.........+..<$$<$$<$$<$$<$$<$$<$$<$$<............;-----..XXO%%O%XX,,,,,,XX        ",
"                         ..<<<<<<<...;;;;;;;;;.........+..<$$<$$<$$<$$<$$<$$<$$<$$<............;-----XX++O++O+OXX,,,,,,X        ",
"                         ..$$$$$$$...;;;;;;;;;;;;..+++++..$$<$$<$$<$$<$$<$$<$$<$$<$..++++..;;;;;----XX%%%O%%O%O+%XX,,,,X        ",
"                           .$$$$$$...;;;;;;;;;;;;..+++++..<$$<$$<$$<$$<$$<$$<$$<$$<..++++..;;;;;--XXXO++OO%XXXXXXXX,,,,X        ",
"                           .<<<<<<...;;;;;;;;;;;;..+++++..<$$<$$<$$<$$<$$<$$<$$<$$<..++++..;;;;;-XXO+OXXXXXX      X,,,,X        ",
"                         ..$$$$$$$...;;;;;;;;;;;;..+++++..<$$<$$<$$<$$<$$<$$<$$<$$<..++++..;;;;XX%%O%XX           XX,,,X        ",
"                         ..$$$$$$$...;;;;;;;;;;;;..+++++..$$<$$<$$<$$<$$<$$<$$<$$<$..++++..;;;XXO%%OX..     XXX  XXXXXXXXX      ",
"                         ..<<<<<<<...;;;;;;;;;;;;..+++++..<$$<$$<$$<$$<$$<$$<$$<$$<..++++..;;X%%%OXX-..    X&&&XXX&&&XX&&X      ",
"                         ..$$$$$$$...;;;;;;;;;;;;..+++++..<$$<$$<$$<$$<$$<$$<$$<$$<..++++..;X%%%%OX--..    X&&&&&&&&&&&&&XX     ",
"                           .$$$$$$...;;;;;;;;;;;;..+++++..$<$$<$$<$$<$$<$$<$$<$$<$$..++++..XX++++X---..   XX&&&&&&&&&&&&&X&X    ",
"                           .<<<<<<...;;;;;;;;;;;;..+++++..<$$<$$<$$<$$<$$<$$<$$<$$<..++++..X+%%%%X---..   X&&&&&XXXXXX&&&&&X    ",
"                         ..$$$$$$$...;;;;;;;;;;;;..+++++..<$$<$$<$$<$$<$$<$$<$$<$$<..++++.XXX%%%X----..   XX&&&&XoOOoX&&&&&X    ",
"                         ..$$$$$$$...;;;;;;;;;;;;..+++++..$$<$$<$$<$$<$$<$$<$$<$$<$..++++XX,XX%XX----..  X X&&&XXXXXXXX&&&&XXXX ",
"                         ..<<<<<<<...;;;;;;;;;;;;..+++++..<$$<$$<$$<$$<$$<$$<$$<$$<..++++X,,XXXX-----.. XXXXX&&&&&&&&&&&&&XX&XXX",
"                         ..$$$$$$$...;;;;;;;;;;;;..+++++..<$$<$$<$$<$$<$$<$$<$$<$$<..+++XX,XX;XX-----.. X&&&XX&&&&&&&&&&&XX&&XXX",
"                           ...$$$$...;;;;;;;;;;;;..+++++..<$$<$$<$$<$$<$$<$$<$$<$$<..+++X,,X;;-------.. XX&&X,XX&&&&&&&XX,X&&&&X",
"                           ..........;;;;;;;;;;;;.........$$<$$<$$<$$<$$<$$<$$<$$<$....X,,XX;--------.. XX&&X,,,XXXXXXX,,,X&&&XX",
"                            .........;;;;;;;;;;;;.........<$$<$$<$$<$$<$$<$$<$$<$$<....X,,X;;--------.. X&&&X,,,,,XX,,,,,,X&&&X ",
"                                   ..;;;;;;;;;;;;.;.;.;...<$$<$$<$$<$$<$$<$$<$$<$$<..;X,,,X;;--------.. X&&&X,,,,XOOX,,,,,X&&XX ",
"                                   ..;;;;;;;;;;;;.;.;.;...$<$$<$$<$$<$$<$$<$$<$$<$$..X,,,,X;;--------.. X&&&X,,,,XOOX,,,,,X&&X  ",
"                                   ..;;;;;;;;;;;;.;.;;;...<$$<$$<$$<$$<$$<$$<$$<$$<.XX,,,XX;;--------..  X&&XoooooXOXoooo,X&X   ",
"                                   ..;;;;;;;;;;;;;;.;;;....$$<$$<$$<$$<$$<$$<$$<$$.;X,,,,X.;;--------..  X&&Xo><>ooXo><>ooX&XXXX",
"                                   ..;;;;;;;;;;;;;;.;;;;;;..<$$<$$<$$<$$<$$<$$<$$..;X,,,,X;;;--------..  XX&Xo>><>ooo>><>oX&&&XX",
"                                   ..;;;;;;;;;;;;;;;;;;;;;;......................;;;;X,XXX;;;;-------..   X&XoooooooooooooX&&&X ",
"                                   ..;;;;;;;;;;;;;;;;;;;;;;......................;;;;X,X;;;;;;-------..   XXX,,,,,,,,,,,,,X&&XX ",
"                                   ..;;;;;;;;;;;;;;;;;;;;;;;;;;;;;;;;;;;;;;;;;;;;;;;;X,X;;;;;;-------..    XXXXXXXXXX,,,,,X&&X  ",
"                                   ..;;;;;;;;;;;;;;;;;;;;;;;;;;;;;;;;;;;;;;;;;;;;;;;;X<X;;;;;;-------..    XX%%O%%O%OXXXXXXXX   ",
"                                   ..;;;;;;;;;;;;;;;;;;;;;;;;;;;;;;;;;;;;;;;;;;;;;;;;X<X;;;;;;-------..   XOX%O%%O%%O%%O%%O%XX  ",
"                                   ..;;;;;;;;;;;;;;;;;;;;;;;;;;;;;;;;;;;;;;;;;;;;;;;;XXX;;;----------..   XXO%O%%O%%O%%%O%%O%X  ",
"                                   ..;;;;;;;;;;;;;;;;;;;;;;;;;;;;;;;;;;;;;;;;;;;;;;;;XX;;;;;---------..    XXXO%%%O%O%%O%%O%XX  ",
"                                   ....................................................................    X%XXXXXXXXXXXXXXXX   ",
"                                    ..;..>>>>><<<<<<<>>>><<<<<<<<<<>>>>>>>>>>><<<<<<<>>>>>>>>>>>>..-..    XXXXO%%%%O%%%%%O%%X   ",
"                                    ..;..>>>>><<<<<<<>>>><<<<<<<<<<<>>>>>>>>>><<<<<<<<>>>>>>>>>>>..-..   XX++XO%%%%O%%%%%O%%X   ",
"                                    ..;..>>>>>><<<<<<<>>>><<<<<<<<<<<>>>>>>>>>><<<<<<<<>>>>>>>>>>.--..  XX+++X%O%%%O%%%%%O%%X   ",
"                                    ..;;..>>>>><<<<<<<<>>>>><<<<<<<<<<>>>>>>>>>><<<<<<<>>>>>>>>>..--.. XX++++X%O%%%OO%%%OO%X    ",
"                                    ...;;...>>>><<<<<<<>>>>><<<<<<<<<<<>>>>>>>>><<<<<<<<>>>>>>..----.. XX+++XXXX%%%%O%%%O%%X    ",
"                                    ....;;;.....<<<<<<<>>>>>><<<<<<<<<<<>>>>>>>><<<<<<<<>>.....----...  XXXX+++XXXXXO%%%O%X     ",
"                                    .;...;;;;.......<<<>>>>>><<<<<<<<<<<>>>>>>>>><<<<<.......----...-.     X+++X+++XOO%OO%X     ",
"                                    .;;....;;;;;............>><<<<<<<<<<>>>>>>............----;....--.     XX+XX+++X%OOO%XX     ",
"                                    .;.......;;;;;;;;................................------;;....---;.      XXX++++XXXXXXX      ",
"                                    ...==........;;;;;;;;;;;..................----------;.............        XX++XX            ",
"                                    ..====..  .......;;;;;;;;;;;;;;;;;;;;;;;;;;;;;;;;.......  ..====.          X+XX             ",
"                                     ......      ...........;;;;;;;;;;;;;;;;;;...........      ......          XXX              ",
"                                                     ................................                                           ",
"                                                            ..................                                                  ",
"                                                                                                                                ",
"                                                                                                                                "
};
