/* XPM */
static char *New_Piskel_copy_21710178183[] = {
/* columns rows colors chars-per-pixel */
"128 128 11 1 ",
"  c #0B0000",
". c #2B2828",
"X c #7A1616",
"o c #1A4D14",
"O c #226B0C",
"+ c gray31",
"@ c #A53E3E",
"# c #BD4545",
"$ c #BD7F45",
"% c #45ADBD",
"& c white",
/* pixels */
"                                                                                                                                ",
"                                                                                                                                ",
"                                                                                                                                ",
"  ####X####X####X####XOO##X####X####X####X####X####X####X####X####X####X####X####X####X####X####X####X####X####X####X####X####  ",
"  ####X####X####X####XOO##X####X####X####X####X####X####X####X####X####X####X####X####X####X####X####X####X####X####X####X####  ",
"  ####X####X####X####XOO##X####X####X####X####X####X####X####X####X####X####X####X####X####X####X####X####X####X####X####X####  ",
"  ####XXX#XX####XXX#XXOO##XXX#XX####XXX#XX####XXX#XX####XXX#XX####XXX#XX####XXX#XX####XXX#XX####XXX#XX####XXX#XX####XXX#XX####  ",
"  ####X#XX#X####X#XX#OOO##X#XX#X####X#XX######X#XX#X####X#XX######X#XX#X####X#XX######X#XX#X####X#XX######X#XX#X####X#XX######  ",
"  ####X####X####X###OOoO##X####X####X#########X####X####X#########X####X####X#########X####X####X#########X####X####X#########  ",
"  ####X####X####X##OOoo###X####X####X#########X####X####X#########X####X####X#########X####X####X#########X####X####X#########  ",
"  XX#XX#####XX#XX##OooXX#XX#####XX#XX#####XX#XX#####XX#XX#####XX#XX#####XX#XX#####XX#XX#####XX#XX#####XX#XX#####XX#XX#########  ",
"  #XX########XX####Oo##XX########XX########XX########XX########XX########XX########XX######@@@X########XX########XX###########  ",
"  ####X####X####X##OoX####X####X####X####X####X####X####X####OOOOX####X####X####X####X####X@@@#X####X####X####X####X####X#####  ",
"  ####X####X####X##ooX####X####X####X####X####X####X####X####OOOOX####X####X####X####X####X@@@@X####X####X####X####X####X#####  ",
"  ####X####X####X##ooX####X####X####X####X####X####X####X###OOO##X####X####X####X####X####X@@@@X####X####X####X####X####X#####  ",
"  ####X####X####X##ooX####X####X####X####X####X####X####X###OOO##X####X####X####X####X####X@@@@X####X####X####X####X####X#####  ",
"  ####XXX#XX####XXX#XX####XXX#XX####XXX#XX####XXX#XX####XXX#OO###XXX#XX####XXX#XX####XXX#XX@@@@XXX#XX####XXX#XX####XXX#XX#####  ",
"  ####X#XX#X####X#XX######X#XX#X####X#XX######X#XX#X####X#XXOO###X#XX#X####X#XX######X#XX#X@@@@X#XX######X#XX#X####X#XX#######  ",
"  ####X####X####X#########X####X####X#########X####X####X##OOO###X####X####X#########X####X@@@@X#########X####X####X##########  ",
"  ####X####X####X#########X@@@#X####X#########X####X####X##oOO###X####X####X#########X####X@@@@X#########X####X####X##########  ",
"  XX#XX#####XX#XX#####XX#XX@@@##XX#XX#####XX#XX#####XX#XX##oOXX#XX#####XX#XX#####XX#XX#####XX#XX#####XX#XX#####XX#XX#####XX#X#  ",
"  #XX###@@###XX########XX##@@@###XX########XX########XX####oOOXX########XX########XX########XX########XX########XX########XX##  ",
"  ####@@@@X####X####X####X#@@@X####X####X####X####X####X@@@oOO###X####X####X####X####X####X####X####X####X####X####X####X#####  ",
"  ###@@@@@X####X####X####X#@@@X####X####X####X####X####X@@@oOO###X####X####X####X####X####X####X####X####X####OO###X####X#####  ",
"  ###@@@@@X####X####X####X#@@@X####X####X####X####X####X@@@oOO###X####X####X####X####X####X####X####X####X####Oo###X####X#####  ",
"  ###@@@@@X####X####X####X#@@@X####X####X####X####X####X@@@ooO###X####X####X####X####X####X####X####X####X####OOo##X####X#####  ",
"  ###@@@@@XXX#XX####XXX#XX#@@@XXX#XX####XXX#XX####XXX#XX@@@@oOO##XXX#XX####XXX#XX####XXX#XX####XXX#XX####XXX#XOOo##XXX#XX#####  ",
"  ###@@@@@X#XX#X####X#XX###@@@X#XX#X####X#XX######X#XX#X@@@@oOO##X#XX#X####X#XX######X#XX#X####X#XX######X#XX#OOo##X#XX#######  ",
"  ####@@@@X####X####X######@@@X####X####X#########X####X@@@@ooO##X####X####X#########X####X####X#########X####Ooo##X##########  ",
"  ####@@@@X####X####X######@@@X####X####X#########X####X@@@@XoO##X####X####X#########X####X####X#########X####Oo###X##########  ",
"  ####XX#XX#####XX#XX#####XX#XX#####XX#XX#####XX#XX#####XX#XXXX#XX#####XX#XX#####XX#XX#####XX#XX#####XX#XX#####XX#XX##########  ",
"  #####XX########XX########XX########XX########XX########XX###XX########XX########XX########XX########XX########XX############  ",
"  ####X####X####X####X####X####X####X####X####X####X####X############X####X####X####X####X####X####X####X####X####X####X####X#  ",
"  ####X####X####X####X####X####X####X####X####X####X####X############X####X####X####X####X####X####X####X####X####X####X####X#  ",
"  ####X####X####X####X####X####X####X####X####X####X####X############X####X####X####X####X####X####X####X####X####X####X####X#  ",
"  ####X####X####X####X####X####X####X####X####X####X####X############X####X####X####X####X####X####X####X####X####X####X####X#  ",
"  ####XXX#XX####XXX#XX####XXX#XX####XXX#XX####XXX#XX####XXX#X########XXX#XX####XXX#XX####XXX#XX####XXX#XX####XXX#XX####XXX#XX#  ",
"  ####X#XX#X####X#XX######X#XX#X####X#XX######X#XX#X####X#XX#########X#XX#X####X#XX@@####X#XX#X####X#XX######X#XX#X####X#XX###  ",
"  ####X####X####X#########X########X####X####X####X####X####X####X####X####X####X@@@@X####X########X#########X####X####X######  ",
"  ####X####X####X#########X########X####X####X####X####X####X####X####X####X####X@@@@X####X########X#########X####X####X######  ",
"  XX#XX#####XX#XX#####XX#XX########X####X####X####X####X####X####X####X####X####X@@@@X####X####XX#XX#####XX#XX#####XX#XX#####X  ",
"  #XX########XX########XX##########X####X####X####X####X####X####X####X####X####X@@@@X####X#####XX########XX########XX########  ",
"  ####X####X####X####X####X########XXX#XX####XXX#XX####XXX#XX####XXX#XX####XXX#XX@@@@XXX#XX#####X####X####X####X####X####X####  ",
"  ####X####X####X####X####X########X#XX#X####X#XX######X#XX#X####X#XX######X#XX#X@@@@X#XX#######X####X####X####X####X####X####  ",
"  ####X####X####X####X####X########X####X####X#########X####X####X#########X####X@@@@X##########X####X####X####X####X####X####  ",
"  ####X####X####X####X####X########X####X####X#########X####X####X#########X####X@@@@X##########X####X####X####X####X####X####  ",
"  ####XXX#XX####XXX#XX####XXX#XXX#XX#####XX#XX#####XX#XX#####XX#XX#####XX#XX#####XX#XX#####XX#X#XXX#XX####XXX#XX####XXX#XX####  ",
"  ####X#XX#X####X#XX######X#XX##XX########XX########XX########XX########XX########XX########XX##X#XX######X#XX#X####X#XX######  ",
"  ####X####X####X#########X###@@@@@X####X####X####X####X####X####X####X####X####X####X####X#####X#########X####X####X#########  ",
"  ####X####X####X#########X###OO@@@X####X####X####X####X####X####X####XOO##X####X####X####X#####X#########X####X####X#########  ",
"  XX#XX#####XX#XX#####XX#XX##oOO@@@X####X####X####X####X####X####X####XOO##X####X####X####X#####X####X####X####X####X####X####  ",
"  ##X####X####X####X####X####oOO@@@X####X####X####X####X####X####X####XOOo#X####X####X####X#####X####X####X####X####X####X####  ",
"  ##X####X####X####X####X####ooO@@@XXX#XX####XXX#XX####XXX#XX####XXX#XXOOo#XXX#XX####XXX#XX#####X####X####X####X####X####X####  ",
"  ##X####X####X####X####X####XoOO@@X#XX#X####X#XX######X#XX#X####X#XX##OOo#X#XX#X####X#XX#######X####X####X####X####X####X####  ",
"  ##X####X####X####X####X####XooO@@X####X####X#########X####X####X####Oooo#X####X####X##########XXX#XX####XXX#XX####XXX#XX####  ",
"  ##XXX#XX####XXX#XX####XXX#XX@oO@@X####X####X#########X####X####X####Ooo##X####X####X##########X#XX######X#XX#X####X#XX######  ",
"  ##X#XX#X####X#XX######X#XX#X#XX#XX#####XX#XX#####XX#XX#####XX#XX#####oX#XX#####XX#XX##########X#########X####X####X#########  ",
"  ##X####X####X#########X####X##XX########XX########XX########XX########XX########XX############X#########X####X####X#########  ",
"  ##X####X####X#########X####X#########X####X####X####X####X####X####X####X####X####X####X####XXX#####XX#XX#####XX#XX####OoX#X  ",
"  #XX#####XX#XX#####XX#XX#####X########X####X####X####X####X####X####X####X####X####X####X####X########XX########XX######OoXX#  ",
"  X########XX########XX################X####X####X####X####X####X####X####X####X####X####X####X#X####X@@@@X####X####X####Oo###  ",
"  ##X####X####X####X####X####X#########X####X####X####X####X####X####X####X####X####X####X####X#X####X@@@@X####X####X####oo###  ",
"  ##X####X####X####X####X####X#########XXX#XX####XXX#XX####XXX#XX####XXX#XX####XXX#XX####XXX#XX#X####X@@@@X####X####X####oO###  ",
"  ##X####X####X####X####X####X#########X#XX#X####X#XX######X#XX#X####X#XX######X#XX#X####X#XX###X####X@@@@X####X####X####oO###  ",
"  ##X####X####X####X####X####X#########X####X####X#########X####X####X#########X####X####X######XXX#XX@@@@XXX#XX####XXX#Xoo###  ",
"  ##XXX#XX####XXX#XX####XXX#XX#########X####X####X#########X####X####X#########X####X####X######X#XX##@@@@X#XX#X####X#XX#Oo###  ",
"  ##X#XX#X####X#XX######X#XX#X#####XX#XX#####XX#XX#####XX#XX#####XX#XX#####XX#XX#####XX#XX######X#####@@@@X####X####X###OOo###  ",
"  ##X####X####X#########X####X######XX########XX########XX########XX########XX########XX########X#####@@@@X####X####X###Ooo###  ",
"  ##X####X####X#########X####X####X#########X####X####X#######XX#XX#####XX#XX#####XX#XX#####XX#XX#####XX#XX#####XX#XX###Oo####  ",
"  #XX#####XX#XX#####XX#XX#####XX#XX#####XX#XX#####XX#XX########XX########XX########XX########XX########XX########XX#####Oo####  ",
"  X########XX########XX########XX########XX########XX#################X####X####X####X####X####X####X####X####X####X####oo###X  ",
"  ######X####X####X####X####X####X####X####X####X####X@@@@X###########X####X####X####X####X####X####X####X####X####X####oO###X  ",
"  ######X####X####X####X####X####X####X####X####X####X@@@@X###########X####X####X####X####X####X####X####X####X####X####oO###X  ",
"  ######X####X####X####X####X####X####X####X####X####X@@@@X###########X####X####X####X####X####X####X####X####X####X####oO###X  ",
"  ######X####X####X####X####X####X####X####X####X####X@@@@X###########XXX#XX####XXX#XX####XXX#XX####XXX#XX####XXX#XX###OoOX#XX  ",
"  ######XXX#XX####XXX#XX####XXX#XX####XXX#XX####XXX#XX@@@@XXX#########X#XX#X####X#XX######X#XX#X####X#XX######X#XX#X###OoOXX##  ",
"  ######X#XX#X####X#XX######X#XX#X####X#XX######X#XX#X@@@@X#XX########X####X####X#########X####X####X#########X####X###Oo#####  ",
"  ######X####X####X#########X####X####X#########X####X@@@@X###########X####X####X#########X####X####X#########X####X###oo#####  ",
"  ######X####X####X#########X####X####X#########X####X@@@@X#######XX#XX#####XX#XX#####XX#XX#####XX#XX#####XX#XX#####XX#XX#####  ",
"  ##XX#XX#####XX#XX#####XX#XX#####XX#XX#####XX#XX#####XX#XX########XX########XX########XX########XX########XX########XX#######  ",
"  ###XX########XX########XX########XX########XX########XX#####################################################################  ",
"  XXXXXXXXXXXXXXXXXXXXXXXXXXXXXXXXXXXXXXXXXXXXXXXXXXXXXXXXXXXXXXXXXXXXXXXXXXXXXXXXXXXXXXXXXXXXXXXXXXXXXXXXXXXXXXXXXXXXXXXXXXXX  ",
"  OOOOOOOOOOOOOOOOOOOOOOOOOOOOOOOOOOOOOXXXXXXXXXXXXXXXXXXXXXXXXXXXXOOOOOOOOOOOOOOOOOOOOOOoooooooOOOOOOOOXXXXXXXXXXXXXXXXXXXXXX  ",
"  ooooooooooooooooooooooooooOOOOOOOOOOOXXXXXXXXXXXXXXXXXXXXXXXXXXXXooooooooooooooooooooooOOOOOOoOOOOOOOOXXXXXXXXXXXXXXXXXXXXXX  ",
"                                                                                                                                ",
"   ..........................................................................................................................   ",
"                                                                                                                                ",
"   ++++++++++++++++++++++++++++++++++++++++++++++++++++++++++++++++++++++++++++++++++++++++++++++++++++++++++++++++++++++++++   ",
"   +++++                          +++                          ++++                          +++                          +++   ",
"   ++++                           ++                           +++                           ++                           +++   ",
"   ++++  %&&&&&%%%%%%%&&&&%%%%%%  ++  %&&&&&%%%%%%%&&&&%%%%%%  +++  %&&&&&%%%%%%%&&&&%%%%%%  ++  %&&&&&%%%%%%%&&&&%%%%%%  +++   ",
"   ++++  %&&&&&&%%%%%%&&&&%%%%%%  ++  %&&&&&&%%%%%%&&&&%%%%%%  +++  %&&&&&&%%%%%%&&&&%%%%%%  ++  %&&&&&&%%%%%%&&&&%%%%%%  +++   ",
"   ++++  %%%&&&&%%%%%%%&&&&%%%%%  ++  %%%&&&&%%%%%%%&&&&%%%%%  +++  %%%&&&&%%%%%%%&&&&%%%%%  ++  %%%&&& %%%%%%%&&&&%%%%%  +++   ",
"   ++++   %%%&&&&%%%%%%&&&&%%%%   ++   %%%  && %%%%%&&&&%%%%   +++   %%%&&&&%%%%%%&&&&%%%%   ++   %%%&&  %  %%%&&&&%%%%   +++   ",
"   ++++   %%%%&& %%%%%%%&&&&%%%   ++   %%%%&  %%%%%%%&&&&%%%   +++   %%%%&&&%%% %%%&&&&%%%   ++   %%%%&&   %%%%%&&&&%%%   +++   ",
"   +++++  %%%%&&&  %%%%%%&&&&%   ++++  %%%%& &&%%%%%%%&&&&%   +++++  %%%%&&&&%  %% %&&&&%   ++++  %%%%&& &%%%%%%%&&&&%   ++++   ",
"   +++++   %%%%&&& %%%%%%&&&&%   ++++   %%%%  &%%%%%%%&&&&%   +++++   %%%%&&&%     %&&&&%   ++++   %%%%&    %%%%%&&&&%   ++++   ",
"   ++++++  %%%%&&&   %%%%&&&&&  ++++++  %%%%&  &%%%%%%&&&&&  +++++++  %%%%&&&&  %%%%&&&&&  ++++++  %%%%&&&&%%%%%%&&&&&  +++++   ",
"   +++++++ %%%%&&&&&%%%%%%&&&   +++++++ %%%%&&&&&%%%%%%&&&   ++++++++ %%%%&&&  %%%%%%&&&   +++++++ %%%%&&&&&%%%%%%&&&   +++++   ",
"   +++++++  %%%%%&&&&%%%%%%&&  ++++++++  %%%%%&&&&%%%%%%&&  +++++++++  %%%%%& &&%%%%%%&&  ++++++++  %%%%%&&&&%%%%%%&&  ++++++   ",
"   +++++++   %%%%&&&&%%%%%%%   ++++++++   %%%%&&&&%%%%%%%   +++o+++++   %%%%&&&&%%%%%%%   ++++++++   %%%%&&&&%%%%%%%   ++++++   ",
"   +++o+++                    +++++++++                    ++++o+++++                    +++++++++                    +++++++   ",
"   +++o++++                  +++++++++++                  +++++o++++++                  +++++++++++                  ++++++++   ",
"   +++o+++++++++++++++++++++++++++++++++++++++++++++++++++++++o++++++++++++++++++++++++++++++++++++++++++++++++++++++++++++++   ",
"   +++o++++++++++++++++++++++++++++++++++++++++++++++++++++++oo++++++++++++++++++++++++++++++++++++++++++++++++++++++++++++++   ",
"   +++oo+++++               ++++++++++++++               +++oo++++++++++               ++++++++++++++               +++++++++   ",
"   ++++o+++++               ++++++++++++++               +++o+++++++++++               ++++++++++++o+               +++++++++   ",
"   ++++o++o++  %&&%% &&%%   ++++++++++++++  %&&%%&&&%%   ++oo+++++++++++  %&&%%&&&%%   +++++++++++oo+  %&&%%&&&%%   +++++++++   ",
"   ++++o+oo++   &&&% &&&%  +++++++++++++++   &&  %&&&%  ++oo++++++++++++   &&&%%&&&%  +++++++++++oo++   &&&%%&&&%  ++++++++++   ",
"   ++++ooo++++  %&&%%%&&&  ++++++++++++++++  %&&  %&&&  ++o+o++++++++++++  %&&%% &&&  +++++++++++o++++  %&&%%%&&&  ++++++++++   ",
"   +++++oo+++++  &&&%%%&  ++++++++++++++++++  &&&%%%&  +++ooo+++++++++++++  &&&%%%&  ++++++o+++++o+++++  &&&%%%&  +++++++++++   ",
"   +++++oo++++++         +++++         ++++++         ++++oo+         +++++         +++++++o+++++o++++++         +++++++++o++   ",
"   +++++o+++++++++++++++++++++ %&%%&&% +++++++++++++++++++o++ %&%%&&% +++++++++++++++++++++oo+++++o+++++++++++++++++++++++o++   ",
"   ++oo+o+++++++++++++++++++++ %&&%%&& +++++++++++++++++++o++ %&&%%&& ++++++++++++++++++++++o+++++o+++++++++++++++++++++++o++   ",
"   +++o+o+++++++++++++++++++++  %&&%&  ++oo+++++++++++++++o++  %&&%&  ++++++++++++++++++++++o+++++oo+++++++++++++++++++++o+++   ",
"   +++ooo+++++++         ++++++  %&%  +++oo++         +++oo+++  %&%  ++++++         ++++++++o++++++o++++         ++++++++o+++   ",
"   ++++oo+++++++ %&%%&&% +++++++     ++++o+++ %&%%&&% +++o+++++     +++++++ %&%%&&% ++++++++o++++++oo+++ %&%%&&% ++++++++oo++   ",
"   +++++oo++++++ %&   && +++++++++++++++oo+++ %&&%%&& +++o+++++++++++++++++ %& %%&& ++++++++o+++++++o+++ %&&%%&& +++++++++o++   ",
"   ++++++o++++++  %&&%&  +++++++++++++++o++++  %&&%&  +++o+++++++++++++++++  %  %&  +++++++oo+++++++o+++  %&& &  +++ooo++oo++   ",
"   ++++++o+o+++++  %&%  ++++++++++++++++o+++++  %&%  ++++o++++++++++++++++++  %&%  ++++++++o++++++++o++++  %&%  ++++++o+oo+++   ",
"   ++++++oo+++++++     +++++++++++++++++o++++++     +++++o+++++++++++++++++++     +++++++++o++++++ooo+++++     +++++++ooo++++   ",
"   +++++oo++++++++++++++++++++++++++++++o++++++++++++++++o+++++   +++++++++++++++++++++++++o+++++oo+++++++++++++++++++++o++++   ",
"   .....o...............................o................o..... # .........................o.....o.....................ooo...   ",
"   ....oo...............................o................o....  #  ........................ooo..o.....................oo.oo..   ",
"   ....o................................o...............o..... ##$ ...........................ooo.........................o..   ",
"   ...o................................o................o..... ### ............................oo.........................o..   ",
"                                                                                                                                ",
"                                                                                                                                "
};
